<svg xmlns="http://www.w3.org/2000/svg" xmlns:xlink="http://www.w3.org/1999/xlink" width="350" zoomAndPan="magnify" viewBox="0 0 262.5 142.499996" height="190" preserveAspectRatio="xMidYMid meet" version="1.0"><defs><g/><clipPath id="a7384737ec"><path d="M 177.753906 125 L 243.644531 125 L 243.644531 136 L 177.753906 136 Z M 177.753906 125 " clip-rule="nonzero"/></clipPath><clipPath id="391689bdab"><path d="M 235.015625 10.003906 L 248.0625 10.003906 L 248.0625 133.953125 L 235.015625 133.953125 Z M 235.015625 10.003906 " clip-rule="nonzero"/></clipPath><clipPath id="3b1620e496"><path d="M 239 10.003906 L 248 10.003906 L 248 131 L 239 131 Z M 239 10.003906 " clip-rule="nonzero"/></clipPath><clipPath id="ed57197b2b"><path d="M 235.015625 22 L 245 22 L 245 133.953125 L 235.015625 133.953125 Z M 235.015625 22 " clip-rule="nonzero"/></clipPath><clipPath id="94d228c59d"><path d="M 235.015625 10.003906 L 248.0625 10.003906 L 248.0625 133.953125 L 235.015625 133.953125 Z M 235.015625 10.003906 " clip-rule="nonzero"/></clipPath><clipPath id="d76aa2f593"><path d="M 20 111 L 25 111 L 25 116 L 20 116 Z M 20 111 " clip-rule="nonzero"/></clipPath><clipPath id="7f2b170a31"><path d="M 12.191406 119.546875 L 7.320312 106.746094 L 20.125 101.871094 L 24.996094 114.675781 Z M 12.191406 119.546875 " clip-rule="nonzero"/></clipPath><clipPath id="91d991c43b"><path d="M 12.191406 119.546875 L 7.320312 106.746094 L 20.125 101.871094 L 24.996094 114.675781 Z M 12.191406 119.546875 " clip-rule="nonzero"/></clipPath><clipPath id="a3cb4a1724"><path d="M 15 106 L 23 106 L 23 118 L 15 118 Z M 15 106 " clip-rule="nonzero"/></clipPath><clipPath id="b539cb70c7"><path d="M 12.191406 119.546875 L 7.320312 106.746094 L 20.125 101.871094 L 24.996094 114.675781 Z M 12.191406 119.546875 " clip-rule="nonzero"/></clipPath><clipPath id="0716a61ffd"><path d="M 12.191406 119.546875 L 7.320312 106.746094 L 20.125 101.871094 L 24.996094 114.675781 Z M 12.191406 119.546875 " clip-rule="nonzero"/></clipPath><clipPath id="72b787c3d6"><path d="M 11 101 L 22 101 L 22 120 L 11 120 Z M 11 101 " clip-rule="nonzero"/></clipPath><clipPath id="d106b1b75e"><path d="M 12.191406 119.546875 L 7.320312 106.746094 L 20.125 101.871094 L 24.996094 114.675781 Z M 12.191406 119.546875 " clip-rule="nonzero"/></clipPath><clipPath id="00a776f2df"><path d="M 12.191406 119.546875 L 7.320312 106.746094 L 20.125 101.871094 L 24.996094 114.675781 Z M 12.191406 119.546875 " clip-rule="nonzero"/></clipPath></defs><g fill="#ffffff" fill-opacity="1"><g transform="translate(17.300319, 53.183729)"><g><path d="M 3.0625 -42.046875 L 18.40625 -42.046875 C 22.6875 -42.046875 26.148438 -40.941406 28.796875 -38.734375 C 31.441406 -36.523438 32.765625 -33.3125 32.765625 -29.09375 C 32.765625 -24.882812 31.421875 -21.582031 28.734375 -19.1875 C 26.054688 -16.789062 22.613281 -15.59375 18.40625 -15.59375 L 12.640625 -15.59375 L 12.640625 0 L 3.0625 0 Z M 12.640625 -23.234375 L 15.34375 -23.234375 C 17.476562 -23.234375 19.234375 -23.664062 20.609375 -24.53125 C 21.992188 -25.40625 22.6875 -26.828125 22.6875 -28.796875 C 22.6875 -30.796875 21.992188 -32.226562 20.609375 -33.09375 C 19.234375 -33.96875 17.476562 -34.40625 15.34375 -34.40625 L 12.640625 -34.40625 Z M 12.640625 -23.234375 "/></g></g></g><g fill="#ffffff" fill-opacity="1"><g transform="translate(51.247956, 53.183729)"><g><path d="M 3.0625 0 L 3.0625 -26.140625 L 12.078125 -26.140625 L 12.078125 -22.375 L 12.1875 -22.375 C 12.25 -22.507812 12.351562 -22.675781 12.5 -22.875 C 12.65625 -23.082031 12.988281 -23.441406 13.5 -23.953125 C 14.007812 -24.460938 14.550781 -24.921875 15.125 -25.328125 C 15.707031 -25.734375 16.457031 -26.097656 17.375 -26.421875 C 18.289062 -26.742188 19.226562 -26.90625 20.1875 -26.90625 C 21.164062 -26.90625 22.128906 -26.769531 23.078125 -26.5 C 24.035156 -26.226562 24.734375 -25.957031 25.171875 -25.6875 L 25.890625 -25.28125 L 22.125 -17.640625 C 21 -18.585938 19.4375 -19.0625 17.4375 -19.0625 C 16.34375 -19.0625 15.40625 -18.820312 14.625 -18.34375 C 13.84375 -17.875 13.289062 -17.296875 12.96875 -16.609375 C 12.644531 -15.929688 12.414062 -15.351562 12.28125 -14.875 C 12.144531 -14.40625 12.078125 -14.035156 12.078125 -13.765625 L 12.078125 0 Z M 3.0625 0 "/></g></g></g><g fill="#ffffff" fill-opacity="1"><g transform="translate(76.632219, 53.183729)"><g><path d="M 5.53125 -3.109375 C 2.625 -5.691406 1.171875 -9.003906 1.171875 -13.046875 C 1.171875 -17.085938 2.679688 -20.40625 5.703125 -23 C 8.734375 -25.601562 12.472656 -26.90625 16.921875 -26.90625 C 21.304688 -26.90625 25 -25.597656 28 -22.984375 C 31.007812 -20.367188 32.515625 -17.054688 32.515625 -13.046875 C 32.515625 -9.035156 31.046875 -5.726562 28.109375 -3.125 C 25.171875 -0.53125 21.441406 0.765625 16.921875 0.765625 C 12.234375 0.765625 8.4375 -0.523438 5.53125 -3.109375 Z M 12.5 -17.484375 C 11.332031 -16.328125 10.75 -14.847656 10.75 -13.046875 C 10.75 -11.242188 11.3125 -9.773438 12.4375 -8.640625 C 13.5625 -7.503906 15.039062 -6.9375 16.875 -6.9375 C 18.632812 -6.9375 20.082031 -7.507812 21.21875 -8.65625 C 22.363281 -9.8125 22.9375 -11.273438 22.9375 -13.046875 C 22.9375 -14.847656 22.347656 -16.328125 21.171875 -17.484375 C 20.003906 -18.640625 18.570312 -19.21875 16.875 -19.21875 C 15.132812 -19.21875 13.675781 -18.640625 12.5 -17.484375 Z M 12.5 -17.484375 "/></g></g></g><g fill="#ffffff" fill-opacity="1"><g transform="translate(110.324989, 53.183729)"><g><path d="M 4.59375 -26.140625 L 4.59375 -35.875 L 13.609375 -35.875 L 13.609375 -26.140625 L 19.109375 -26.140625 L 19.109375 -19.265625 L 13.609375 -19.265625 L 13.609375 -10.953125 C 13.609375 -8.546875 14.285156 -7.34375 15.640625 -7.34375 C 15.984375 -7.34375 16.34375 -7.410156 16.71875 -7.546875 C 17.09375 -7.679688 17.378906 -7.816406 17.578125 -7.953125 L 17.890625 -8.15625 L 20.125 -0.859375 C 18.195312 0.222656 15.988281 0.765625 13.5 0.765625 C 11.800781 0.765625 10.335938 0.46875 9.109375 -0.125 C 7.890625 -0.71875 6.96875 -1.515625 6.34375 -2.515625 C 5.71875 -3.523438 5.269531 -4.582031 5 -5.6875 C 4.726562 -6.789062 4.59375 -7.96875 4.59375 -9.21875 L 4.59375 -19.265625 L 0.8125 -19.265625 L 0.8125 -26.140625 Z M 4.59375 -26.140625 "/></g></g></g><g fill="#ffffff" fill-opacity="1"><g transform="translate(130.459096, 53.183729)"><g><path d="M 3.921875 -40.71875 C 4.972656 -41.769531 6.226562 -42.296875 7.6875 -42.296875 C 9.15625 -42.296875 10.414062 -41.769531 11.46875 -40.71875 C 12.519531 -39.664062 13.046875 -38.410156 13.046875 -36.953125 C 13.046875 -35.492188 12.519531 -34.234375 11.46875 -33.171875 C 10.414062 -32.117188 9.15625 -31.59375 7.6875 -31.59375 C 6.226562 -31.59375 4.972656 -32.117188 3.921875 -33.171875 C 2.867188 -34.234375 2.34375 -35.492188 2.34375 -36.953125 C 2.34375 -38.410156 2.867188 -39.664062 3.921875 -40.71875 Z M 3.0625 -26.140625 L 3.0625 0 L 12.078125 0 L 12.078125 -26.140625 Z M 3.0625 -26.140625 "/></g></g></g><g fill="#ffffff" fill-opacity="1"><g transform="translate(145.852768, 53.183729)"><g><path d="M 4.84375 -3.234375 C 2.394531 -5.898438 1.171875 -9.171875 1.171875 -13.046875 C 1.171875 -16.921875 2.394531 -20.195312 4.84375 -22.875 C 7.289062 -25.5625 10.398438 -26.90625 14.171875 -26.90625 C 17.640625 -26.90625 20.492188 -25.820312 22.734375 -23.65625 L 22.734375 -43.828125 L 31.75 -43.828125 L 31.75 0 L 22.828125 0 L 22.828125 -2.953125 L 22.734375 -2.953125 C 20.492188 -0.472656 17.640625 0.765625 14.171875 0.765625 C 10.398438 0.765625 7.289062 -0.566406 4.84375 -3.234375 Z M 12.5 -17.484375 C 11.332031 -16.328125 10.75 -14.847656 10.75 -13.046875 C 10.75 -11.242188 11.3125 -9.773438 12.4375 -8.640625 C 13.5625 -7.503906 15.039062 -6.9375 16.875 -6.9375 C 18.632812 -6.9375 20.082031 -7.507812 21.21875 -8.65625 C 22.363281 -9.8125 22.9375 -11.273438 22.9375 -13.046875 C 22.9375 -14.847656 22.347656 -16.328125 21.171875 -17.484375 C 20.003906 -18.640625 18.570312 -19.21875 16.875 -19.21875 C 15.132812 -19.21875 13.675781 -18.640625 12.5 -17.484375 Z M 12.5 -17.484375 "/></g></g></g><g fill="#ffffff" fill-opacity="1"><g transform="translate(180.666937, 53.183729)"><g><path d="M 3.921875 -40.71875 C 4.972656 -41.769531 6.226562 -42.296875 7.6875 -42.296875 C 9.15625 -42.296875 10.414062 -41.769531 11.46875 -40.71875 C 12.519531 -39.664062 13.046875 -38.410156 13.046875 -36.953125 C 13.046875 -35.492188 12.519531 -34.234375 11.46875 -33.171875 C 10.414062 -32.117188 9.15625 -31.59375 7.6875 -31.59375 C 6.226562 -31.59375 4.972656 -32.117188 3.921875 -33.171875 C 2.867188 -34.234375 2.34375 -35.492188 2.34375 -36.953125 C 2.34375 -38.410156 2.867188 -39.664062 3.921875 -40.71875 Z M 3.0625 -26.140625 L 3.0625 0 L 12.078125 0 L 12.078125 -26.140625 Z M 3.0625 -26.140625 "/></g></g></g><g fill="#ffffff" fill-opacity="1"><g transform="translate(196.0606, 53.183729)"><g><path d="M 3.0625 0 L 3.0625 -26.140625 L 12.078125 -26.140625 L 12.078125 -23.390625 L 12.1875 -23.390625 C 14.53125 -25.734375 17.023438 -26.90625 19.671875 -26.90625 C 20.960938 -26.90625 22.242188 -26.734375 23.515625 -26.390625 C 24.796875 -26.054688 26.019531 -25.53125 27.1875 -24.8125 C 28.363281 -24.101562 29.316406 -23.09375 30.046875 -21.78125 C 30.773438 -20.476562 31.140625 -18.960938 31.140625 -17.234375 L 31.140625 0 L 22.125 0 L 22.125 -14.78125 C 22.125 -16.132812 21.6875 -17.320312 20.8125 -18.34375 C 19.945312 -19.363281 18.820312 -19.875 17.4375 -19.875 C 16.070312 -19.875 14.835938 -19.347656 13.734375 -18.296875 C 12.628906 -17.242188 12.078125 -16.070312 12.078125 -14.78125 L 12.078125 0 Z M 3.0625 0 "/></g></g></g><path stroke-linecap="butt" transform="matrix(0.611135, 0, 0, 0.611135, 16.521872, 16.843453)" fill="none" stroke-linejoin="miter" d="M 5.007341 -9.810925 L 30.12072 -9.810925 C 37.126132 -9.810925 42.789266 -8.002046 47.122906 -4.390679 C 51.462938 -0.779313 53.636149 4.474746 53.636149 11.371497 C 53.636149 18.268249 51.43737 23.675711 47.039812 27.600276 C 42.655038 31.52484 37.017471 33.487123 30.12072 33.487123 L 20.686424 33.487123 L 20.686424 59.003185 L 5.007341 59.003185 Z M 20.686424 20.959196 L 25.109549 20.959196 C 28.612255 20.959196 31.488565 20.256098 33.74487 18.843511 C 35.994783 17.418139 37.126132 15.097916 37.126132 11.876449 C 37.126132 8.591065 35.994783 6.245274 33.74487 4.832687 C 31.488565 3.407316 28.612255 2.691434 25.109549 2.691434 L 20.686424 2.691434 Z M 60.558468 59.003185 L 60.558468 16.216481 L 75.323524 16.216481 L 75.323524 22.384567 L 75.483319 22.384567 C 75.591979 22.154463 75.77095 21.879615 76.013838 21.553633 C 76.26951 21.208476 76.812813 20.626823 77.643747 19.80228 C 78.487465 18.958563 79.375925 18.204331 80.309127 17.539584 C 81.261505 16.874836 82.482339 16.274007 83.97802 15.74988 C 85.480093 15.21936 87.020516 14.950905 88.580115 14.950905 C 90.197241 14.950905 91.776015 15.174618 93.32283 15.622044 C 94.882429 16.075862 96.026562 16.523287 96.742443 16.970713 L 97.924926 17.622677 L 91.75684 30.144212 C 89.90961 28.584613 87.35289 27.804813 84.080289 27.804813 C 82.296977 27.804813 80.762945 28.194713 79.478193 28.980904 C 78.199834 29.760704 77.29859 30.700298 76.768071 31.812471 C 76.250335 32.924644 75.87961 33.870631 75.649506 34.644038 C 75.432185 35.417446 75.323524 36.031059 75.323524 36.478485 L 75.323524 59.003185 Z M 106.125604 53.908921 C 101.376497 49.683942 98.998748 44.270088 98.998748 37.660967 C 98.998748 31.032672 101.472374 25.599642 106.413235 21.349096 C 111.36688 17.085766 117.490223 14.950905 124.776874 14.950905 C 131.948473 14.950905 137.988723 17.098549 142.904017 21.387447 C 147.832094 25.66356 150.292937 31.090198 150.292937 37.660967 C 150.292937 44.218953 147.88962 49.620024 143.089379 53.87057 C 138.282746 58.114725 132.178578 60.243194 124.776874 60.243194 C 117.106715 60.243194 110.893886 58.1339 106.125604 53.908921 Z M 117.547749 30.3871 C 115.636601 32.279073 114.677832 34.701564 114.677832 37.660967 C 114.677832 40.607587 115.598251 43.004512 117.426305 44.864525 C 119.273535 46.724539 121.696027 47.657741 124.700173 47.657741 C 127.589266 47.657741 129.967015 46.711755 131.827029 44.826174 C 133.687042 42.92781 134.613853 40.530885 134.613853 37.6354 C 134.613853 34.695173 133.655083 32.279073 131.743935 30.3871 C 129.832787 28.501519 127.480605 27.555533 124.700173 27.555533 C 121.862214 27.555533 119.478073 28.501519 117.547749 30.3871 Z M 159.733624 16.216481 L 159.733624 0.268942 L 174.492288 0.268942 L 174.492288 16.216481 L 183.491942 16.216481 L 183.491942 27.478831 L 174.492288 27.478831 L 174.492288 41.061405 C 174.492288 45.011537 175.59807 46.986602 177.816024 46.986602 C 178.372111 46.986602 178.953764 46.877942 179.567377 46.660621 C 180.187381 46.430516 180.666766 46.206803 180.992748 45.989482 L 181.4977 45.6635 L 185.166593 57.571422 C 181.989869 59.354734 178.372111 60.243194 174.313318 60.243194 C 171.539277 60.243194 169.155136 59.757417 167.141719 58.798647 C 165.147478 57.820702 163.632622 56.510383 162.603542 54.867691 C 161.56807 53.224998 160.833014 51.499213 160.379196 49.696725 C 159.950945 47.887846 159.733624 45.957523 159.733624 43.912147 L 159.733624 27.478831 L 153.559146 27.478831 L 153.559146 16.216481 Z M 191.577568 -7.650497 C 193.303353 -9.376283 195.355121 -10.239176 197.745654 -10.239176 C 200.14897 -10.239176 202.213522 -9.376283 203.939307 -7.650497 C 205.658701 -5.924711 206.521594 -3.86016 206.521594 -1.456844 C 206.521594 0.927297 205.658701 2.985457 203.939307 4.711243 C 202.213522 6.417853 200.14897 7.274354 197.745654 7.274354 C 195.355121 7.274354 193.303353 6.417853 191.577568 4.711243 C 189.851782 2.985457 188.988889 0.927297 188.988889 -1.456844 C 188.988889 -3.86016 189.851782 -5.924711 191.577568 -7.650497 Z M 190.171372 16.216481 L 190.171372 59.003185 L 204.936428 59.003185 L 204.936428 16.216481 Z M 218.269721 53.704383 C 214.268455 49.332393 212.267822 43.976065 212.267822 37.6354 C 212.267822 31.301127 214.268455 25.938408 218.269721 21.553633 C 222.277379 17.149684 227.365251 14.950905 233.546121 14.950905 C 239.202863 14.950905 243.875269 16.734217 247.556945 20.288057 L 247.556945 -12.738369 L 262.315609 -12.738369 L 262.315609 59.003185 L 247.71674 59.003185 L 247.71674 54.151809 L 247.556945 54.151809 C 243.875269 58.210602 239.202863 60.243194 233.546121 60.243194 C 227.365251 60.243194 222.277379 58.06359 218.269721 53.704383 Z M 230.816823 30.3871 C 228.899283 32.279073 227.946905 34.701564 227.946905 37.660967 C 227.946905 40.607587 228.860932 43.004512 230.695379 44.864525 C 232.542609 46.724539 234.965101 47.657741 237.962854 47.657741 C 240.858339 47.657741 243.229697 46.711755 245.089711 44.826174 C 246.949724 42.92781 247.882927 40.530885 247.882927 37.6354 C 247.882927 34.695173 246.924157 32.279073 245.006617 30.3871 C 243.095469 28.501519 240.749679 27.555533 237.962854 27.555533 C 235.124896 27.555533 232.740754 28.501519 230.816823 30.3871 Z M 273.731363 -7.650497 C 275.457148 -9.376283 277.515308 -10.239176 279.899449 -10.239176 C 282.302765 -10.239176 284.367317 -9.376283 286.093102 -7.650497 C 287.818888 -5.924711 288.675389 -3.86016 288.675389 -1.456844 C 288.675389 0.927297 287.818888 2.985457 286.093102 4.711243 C 284.367317 6.417853 282.302765 7.274354 279.899449 7.274354 C 277.515308 7.274354 275.457148 6.417853 273.731363 4.711243 C 272.005577 2.985457 271.142684 0.927297 271.142684 -1.456844 C 271.142684 -3.86016 272.005577 -5.924711 273.731363 -7.650497 Z M 272.325167 16.216481 L 272.325167 59.003185 L 287.090223 59.003185 L 287.090223 16.216481 Z M 297.515247 59.003185 L 297.515247 16.216481 L 312.280304 16.216481 L 312.280304 20.716308 L 312.440099 20.716308 C 316.28157 16.874836 320.372321 14.950905 324.699569 14.950905 C 326.821647 14.950905 328.918157 15.232144 330.995492 15.788231 C 333.08561 16.344317 335.086243 17.20721 336.997391 18.376909 C 338.927714 19.540217 340.487313 21.195693 341.68258 23.343337 C 342.877846 25.490982 343.478675 27.977392 343.478675 30.81535 L 343.478675 59.003185 L 328.713619 59.003185 L 328.713619 34.810225 C 328.713619 32.579487 327.997738 30.642772 326.572367 28.980904 C 325.159779 27.312645 323.318941 26.481711 321.037069 26.481711 C 318.806331 26.481711 316.792914 27.338212 314.984035 29.063998 C 313.181547 30.789783 312.280304 32.700931 312.280304 34.810225 L 312.280304 59.003185 Z M 297.515247 59.003185 " stroke="#ffffff" stroke-width="0.886303" stroke-opacity="1" stroke-miterlimit="4"/><g fill="#ffffff" fill-opacity="1"><g transform="translate(229.755556, 53.183729)"><g/></g></g><g clip-path="url(#a7384737ec)"><path fill="#ffffff" d="M 177.753906 127.6875 L 177.890625 127.710938 L 178.273438 127.773438 C 179.597656 128.1875 180.570312 128.460938 181.191406 128.597656 C 183.640625 128.996094 185.316406 129.3125 186.21875 129.550781 L 191.042969 130.847656 C 191.585938 130.9375 193.609375 131.089844 197.117188 131.308594 C 198.726562 131.414062 199.804688 131.457031 200.347656 131.433594 C 201.441406 131.394531 203.292969 131.011719 205.898438 130.277344 C 206.265625 130.148438 206.761719 129.929688 207.382812 129.625 L 211.792969 127.367188 C 212.234375 127.148438 212.652344 126.996094 213.046875 126.917969 L 215.292969 126.5625 L 217.238281 126.125 C 217.96875 126.019531 218.570312 125.953125 219.042969 125.925781 C 219.292969 125.910156 219.546875 125.914062 219.800781 125.9375 L 220.949219 126.070312 C 221.847656 126.113281 222.53125 126.15625 223.003906 126.207031 C 223.539062 126.257812 223.917969 126.304688 224.144531 126.34375 C 224.417969 126.375 225.328125 126.570312 226.882812 126.9375 C 227.316406 127.039062 227.679688 127.148438 227.964844 127.269531 C 234.359375 130.316406 237.726562 131.902344 238.0625 132.019531 C 238.414062 132.226562 240.109375 132.875 243.148438 133.96875 L 243.359375 134.195312 C 243.238281 134.230469 243.023438 134.25 242.722656 134.257812 C 240.792969 134.226562 239.195312 134.019531 237.925781 133.628906 C 235.972656 133.144531 232.261719 131.992188 226.792969 130.164062 C 225.207031 129.945312 224.152344 129.820312 223.625 129.785156 C 222.933594 129.753906 221.964844 129.761719 220.71875 129.804688 L 219.660156 129.765625 C 219.5 129.753906 218.984375 129.832031 218.113281 130.007812 L 216.265625 130.585938 L 213.902344 131.136719 C 211.355469 132.621094 209.085938 133.652344 207.09375 134.238281 C 205.546875 134.574219 204.140625 134.8125 202.882812 134.957031 C 202.296875 135.03125 201.648438 135.089844 200.933594 135.132812 C 200.679688 135.144531 200.324219 135.125 199.867188 135.078125 C 194.675781 134.347656 191.4375 133.78125 190.148438 133.382812 C 189.644531 133.234375 188.070312 132.554688 185.425781 131.339844 L 180.820312 129.515625 C 180.234375 129.242188 179.359375 128.683594 178.195312 127.84375 C 178.089844 127.769531 177.945312 127.71875 177.753906 127.6875 " fill-opacity="1" fill-rule="nonzero"/></g><g clip-path="url(#391689bdab)"><path fill="#737373" d="M 248.324219 19.203125 C 248.324219 18.976562 248.140625 18.796875 247.917969 18.796875 L 247.148438 18.796875 L 247.148438 10.554688 C 247.148438 10.332031 246.96875 10.148438 246.746094 10.148438 L 239.964844 10.148438 C 239.742188 10.148438 239.558594 10.332031 239.558594 10.554688 L 239.558594 18.796875 L 238.792969 18.796875 C 238.570312 18.796875 238.386719 18.976562 238.386719 19.203125 L 238.386719 21.367188 C 236.492188 21.570312 235.015625 23.179688 235.015625 25.125 L 235.015625 64.578125 C 235.015625 66.523438 236.492188 68.128906 238.386719 68.332031 L 238.386719 116.699219 C 238.386719 116.71875 238.394531 116.734375 238.398438 116.75 C 238.398438 116.765625 238.394531 116.777344 238.398438 116.789062 L 241.566406 130.765625 L 242.085938 133.058594 C 242.222656 133.664062 242.734375 134.070312 243.355469 134.070312 C 243.976562 134.070312 244.484375 133.664062 244.621094 133.058594 L 245.144531 130.765625 L 248.3125 116.789062 C 248.316406 116.777344 248.3125 116.765625 248.3125 116.75 C 248.316406 116.734375 248.324219 116.71875 248.324219 116.699219 Z M 248.324219 19.203125 " fill-opacity="1" fill-rule="nonzero"/></g><path fill="#ffffff" d="M 242.570312 25.125 L 242.570312 64.578125 C 242.570312 66.523438 241.089844 68.128906 239.195312 68.332031 L 239.195312 116.296875 L 247.511719 116.296875 L 247.511719 19.605469 L 239.195312 19.605469 L 239.195312 21.367188 C 241.089844 21.570312 242.570312 23.175781 242.570312 25.125 Z M 242.570312 25.125 " fill-opacity="1" fill-rule="nonzero"/><g clip-path="url(#3b1620e496)"><path fill="#7FBF4D" d="M 247.410156 117.105469 L 244.425781 130.269531 L 242.285156 130.269531 L 239.300781 117.105469 Z M 246.339844 10.960938 L 240.371094 10.960938 L 240.371094 18.726562 L 246.339844 18.726562 Z M 246.339844 10.960938 " fill-opacity="1" fill-rule="nonzero"/></g><g clip-path="url(#ed57197b2b)"><path fill="#7FBF4D" d="M 242.875 132.878906 L 242.46875 131.082031 L 244.242188 131.082031 L 243.832031 132.878906 C 243.769531 133.160156 243.542969 133.261719 243.355469 133.261719 C 243.164062 133.261719 242.941406 133.160156 242.875 132.878906 Z M 238.792969 67.546875 C 240.429688 67.546875 241.761719 66.214844 241.761719 64.578125 L 241.761719 25.125 C 241.761719 23.488281 240.429688 22.15625 238.792969 22.15625 C 237.15625 22.15625 235.824219 23.488281 235.824219 25.125 L 235.824219 64.578125 C 235.824219 66.214844 237.15625 67.546875 238.792969 67.546875 Z M 238.792969 67.546875 " fill-opacity="1" fill-rule="nonzero"/></g><g clip-path="url(#94d228c59d)"><path fill="#737373" d="M 248.324219 19.203125 C 248.324219 18.976562 248.140625 18.796875 247.917969 18.796875 L 247.148438 18.796875 L 247.148438 10.554688 C 247.148438 10.332031 246.96875 10.148438 246.746094 10.148438 L 239.964844 10.148438 C 239.742188 10.148438 239.558594 10.332031 239.558594 10.554688 L 239.558594 18.796875 L 238.792969 18.796875 C 238.570312 18.796875 238.386719 18.976562 238.386719 19.203125 L 238.386719 21.367188 C 236.492188 21.570312 235.015625 23.179688 235.015625 25.125 L 235.015625 64.578125 C 235.015625 66.523438 236.492188 68.128906 238.386719 68.332031 L 238.386719 116.699219 C 238.386719 116.71875 238.394531 116.734375 238.398438 116.75 C 238.398438 116.765625 238.394531 116.777344 238.398438 116.789062 L 241.566406 130.765625 L 242.085938 133.058594 C 242.222656 133.664062 242.734375 134.070312 243.355469 134.070312 C 243.976562 134.070312 244.484375 133.664062 244.621094 133.058594 L 245.144531 130.765625 L 248.3125 116.789062 C 248.316406 116.777344 248.3125 116.765625 248.3125 116.75 C 248.316406 116.734375 248.324219 116.71875 248.324219 116.699219 Z M 240.371094 10.960938 L 246.339844 10.960938 L 246.339844 18.726562 L 240.371094 18.726562 Z M 235.824219 64.578125 L 235.824219 25.125 C 235.824219 23.488281 237.15625 22.15625 238.792969 22.15625 C 240.429688 22.15625 241.761719 23.488281 241.761719 25.125 L 241.761719 64.578125 C 241.761719 66.214844 240.429688 67.546875 238.792969 67.546875 C 237.15625 67.546875 235.824219 66.214844 235.824219 64.578125 Z M 243.832031 132.878906 C 243.769531 133.160156 243.542969 133.261719 243.355469 133.261719 C 243.164062 133.261719 242.941406 133.160156 242.875 132.878906 L 242.46875 131.082031 L 244.242188 131.082031 Z M 244.425781 130.269531 L 242.285156 130.269531 L 239.300781 117.105469 L 247.410156 117.105469 Z M 239.195312 116.296875 L 239.195312 68.332031 C 241.089844 68.128906 242.570312 66.523438 242.570312 64.578125 L 242.570312 25.125 C 242.570312 23.175781 241.089844 21.570312 239.195312 21.367188 L 239.195312 19.605469 L 247.511719 19.605469 L 247.511719 116.296875 Z M 239.195312 116.296875 " fill-opacity="1" fill-rule="nonzero"/></g><g fill="#7FBF4D" fill-opacity="1"><g transform="translate(13.191844, 99.793923)"><g><path d="M 41.078125 -23.546875 L 41.078125 -14.421875 C 39.992188 -9.429688 37.613281 -5.648438 33.9375 -3.078125 C 30.269531 -0.515625 26.175781 0.765625 21.65625 0.765625 C 15.988281 0.765625 11.15625 -1.359375 7.15625 -5.609375 C 3.164062 -9.859375 1.171875 -14.988281 1.171875 -21 C 1.171875 -27.113281 3.125 -32.273438 7.03125 -36.484375 C 10.9375 -40.703125 15.8125 -42.8125 21.65625 -42.8125 C 28.488281 -42.8125 33.894531 -40.414062 37.875 -35.625 L 31.59375 -28.75 C 29.351562 -32.351562 26.226562 -34.15625 22.21875 -34.15625 C 19.257812 -34.15625 16.734375 -32.867188 14.640625 -30.296875 C 12.554688 -27.734375 11.515625 -24.632812 11.515625 -21 C 11.515625 -17.425781 12.554688 -14.375 14.640625 -11.84375 C 16.734375 -9.3125 19.257812 -8.046875 22.21875 -8.046875 C 24.664062 -8.046875 26.796875 -8.785156 28.609375 -10.265625 C 30.429688 -11.742188 31.34375 -13.707031 31.34375 -16.15625 L 21.65625 -16.15625 L 21.65625 -23.546875 Z M 41.078125 -23.546875 "/></g></g></g><g fill="#7FBF4D" fill-opacity="1"><g transform="translate(55.447987, 99.793923)"><g><path d="M 29.515625 -11.828125 L 10.546875 -11.828125 C 10.546875 -9.992188 11.140625 -8.632812 12.328125 -7.75 C 13.523438 -6.863281 14.816406 -6.421875 16.203125 -6.421875 C 17.671875 -6.421875 18.828125 -6.613281 19.671875 -7 C 20.523438 -7.394531 21.492188 -8.171875 22.578125 -9.328125 L 29.109375 -6.0625 C 26.390625 -1.507812 21.867188 0.765625 15.546875 0.765625 C 11.609375 0.765625 8.226562 -0.582031 5.40625 -3.28125 C 2.582031 -5.988281 1.171875 -9.242188 1.171875 -13.046875 C 1.171875 -16.847656 2.582031 -20.109375 5.40625 -22.828125 C 8.226562 -25.546875 11.609375 -26.90625 15.546875 -26.90625 C 19.691406 -26.90625 23.0625 -25.707031 25.65625 -23.3125 C 28.257812 -20.914062 29.5625 -17.492188 29.5625 -13.046875 C 29.5625 -12.429688 29.546875 -12.023438 29.515625 -11.828125 Z M 10.8125 -16.8125 L 20.75 -16.8125 C 20.539062 -18.175781 20.003906 -19.222656 19.140625 -19.953125 C 18.273438 -20.679688 17.160156 -21.046875 15.796875 -21.046875 C 14.304688 -21.046875 13.117188 -20.65625 12.234375 -19.875 C 11.347656 -19.09375 10.875 -18.070312 10.8125 -16.8125 Z M 10.8125 -16.8125 "/></g></g></g><g fill="#7FBF4D" fill-opacity="1"><g transform="translate(86.18436, 99.793923)"><g><path d="M 3.0625 0 L 3.0625 -26.140625 L 12.078125 -26.140625 L 12.078125 -22.375 L 12.1875 -22.375 C 12.25 -22.507812 12.351562 -22.675781 12.5 -22.875 C 12.65625 -23.082031 12.988281 -23.441406 13.5 -23.953125 C 14.007812 -24.460938 14.550781 -24.921875 15.125 -25.328125 C 15.707031 -25.734375 16.457031 -26.097656 17.375 -26.421875 C 18.289062 -26.742188 19.226562 -26.90625 20.1875 -26.90625 C 21.164062 -26.90625 22.128906 -26.769531 23.078125 -26.5 C 24.035156 -26.226562 24.734375 -25.957031 25.171875 -25.6875 L 25.890625 -25.28125 L 22.125 -17.640625 C 21 -18.585938 19.4375 -19.0625 17.4375 -19.0625 C 16.34375 -19.0625 15.40625 -18.820312 14.625 -18.34375 C 13.84375 -17.875 13.289062 -17.296875 12.96875 -16.609375 C 12.644531 -15.929688 12.414062 -15.351562 12.28125 -14.875 C 12.144531 -14.40625 12.078125 -14.035156 12.078125 -13.765625 L 12.078125 0 Z M 3.0625 0 "/></g></g></g><g fill="#7FBF4D" fill-opacity="1"><g transform="translate(111.568623, 99.793923)"><g><path d="M 3.0625 0 L 3.0625 -26.140625 L 12.078125 -26.140625 L 12.078125 -23.390625 L 12.1875 -23.390625 C 14.53125 -25.734375 17.023438 -26.90625 19.671875 -26.90625 C 21.578125 -26.90625 23.359375 -26.515625 25.015625 -25.734375 C 26.679688 -24.953125 27.941406 -23.75 28.796875 -22.125 C 31.441406 -25.3125 34.332031 -26.90625 37.46875 -26.90625 C 40.25 -26.90625 42.640625 -26.125 44.640625 -24.5625 C 46.648438 -23 47.65625 -20.554688 47.65625 -17.234375 L 47.65625 0 L 38.640625 0 L 38.640625 -14.78125 C 38.640625 -16.175781 38.253906 -17.335938 37.484375 -18.265625 C 36.722656 -19.203125 35.578125 -19.671875 34.046875 -19.671875 C 32.722656 -19.671875 31.710938 -19.269531 31.015625 -18.46875 C 30.316406 -17.675781 29.9375 -16.71875 29.875 -15.59375 L 29.875 0 L 20.84375 0 L 20.84375 -14.78125 C 20.84375 -16.175781 20.457031 -17.335938 19.6875 -18.265625 C 18.925781 -19.203125 17.785156 -19.671875 16.265625 -19.671875 C 14.867188 -19.671875 13.820312 -19.238281 13.125 -18.375 C 12.425781 -17.507812 12.078125 -16.484375 12.078125 -15.296875 L 12.078125 0 Z M 3.0625 0 "/></g></g></g><g fill="#7FBF4D" fill-opacity="1"><g transform="translate(161.776465, 99.793923)"><g><path d="M 4.84375 -3.234375 C 2.394531 -5.898438 1.171875 -9.171875 1.171875 -13.046875 C 1.171875 -16.921875 2.394531 -20.195312 4.84375 -22.875 C 7.289062 -25.5625 10.398438 -26.90625 14.171875 -26.90625 C 17.640625 -26.90625 20.492188 -25.820312 22.734375 -23.65625 L 22.734375 -26.140625 L 31.75 -26.140625 L 31.75 0 L 22.828125 0 L 22.828125 -2.953125 L 22.734375 -2.953125 C 20.492188 -0.472656 17.640625 0.765625 14.171875 0.765625 C 10.398438 0.765625 7.289062 -0.566406 4.84375 -3.234375 Z M 12.5 -17.484375 C 11.332031 -16.328125 10.75 -14.847656 10.75 -13.046875 C 10.75 -11.242188 11.3125 -9.773438 12.4375 -8.640625 C 13.5625 -7.503906 15.039062 -6.9375 16.875 -6.9375 C 18.632812 -6.9375 20.082031 -7.507812 21.21875 -8.65625 C 22.363281 -9.8125 22.9375 -11.273438 22.9375 -13.046875 C 22.9375 -14.847656 22.347656 -16.328125 21.171875 -17.484375 C 20.003906 -18.640625 18.570312 -19.21875 16.875 -19.21875 C 15.132812 -19.21875 13.675781 -18.640625 12.5 -17.484375 Z M 12.5 -17.484375 "/></g></g></g><g fill="#7FBF4D" fill-opacity="1"><g transform="translate(196.590634, 99.793923)"><g><path d="M 3.0625 0 L 3.0625 -26.140625 L 12.078125 -26.140625 L 12.078125 -23.390625 L 12.1875 -23.390625 C 14.53125 -25.734375 17.023438 -26.90625 19.671875 -26.90625 C 20.960938 -26.90625 22.242188 -26.734375 23.515625 -26.390625 C 24.796875 -26.054688 26.019531 -25.53125 27.1875 -24.8125 C 28.363281 -24.101562 29.316406 -23.09375 30.046875 -21.78125 C 30.773438 -20.476562 31.140625 -18.960938 31.140625 -17.234375 L 31.140625 0 L 22.125 0 L 22.125 -14.78125 C 22.125 -16.132812 21.6875 -17.320312 20.8125 -18.34375 C 19.945312 -19.363281 18.820312 -19.875 17.4375 -19.875 C 16.070312 -19.875 14.835938 -19.347656 13.734375 -18.296875 C 12.628906 -17.242188 12.078125 -16.070312 12.078125 -14.78125 L 12.078125 0 Z M 3.0625 0 "/></g></g></g><path stroke-linecap="butt" transform="matrix(0.611135, 0, 0, 0.611135, 12.413396, 63.453647)" fill="none" stroke-linejoin="miter" d="M 67.223643 20.472079 L 67.223643 35.39693 C 65.440331 43.572041 61.554117 49.752911 55.552217 53.952323 C 49.550318 58.145343 42.851712 60.241853 35.456401 60.241853 C 26.169116 60.241853 18.249677 56.764714 11.710867 49.816829 C 5.178448 42.862551 1.912239 34.470119 1.912239 24.626748 C 1.912239 14.623582 5.108138 6.167232 11.506329 -0.729519 C 17.898128 -7.626271 25.881485 -11.07145 35.456401 -11.07145 C 46.629266 -11.07145 55.462732 -7.146886 61.969584 0.695852 L 51.72353 11.958202 C 48.041853 6.064963 42.928414 3.124736 36.370428 3.124736 C 31.538228 3.124736 27.409125 5.221246 23.989513 9.414266 C 20.5699 13.607286 18.856898 18.682375 18.856898 24.626748 C 18.856898 30.475244 20.5699 35.473631 23.989513 39.615517 C 27.409125 43.757403 31.538228 45.821954 36.370428 45.821954 C 40.371694 45.821954 43.861617 44.613904 46.833803 42.197804 C 49.812382 39.76892 51.295279 36.560237 51.295279 32.565363 L 35.456401 32.565363 L 35.456401 20.472079 Z M 117.444009 39.653868 L 86.411824 39.653868 C 86.411824 42.651622 87.383377 44.88236 89.326484 46.333298 C 91.275983 47.771453 93.39806 48.493726 95.679933 48.493726 C 98.064074 48.493726 99.956046 48.174136 101.336675 47.534956 C 102.723695 46.895776 104.308862 45.6302 106.104957 43.725444 L 116.77287 49.081772 C 112.324178 56.521826 104.922474 60.241853 94.580543 60.241853 C 88.131218 60.241853 82.59592 58.036682 77.981041 53.626341 C 73.366162 49.196824 71.058722 43.878847 71.058722 37.659627 C 71.058722 31.427622 73.366162 26.084078 77.981041 21.635386 C 82.59592 17.180302 88.131218 14.955956 94.580543 14.955956 C 101.368634 14.955956 106.884757 16.911846 111.135303 20.836411 C 115.398633 24.760976 117.527102 30.360192 117.527102 37.640451 C 117.527102 38.643964 117.501535 39.315103 117.444009 39.653868 Z M 86.820899 31.465973 L 103.088028 31.465973 C 102.749263 29.241627 101.873586 27.528625 100.460998 26.333358 C 99.048411 25.144484 97.23314 24.543655 95.008794 24.543655 C 92.560735 24.543655 90.611236 25.189226 89.160297 26.48037 C 87.722143 27.752338 86.942343 29.420597 86.820899 31.465973 Z M 124.449421 59.001844 L 124.449421 16.21514 L 139.208085 16.21514 L 139.208085 22.383227 L 139.374272 22.383227 C 139.482933 22.153122 139.661903 21.878274 139.904791 21.552293 C 140.160463 21.213527 140.703766 20.625482 141.5347 19.80094 C 142.372026 18.957222 143.260486 18.20299 144.20008 17.538243 C 145.152458 16.873496 146.373292 16.279058 147.862581 15.748539 C 149.371046 15.21802 150.905078 14.955956 152.464677 14.955956 C 154.081802 14.955956 155.666968 15.179669 157.213784 15.627095 C 158.773383 16.074521 159.911123 16.521947 160.633396 16.969373 L 161.815879 17.621336 L 155.641401 30.142871 C 153.800563 28.583272 151.237451 27.803472 147.96485 27.803472 C 146.18793 27.803472 144.653898 28.193372 143.362755 28.985955 C 142.090787 29.759363 141.183151 30.698957 140.659024 31.817522 C 140.141288 32.929695 139.770564 33.86929 139.534067 34.642697 C 139.316746 35.416105 139.208085 36.029718 139.208085 36.477144 L 139.208085 59.001844 Z M 165.983332 59.001844 L 165.983332 16.21514 L 180.748388 16.21514 L 180.748388 20.714967 L 180.908183 20.714967 C 184.749654 16.873496 188.840406 14.955956 193.167654 14.955956 C 196.28046 14.955956 199.195121 15.595136 201.924419 16.886279 C 204.653717 18.164639 206.711876 20.133313 208.098897 22.792302 C 212.438929 17.56381 217.16886 14.955956 222.288691 14.955956 C 226.839652 14.955956 230.751433 16.234316 234.036818 18.803819 C 237.322203 21.354147 238.964895 25.361805 238.964895 30.81401 L 238.964895 59.001844 L 224.206231 59.001844 L 224.206231 34.808884 C 224.206231 32.527012 223.573443 30.628648 222.307866 29.107399 C 221.061466 27.573367 219.188668 26.806352 216.689475 26.806352 C 214.516263 26.806352 212.860787 27.458315 211.723047 28.762242 C 210.578915 30.066169 209.952519 31.638552 209.843858 33.485782 L 209.843858 59.001844 L 195.085194 59.001844 L 195.085194 34.808884 C 195.085194 32.527012 194.458797 30.628648 193.212397 29.107399 C 191.959604 27.573367 190.086807 26.806352 187.587613 26.806352 C 185.305741 26.806352 183.599131 27.515841 182.454999 28.941213 C 181.317258 30.3538 180.748388 32.028452 180.748388 33.971558 L 180.748388 59.001844 Z M 251.051787 53.703043 C 247.044129 49.331052 245.043496 43.981116 245.043496 37.640451 C 245.043496 31.299786 247.044129 25.937067 251.051787 21.552293 C 255.053054 17.154735 260.147318 14.955956 266.321796 14.955956 C 271.98493 14.955956 276.657335 16.732876 280.33262 20.286716 L 280.33262 16.21514 L 295.097676 16.21514 L 295.097676 59.001844 L 280.498806 59.001844 L 280.498806 54.150469 L 280.33262 54.150469 C 276.657335 58.215653 271.98493 60.241853 266.321796 60.241853 C 260.147318 60.241853 255.053054 58.06225 251.051787 53.703043 Z M 263.592497 30.385759 C 261.68135 32.277732 260.72258 34.700224 260.72258 37.659627 C 260.72258 40.606246 261.636607 43.009563 263.471053 44.869576 C 265.318283 46.72959 267.740775 47.656401 270.744921 47.656401 C 273.634014 47.656401 276.011763 46.716806 277.871777 44.824834 C 279.73179 42.926469 280.658601 40.529544 280.658601 37.640451 C 280.658601 34.693832 279.699831 32.277732 277.788683 30.385759 C 275.871144 28.500178 273.525353 27.560584 270.744921 27.560584 C 267.906962 27.560584 265.522821 28.500178 263.592497 30.385759 Z M 305.107233 59.001844 L 305.107233 16.21514 L 319.865898 16.21514 L 319.865898 20.714967 L 320.032084 20.714967 C 323.873556 16.873496 327.957915 14.955956 332.291555 14.955956 C 334.407241 14.955956 336.503751 15.230803 338.581086 15.78689 C 340.671204 16.342976 342.678229 17.205869 344.589377 18.375568 C 346.5197 19.538876 348.079299 21.200744 349.274566 23.341996 C 350.469832 25.489641 351.064269 27.976051 351.064269 30.81401 L 351.064269 59.001844 L 336.299213 59.001844 L 336.299213 34.808884 C 336.299213 32.584538 335.589724 30.641431 334.164352 28.985955 C 332.751765 27.311304 330.904535 26.48037 328.622662 26.48037 C 326.398316 26.48037 324.3849 27.343263 322.57602 29.062657 C 320.773533 30.788442 319.865898 32.705982 319.865898 34.808884 L 319.865898 59.001844 Z M 305.107233 59.001844 " stroke="#7FBF4D" stroke-width="0.886303" stroke-opacity="1" stroke-miterlimit="4"/><g clip-path="url(#d76aa2f593)"><g clip-path="url(#7f2b170a31)"><g clip-path="url(#91d991c43b)"><path fill="#7FBF4D" d="M 21.949219 111.828125 C 22.183594 111.738281 22.425781 111.695312 22.675781 111.703125 C 22.925781 111.710938 23.164062 111.761719 23.390625 111.863281 C 23.617188 111.964844 23.816406 112.105469 23.988281 112.285156 C 24.160156 112.464844 24.289062 112.667969 24.375 112.898438 C 24.464844 113.132812 24.503906 113.371094 24.496094 113.617188 C 24.488281 113.867188 24.429688 114.101562 24.328125 114.328125 C 24.226562 114.554688 24.082031 114.753906 23.902344 114.925781 C 23.71875 115.09375 23.511719 115.226562 23.277344 115.3125 C 23.042969 115.402344 22.800781 115.445312 22.550781 115.4375 C 22.300781 115.433594 22.0625 115.378906 21.835938 115.277344 C 21.609375 115.175781 21.410156 115.039062 21.238281 114.859375 C 21.066406 114.679688 20.9375 114.472656 20.851562 114.242188 C 20.761719 114.011719 20.722656 113.769531 20.730469 113.523438 C 20.738281 113.277344 20.792969 113.039062 20.898438 112.8125 C 21 112.585938 21.144531 112.386719 21.324219 112.21875 C 21.507812 112.046875 21.714844 111.917969 21.949219 111.828125 Z M 21.949219 111.828125 " fill-opacity="1" fill-rule="nonzero"/></g></g></g><g clip-path="url(#a3cb4a1724)"><g clip-path="url(#b539cb70c7)"><g clip-path="url(#0716a61ffd)"><path fill="#7FBF4D" d="M 21.832031 106.21875 L 22.773438 108.6875 C 19.445312 109.953125 17.765625 113.644531 19.015625 116.933594 L 16.519531 117.886719 C 14.75 113.230469 17.128906 108.007812 21.832031 106.21875 Z M 21.832031 106.21875 " fill-opacity="1" fill-rule="nonzero"/></g></g></g><g clip-path="url(#72b787c3d6)"><g clip-path="url(#d106b1b75e)"><g clip-path="url(#00a776f2df)"><path fill="#7FBF4D" d="M 21.167969 104.472656 C 15.492188 106.632812 12.621094 112.9375 14.757812 118.554688 L 12.1875 119.535156 C 9.515625 112.511719 13.101562 104.632812 20.199219 101.929688 Z M 21.167969 104.472656 " fill-opacity="1" fill-rule="nonzero"/></g></g></g><g fill="#ffffff" fill-opacity="1"><g transform="translate(19.961246, 124.319363)"><g><path d="M 13.015625 -6.828125 C 13.015625 -5.421875 12.765625 -4.1875 12.265625 -3.125 C 11.773438 -2.0625 11.066406 -1.238281 10.140625 -0.65625 C 9.210938 -0.0820312 8.148438 0.203125 6.953125 0.203125 C 5.765625 0.203125 4.707031 -0.0820312 3.78125 -0.65625 C 2.851562 -1.226562 2.132812 -2.039062 1.625 -3.09375 C 1.113281 -4.15625 0.851562 -5.375 0.84375 -6.75 L 0.84375 -7.453125 C 0.84375 -8.859375 1.09375 -10.097656 1.59375 -11.171875 C 2.101562 -12.242188 2.820312 -13.066406 3.75 -13.640625 C 4.675781 -14.210938 5.734375 -14.5 6.921875 -14.5 C 8.117188 -14.5 9.179688 -14.210938 10.109375 -13.640625 C 11.035156 -13.066406 11.75 -12.242188 12.25 -11.171875 C 12.757812 -10.097656 13.015625 -8.863281 13.015625 -7.46875 Z M 10.03125 -7.46875 C 10.03125 -8.96875 9.757812 -10.109375 9.21875 -10.890625 C 8.6875 -11.671875 7.925781 -12.0625 6.9375 -12.0625 C 5.945312 -12.0625 5.179688 -11.675781 4.640625 -10.90625 C 4.109375 -10.132812 3.835938 -9.003906 3.828125 -7.515625 L 3.828125 -6.828125 C 3.828125 -5.367188 4.09375 -4.234375 4.625 -3.421875 C 5.164062 -2.617188 5.941406 -2.21875 6.953125 -2.21875 C 7.941406 -2.21875 8.703125 -2.601562 9.234375 -3.375 C 9.765625 -4.15625 10.03125 -5.289062 10.03125 -6.78125 Z M 10.03125 -7.46875 "/></g></g></g><g fill="#ffffff" fill-opacity="1"><g transform="translate(34.768141, 124.319363)"><g><path d="M 3.703125 -10.625 L 3.796875 -9.390625 C 4.546875 -10.347656 5.5625 -10.828125 6.84375 -10.828125 C 7.96875 -10.828125 8.804688 -10.492188 9.359375 -9.828125 C 9.910156 -9.171875 10.191406 -8.179688 10.203125 -6.859375 L 10.203125 0 L 7.359375 0 L 7.359375 -6.796875 C 7.359375 -7.398438 7.226562 -7.835938 6.96875 -8.109375 C 6.707031 -8.378906 6.273438 -8.515625 5.671875 -8.515625 C 4.867188 -8.515625 4.269531 -8.171875 3.875 -7.484375 L 3.875 0 L 1.03125 0 L 1.03125 -10.625 Z M 3.703125 -10.625 "/></g></g></g><g fill="#ffffff" fill-opacity="1"><g transform="translate(46.953809, 124.319363)"><g><path d="M 4.078125 0 L 1.234375 0 L 1.234375 -15.078125 L 4.078125 -15.078125 Z M 4.078125 0 "/></g></g></g><g fill="#ffffff" fill-opacity="1"><g transform="translate(53.209808, 124.319363)"><g><path d="M 4.078125 0 L 1.234375 0 L 1.234375 -10.625 L 4.078125 -10.625 Z M 1.0625 -13.375 C 1.0625 -13.800781 1.203125 -14.148438 1.484375 -14.421875 C 1.773438 -14.703125 2.164062 -14.84375 2.65625 -14.84375 C 3.144531 -14.84375 3.53125 -14.703125 3.8125 -14.421875 C 4.101562 -14.148438 4.25 -13.800781 4.25 -13.375 C 4.25 -12.9375 4.101562 -12.582031 3.8125 -12.3125 C 3.519531 -12.039062 3.132812 -11.90625 2.65625 -11.90625 C 2.175781 -11.90625 1.789062 -12.039062 1.5 -12.3125 C 1.207031 -12.582031 1.0625 -12.9375 1.0625 -13.375 Z M 1.0625 -13.375 "/></g></g></g><g fill="#ffffff" fill-opacity="1"><g transform="translate(59.465808, 124.319363)"><g><path d="M 3.703125 -10.625 L 3.796875 -9.390625 C 4.546875 -10.347656 5.5625 -10.828125 6.84375 -10.828125 C 7.96875 -10.828125 8.804688 -10.492188 9.359375 -9.828125 C 9.910156 -9.171875 10.191406 -8.179688 10.203125 -6.859375 L 10.203125 0 L 7.359375 0 L 7.359375 -6.796875 C 7.359375 -7.398438 7.226562 -7.835938 6.96875 -8.109375 C 6.707031 -8.378906 6.273438 -8.515625 5.671875 -8.515625 C 4.867188 -8.515625 4.269531 -8.171875 3.875 -7.484375 L 3.875 0 L 1.03125 0 L 1.03125 -10.625 Z M 3.703125 -10.625 "/></g></g></g><g fill="#ffffff" fill-opacity="1"><g transform="translate(71.651476, 124.319363)"><g><path d="M 5.984375 0.203125 C 4.421875 0.203125 3.148438 -0.273438 2.171875 -1.234375 C 1.191406 -2.191406 0.703125 -3.46875 0.703125 -5.0625 L 0.703125 -5.328125 C 0.703125 -6.398438 0.90625 -7.351562 1.3125 -8.1875 C 1.726562 -9.03125 2.316406 -9.679688 3.078125 -10.140625 C 3.835938 -10.597656 4.703125 -10.828125 5.671875 -10.828125 C 7.117188 -10.828125 8.257812 -10.367188 9.09375 -9.453125 C 9.925781 -8.535156 10.34375 -7.234375 10.34375 -5.546875 L 10.34375 -4.390625 L 3.578125 -4.390625 C 3.671875 -3.691406 3.945312 -3.132812 4.40625 -2.71875 C 4.875 -2.300781 5.460938 -2.09375 6.171875 -2.09375 C 7.265625 -2.09375 8.117188 -2.488281 8.734375 -3.28125 L 10.125 -1.71875 C 9.695312 -1.113281 9.117188 -0.640625 8.390625 -0.296875 C 7.671875 0.0351562 6.867188 0.203125 5.984375 0.203125 Z M 5.65625 -8.515625 C 5.09375 -8.515625 4.632812 -8.328125 4.28125 -7.953125 C 3.9375 -7.578125 3.710938 -7.035156 3.609375 -6.328125 L 7.5625 -6.328125 L 7.5625 -6.546875 C 7.550781 -7.171875 7.378906 -7.65625 7.046875 -8 C 6.722656 -8.34375 6.257812 -8.515625 5.65625 -8.515625 Z M 5.65625 -8.515625 "/></g></g></g><path stroke-linecap="butt" transform="matrix(0.707798, 0, 0, 0.707798, 17.458157, 104.146851)" fill="none" stroke-linejoin="miter" d="M 20.754898 19.356935 C 20.754898 21.349249 20.40169 23.093214 19.700793 24.588829 C 18.994377 26.084444 17.989941 27.243408 16.681968 28.054682 C 15.373995 28.871476 13.872861 29.279872 12.178566 29.279872 C 10.506347 29.279872 9.010732 28.876995 7.702758 28.071239 C 6.389266 27.265483 5.368274 26.117557 4.650821 24.621942 C 3.927848 23.131846 3.563602 21.409957 3.552565 19.467313 L 3.552565 18.468397 C 3.552565 16.481602 3.911291 14.732118 4.628745 13.219946 C 5.346199 11.707775 6.356153 10.548811 7.664126 9.737536 C 8.9721 8.931781 10.467715 8.523384 12.150972 8.523384 C 13.834229 8.523384 15.329844 8.931781 16.643336 9.737536 C 17.951309 10.548811 18.961263 11.707775 19.678717 13.219946 C 20.396171 14.732118 20.754898 16.476083 20.754898 18.457359 Z M 16.538477 18.440802 C 16.538477 16.327073 16.157675 14.715562 15.401589 13.617305 C 14.639984 12.51353 13.558285 11.967162 12.150972 11.967162 C 10.754696 11.967162 9.678516 12.508012 8.92243 13.59523 C 8.160825 14.682448 7.780023 16.277403 7.768985 18.374576 L 7.768985 19.356935 C 7.768985 21.420995 8.149787 23.021468 8.905873 24.158357 C 9.667478 25.295245 10.754696 25.863689 12.178566 25.863689 C 13.574841 25.863689 14.651022 25.31732 15.401589 24.219064 C 16.146637 23.126327 16.527439 21.525853 16.538477 19.428681 Z M 28.508917 13.992589 L 28.635851 15.725516 C 29.706513 14.384429 31.146939 13.711126 32.946092 13.711126 C 34.541047 13.711126 35.722087 14.180231 36.500248 15.112921 C 37.278409 16.04561 37.675768 17.441886 37.692325 19.301747 L 37.692325 28.99841 L 33.685622 28.99841 L 33.685622 19.401086 C 33.685622 18.55118 33.49798 17.933066 33.128215 17.546744 C 32.758451 17.165942 32.145856 16.972781 31.284911 16.972781 C 30.153542 16.972781 29.309154 17.452924 28.746229 18.413208 L 28.746229 28.99841 L 24.734007 28.99841 L 24.734007 13.992589 Z M 46.268657 28.99841 L 42.245397 28.99841 L 42.245397 7.690034 L 46.268657 7.690034 Z M 55.104375 28.99841 L 51.081115 28.99841 L 51.081115 13.992589 L 55.104375 13.992589 Z M 50.843804 10.107301 C 50.843804 9.505744 51.048002 9.009045 51.45088 8.622724 C 51.853758 8.230883 52.400127 8.037723 53.095505 8.037723 C 53.779845 8.037723 54.320695 8.230883 54.729092 8.622724 C 55.137489 9.009045 55.341687 9.505744 55.341687 10.107301 C 55.341687 10.714377 55.137489 11.216595 54.723573 11.602916 C 54.309657 11.994756 53.768808 12.187917 53.095505 12.187917 C 52.416683 12.187917 51.875833 11.994756 51.461918 11.602916 C 51.053521 11.216595 50.843804 10.714377 50.843804 10.107301 Z M 63.404763 13.992589 L 63.526178 15.725516 C 64.602359 14.384429 66.037267 13.711126 67.841939 13.711126 C 69.431375 13.711126 70.617933 14.180231 71.390575 15.112921 C 72.168737 16.04561 72.566096 17.441886 72.588171 19.301747 L 72.588171 28.99841 L 68.575949 28.99841 L 68.575949 19.401086 C 68.575949 18.55118 68.393826 17.933066 68.024062 17.546744 C 67.654297 17.165942 67.036183 16.972781 66.175238 16.972781 C 65.049388 16.972781 64.205 17.452924 63.636556 18.413208 L 63.636556 28.99841 L 59.629853 28.99841 L 59.629853 13.992589 Z M 83.835638 29.279872 C 81.633607 29.279872 79.845492 28.601051 78.460254 27.254445 C 77.080535 25.902321 76.385157 24.103168 76.385157 21.856986 L 76.385157 21.465146 C 76.385157 19.958493 76.677657 18.611887 77.262658 17.425329 C 77.84214 16.233252 78.669971 15.317119 79.740633 14.676929 C 80.805776 14.03674 82.025447 13.711126 83.394128 13.711126 C 85.44715 13.711126 87.06418 14.362354 88.2397 15.65377 C 89.42074 16.950706 90.011259 18.782972 90.011259 21.161607 L 90.011259 22.800713 L 80.452568 22.800713 C 80.579502 23.777554 80.971342 24.566753 81.622569 25.157273 C 82.273797 25.747793 83.101628 26.045812 84.100544 26.045812 C 85.645829 26.045812 86.854463 25.488405 87.720926 24.368074 L 89.691164 26.570105 C 89.089607 27.425531 88.278333 28.087796 87.251822 28.562419 C 86.225311 29.037042 85.082904 29.279872 83.835638 29.279872 Z M 83.377572 16.961744 C 82.582854 16.961744 81.937145 17.22665 81.445965 17.761981 C 80.949267 18.297311 80.634691 19.069954 80.4912 20.06887 L 86.070783 20.06887 L 86.070783 19.748775 C 86.054226 18.860237 85.811395 18.170377 85.34781 17.684716 C 84.884224 17.199055 84.227478 16.961744 83.377572 16.961744 Z M 83.377572 16.961744 " stroke="#ffffff" stroke-width="0.56832" stroke-opacity="1" stroke-miterlimit="4"/><g fill="#ffffff" fill-opacity="1"><g transform="translate(83.45296, 124.319363)"><g/></g></g><g fill="#ffffff" fill-opacity="1"><g transform="translate(89.384988, 124.319363)"><g/></g></g><g fill="#ffffff" fill-opacity="1"><g transform="translate(95.31964, 124.319363)"><g><path d="M 9.34375 -2.953125 L 4.1875 -2.953125 L 3.203125 0 L 0.0625 0 L 5.390625 -14.296875 L 8.125 -14.296875 L 13.46875 0 L 10.34375 0 Z M 4.984375 -5.328125 L 8.546875 -5.328125 L 6.75 -10.6875 Z M 4.984375 -5.328125 "/></g></g></g><g fill="#ffffff" fill-opacity="1"><g transform="translate(109.773111, 124.319363)"><g><path d="M 5.515625 -2.09375 C 6.035156 -2.09375 6.457031 -2.234375 6.78125 -2.515625 C 7.113281 -2.804688 7.285156 -3.191406 7.296875 -3.671875 L 9.953125 -3.671875 C 9.953125 -2.953125 9.753906 -2.289062 9.359375 -1.6875 C 8.972656 -1.09375 8.445312 -0.628906 7.78125 -0.296875 C 7.113281 0.0351562 6.375 0.203125 5.5625 0.203125 C 4.039062 0.203125 2.835938 -0.28125 1.953125 -1.25 C 1.078125 -2.21875 0.640625 -3.550781 0.640625 -5.25 L 0.640625 -5.4375 C 0.640625 -7.070312 1.078125 -8.378906 1.953125 -9.359375 C 2.828125 -10.335938 4.019531 -10.828125 5.53125 -10.828125 C 6.863281 -10.828125 7.929688 -10.445312 8.734375 -9.6875 C 9.535156 -8.925781 9.941406 -7.921875 9.953125 -6.671875 L 7.296875 -6.671875 C 7.285156 -7.210938 7.113281 -7.65625 6.78125 -8 C 6.457031 -8.34375 6.023438 -8.515625 5.484375 -8.515625 C 4.828125 -8.515625 4.328125 -8.273438 3.984375 -7.796875 C 3.648438 -7.316406 3.484375 -6.535156 3.484375 -5.453125 L 3.484375 -5.171875 C 3.484375 -4.078125 3.648438 -3.289062 3.984375 -2.8125 C 4.316406 -2.332031 4.828125 -2.09375 5.515625 -2.09375 Z M 5.515625 -2.09375 "/></g></g></g><g fill="#ffffff" fill-opacity="1"><g transform="translate(121.18321, 124.319363)"><g><path d="M 7.25 0 C 7.113281 -0.257812 7.019531 -0.578125 6.96875 -0.953125 C 6.28125 -0.179688 5.382812 0.203125 4.28125 0.203125 C 3.238281 0.203125 2.375 -0.0976562 1.6875 -0.703125 C 1.007812 -1.304688 0.671875 -2.066406 0.671875 -2.984375 C 0.671875 -4.109375 1.085938 -4.972656 1.921875 -5.578125 C 2.753906 -6.179688 3.957031 -6.484375 5.53125 -6.484375 L 6.84375 -6.484375 L 6.84375 -7.09375 C 6.84375 -7.582031 6.71875 -7.972656 6.46875 -8.265625 C 6.21875 -8.566406 5.816406 -8.71875 5.265625 -8.71875 C 4.796875 -8.71875 4.421875 -8.601562 4.140625 -8.375 C 3.867188 -8.144531 3.734375 -7.832031 3.734375 -7.4375 L 0.90625 -7.4375 C 0.90625 -8.050781 1.09375 -8.617188 1.46875 -9.140625 C 1.851562 -9.660156 2.390625 -10.070312 3.078125 -10.375 C 3.773438 -10.675781 4.554688 -10.828125 5.421875 -10.828125 C 6.734375 -10.828125 7.769531 -10.492188 8.53125 -9.828125 C 9.300781 -9.171875 9.6875 -8.25 9.6875 -7.0625 L 9.6875 -2.453125 C 9.695312 -1.441406 9.835938 -0.679688 10.109375 -0.171875 L 10.109375 0 Z M 4.90625 -1.96875 C 5.320312 -1.96875 5.707031 -2.0625 6.0625 -2.25 C 6.414062 -2.4375 6.675781 -2.6875 6.84375 -3 L 6.84375 -4.828125 L 5.78125 -4.828125 C 4.363281 -4.828125 3.609375 -4.335938 3.515625 -3.359375 L 3.5 -3.1875 C 3.5 -2.832031 3.625 -2.539062 3.875 -2.3125 C 4.125 -2.082031 4.46875 -1.96875 4.90625 -1.96875 Z M 4.90625 -1.96875 "/></g></g></g><g fill="#ffffff" fill-opacity="1"><g transform="translate(132.887828, 124.319363)"><g><path d="M 0.640625 -5.390625 C 0.640625 -7.046875 1.007812 -8.363281 1.75 -9.34375 C 2.5 -10.332031 3.519531 -10.828125 4.8125 -10.828125 C 5.84375 -10.828125 6.695312 -10.4375 7.375 -9.65625 L 7.375 -15.078125 L 10.21875 -15.078125 L 10.21875 0 L 7.65625 0 L 7.515625 -1.125 C 6.804688 -0.238281 5.898438 0.203125 4.796875 0.203125 C 3.546875 0.203125 2.539062 -0.289062 1.78125 -1.28125 C 1.019531 -2.269531 0.640625 -3.640625 0.640625 -5.390625 Z M 3.484375 -5.1875 C 3.484375 -4.1875 3.65625 -3.421875 4 -2.890625 C 4.351562 -2.359375 4.859375 -2.09375 5.515625 -2.09375 C 6.390625 -2.09375 7.007812 -2.460938 7.375 -3.203125 L 7.375 -7.40625 C 7.019531 -8.144531 6.40625 -8.515625 5.53125 -8.515625 C 4.164062 -8.515625 3.484375 -7.40625 3.484375 -5.1875 Z M 3.484375 -5.1875 "/></g></g></g><g fill="#ffffff" fill-opacity="1"><g transform="translate(145.142217, 124.319363)"><g><path d="M 5.984375 0.203125 C 4.421875 0.203125 3.148438 -0.273438 2.171875 -1.234375 C 1.191406 -2.191406 0.703125 -3.46875 0.703125 -5.0625 L 0.703125 -5.328125 C 0.703125 -6.398438 0.90625 -7.351562 1.3125 -8.1875 C 1.726562 -9.03125 2.316406 -9.679688 3.078125 -10.140625 C 3.835938 -10.597656 4.703125 -10.828125 5.671875 -10.828125 C 7.117188 -10.828125 8.257812 -10.367188 9.09375 -9.453125 C 9.925781 -8.535156 10.34375 -7.234375 10.34375 -5.546875 L 10.34375 -4.390625 L 3.578125 -4.390625 C 3.671875 -3.691406 3.945312 -3.132812 4.40625 -2.71875 C 4.875 -2.300781 5.460938 -2.09375 6.171875 -2.09375 C 7.265625 -2.09375 8.117188 -2.488281 8.734375 -3.28125 L 10.125 -1.71875 C 9.695312 -1.113281 9.117188 -0.640625 8.390625 -0.296875 C 7.671875 0.0351562 6.867188 0.203125 5.984375 0.203125 Z M 5.65625 -8.515625 C 5.09375 -8.515625 4.632812 -8.328125 4.28125 -7.953125 C 3.9375 -7.578125 3.710938 -7.035156 3.609375 -6.328125 L 7.5625 -6.328125 L 7.5625 -6.546875 C 7.550781 -7.171875 7.378906 -7.65625 7.046875 -8 C 6.722656 -8.34375 6.257812 -8.515625 5.65625 -8.515625 Z M 5.65625 -8.515625 "/></g></g></g><g fill="#ffffff" fill-opacity="1"><g transform="translate(156.935192, 124.319363)"><g><path d="M 3.75 -10.625 L 3.84375 -9.4375 C 4.59375 -10.363281 5.609375 -10.828125 6.890625 -10.828125 C 8.253906 -10.828125 9.195312 -10.285156 9.71875 -9.203125 C 10.457031 -10.285156 11.519531 -10.828125 12.90625 -10.828125 C 14.050781 -10.828125 14.90625 -10.488281 15.46875 -9.8125 C 16.03125 -9.144531 16.3125 -8.132812 16.3125 -6.78125 L 16.3125 0 L 13.46875 0 L 13.46875 -6.78125 C 13.46875 -7.375 13.347656 -7.8125 13.109375 -8.09375 C 12.878906 -8.375 12.46875 -8.515625 11.875 -8.515625 C 11.019531 -8.515625 10.429688 -8.109375 10.109375 -7.296875 L 10.109375 0 L 7.28125 0 L 7.28125 -6.765625 C 7.28125 -7.378906 7.15625 -7.820312 6.90625 -8.09375 C 6.664062 -8.375 6.253906 -8.515625 5.671875 -8.515625 C 4.867188 -8.515625 4.285156 -8.179688 3.921875 -7.515625 L 3.921875 0 L 1.09375 0 L 1.09375 -10.625 Z M 3.75 -10.625 "/></g></g></g><g fill="#ffffff" fill-opacity="1"><g transform="translate(175.266509, 124.319363)"><g><path d="M 5.0625 -4.015625 L 7.015625 -10.625 L 10.0625 -10.625 L 5.796875 1.65625 L 5.5625 2.203125 C 4.925781 3.597656 3.878906 4.296875 2.421875 4.296875 C 2.003906 4.296875 1.582031 4.234375 1.15625 4.109375 L 1.15625 1.953125 L 1.59375 1.96875 C 2.125 1.96875 2.519531 1.882812 2.78125 1.71875 C 3.050781 1.550781 3.265625 1.28125 3.421875 0.90625 L 3.75 0.03125 L 0.03125 -10.625 L 3.078125 -10.625 Z M 5.0625 -4.015625 "/></g></g></g><path stroke-linecap="butt" transform="matrix(0.707798, 0, 0, 0.707798, 17.458157, 104.146851)" fill="none" stroke-linejoin="miter" d="M 122.031772 24.837178 L 114.735819 24.837178 L 113.350581 28.99841 L 108.924444 28.99841 L 116.441151 8.804846 L 120.298845 8.804846 L 127.859704 28.99841 L 123.433566 28.99841 Z M 115.861669 21.465146 L 120.91144 21.465146 L 118.372758 13.909806 Z M 137.032074 26.045812 C 137.771603 26.045812 138.37316 25.841613 138.836746 25.433217 C 139.294812 25.030339 139.537643 24.489489 139.5542 23.810667 L 143.312553 23.810667 C 143.307034 24.831659 143.025572 25.75883 142.484722 26.608737 C 141.938353 27.453125 141.187787 28.109871 140.244059 28.578975 C 139.294812 29.042561 138.246226 29.279872 137.0983 29.279872 C 134.956977 29.279872 133.262682 28.595532 132.020935 27.23237 C 130.784707 25.869208 130.166593 23.981753 130.166593 21.581042 L 130.166593 21.316136 C 130.166593 19.003727 130.779188 17.160423 132.009897 15.780704 C 133.240607 14.400986 134.929382 13.711126 137.070706 13.711126 C 138.947123 13.711126 140.453776 14.246457 141.585145 15.317119 C 142.722034 16.382262 143.295997 17.806132 143.312553 19.583209 L 139.5542 19.583209 C 139.537643 18.805048 139.294812 18.170377 138.836746 17.684716 C 138.37316 17.199055 137.760565 16.961744 137.004479 16.961744 C 136.066271 16.961744 135.365373 17.298395 134.885231 17.977217 C 134.410608 18.656038 134.173296 19.759813 134.173296 21.288542 L 134.173296 21.702457 C 134.173296 23.247742 134.410608 24.357036 134.879712 25.030339 C 135.354336 25.70916 136.066271 26.045812 137.032074 26.045812 Z M 155.608607 28.99841 C 155.420965 28.639683 155.288512 28.192654 155.205729 27.651804 C 154.234407 28.739023 152.970584 29.279872 151.419781 29.279872 C 149.946241 29.279872 148.72657 28.8494 147.760767 27.999494 C 146.794963 27.149587 146.314821 26.078925 146.314821 24.781989 C 146.314821 23.192553 146.899822 21.972882 148.080861 21.122975 C 149.261901 20.26755 150.961714 19.837077 153.191339 19.831559 L 155.040163 19.831559 L 155.040163 18.970614 C 155.040163 18.275236 154.85804 17.723348 154.504832 17.303914 C 154.146105 16.889998 153.58318 16.680281 152.816056 16.680281 C 152.142753 16.680281 151.612941 16.845847 151.232139 17.165942 C 150.845818 17.491556 150.652657 17.933066 150.652657 18.50151 L 146.645954 18.50151 C 146.645954 17.629528 146.91086 16.823772 147.45171 16.084243 C 147.98704 15.344713 148.743126 14.765231 149.725486 14.345797 C 150.707846 13.920844 151.806102 13.711126 153.025773 13.711126 C 154.874596 13.711126 156.342617 14.180231 157.429835 15.107402 C 158.517054 16.034573 159.063422 17.342546 159.063422 19.025803 L 159.063422 25.532556 C 159.068941 26.956426 159.267621 28.032607 159.659461 28.766617 L 159.659461 28.99841 Z M 152.291763 26.211378 C 152.882282 26.211378 153.428651 26.078925 153.92535 25.814019 C 154.427567 25.554632 154.797332 25.201424 155.040163 24.754395 L 155.040163 22.17708 L 153.539029 22.17708 C 151.530158 22.17708 150.465015 22.86694 150.332562 24.257696 L 150.321525 24.489489 C 150.321525 24.991707 150.498129 25.400103 150.845818 25.725717 C 151.199026 26.051331 151.679168 26.211378 152.291763 26.211378 Z M 162.821776 21.382362 C 162.821776 19.042359 163.346069 17.182499 164.394656 15.791742 C 165.443242 14.406505 166.883668 13.711126 168.704897 13.711126 C 170.16188 13.711126 171.370514 14.257495 172.325279 15.350232 L 172.325279 7.690034 L 176.348539 7.690034 L 176.348539 28.99841 L 172.728157 28.99841 L 172.529477 27.403455 C 171.530561 28.650721 170.244663 29.279872 168.677303 29.279872 C 166.911263 29.279872 165.492912 28.578975 164.42225 27.188219 C 163.357107 25.797462 162.821776 23.860337 162.821776 21.382362 Z M 166.828479 21.674863 C 166.828479 23.082176 167.076829 24.158357 167.568009 24.908924 C 168.05367 25.659491 168.765605 26.029255 169.703813 26.029255 C 170.940041 26.029255 171.817542 25.510481 172.325279 24.461895 L 172.325279 18.540142 C 171.823061 17.497075 170.962117 16.972781 169.731408 16.972781 C 167.794283 16.972781 166.828479 18.540142 166.828479 21.674863 Z M 187.667751 29.279872 C 185.46572 29.279872 183.672086 28.601051 182.292367 27.254445 C 180.907129 25.902321 180.21727 24.103168 180.21727 21.856986 L 180.21727 21.465146 C 180.21727 19.958493 180.50977 18.611887 181.089252 17.425329 C 181.674253 16.233252 182.502084 15.317119 183.567227 14.676929 C 184.637889 14.03674 185.852041 13.711126 187.220722 13.711126 C 189.273744 13.711126 190.890774 14.362354 192.071813 15.65377 C 193.252853 16.950706 193.837853 18.782972 193.837853 21.161607 L 193.837853 22.800713 L 184.284681 22.800713 C 184.411615 23.777554 184.803455 24.566753 185.454682 25.157273 C 186.10591 25.747793 186.933741 26.045812 187.932657 26.045812 C 189.472423 26.045812 190.681057 25.488405 191.553039 24.368074 L 193.523277 26.570105 C 192.92172 27.425531 192.104927 28.087796 191.078416 28.562419 C 190.051905 29.037042 188.915017 29.279872 187.667751 29.279872 Z M 187.209685 16.961744 C 186.414967 16.961744 185.769258 17.22665 185.272559 17.761981 C 184.78138 18.297311 184.461285 19.069954 184.323313 20.06887 L 189.902896 20.06887 L 189.902896 19.748775 C 189.88082 18.860237 189.643508 18.170377 189.179923 17.684716 C 188.716337 17.199055 188.059591 16.961744 187.209685 16.961744 Z M 201.177957 13.992589 L 201.304891 15.670327 C 202.370034 14.362354 203.804942 13.711126 205.620651 13.711126 C 207.552258 13.711126 208.876788 14.47825 209.59976 16.001459 C 210.653865 14.47825 212.154999 13.711126 214.108681 13.711126 C 215.736749 13.711126 216.945383 14.18575 217.74562 15.134996 C 218.540338 16.084243 218.937697 17.508112 218.937697 19.412124 L 218.937697 28.99841 L 214.914437 28.99841 L 214.914437 19.428681 C 214.914437 18.578774 214.74887 17.955141 214.412219 17.563301 C 214.081087 17.171461 213.496086 16.972781 212.651698 16.972781 C 211.448583 16.972781 210.615233 17.546744 210.157167 18.69467 L 210.168204 28.99841 L 206.161501 28.99841 L 206.161501 19.439718 C 206.161501 18.573255 205.990416 17.944103 205.648246 17.557782 C 205.306075 17.165942 204.721075 16.972781 203.898762 16.972781 C 202.761874 16.972781 201.939562 17.441886 201.431825 18.385613 L 201.431825 28.99841 L 197.419603 28.99841 L 197.419603 13.992589 Z M 228.921341 23.325006 L 231.697335 13.992589 L 235.996539 13.992589 L 229.964409 31.332894 L 229.633276 32.122093 C 228.7337 34.081294 227.254641 35.063653 225.190582 35.063653 C 224.6111 35.063653 224.015062 34.975351 223.419023 34.798747 L 223.419023 31.757847 L 224.026099 31.774404 C 224.787704 31.774404 225.350629 31.658508 225.725913 31.426715 C 226.101196 31.194922 226.393697 30.81412 226.608933 30.278789 L 227.078037 29.042561 L 221.818549 13.992589 L 226.134309 13.992589 Z M 228.921341 23.325006 " stroke="#ffffff" stroke-width="0.56832" stroke-opacity="1" stroke-miterlimit="4"/></svg>