<svg xmlns="http://www.w3.org/2000/svg" xmlns:xlink="http://www.w3.org/1999/xlink" width="350" zoomAndPan="magnify" viewBox="0 0 262.5 142.499996" height="190" preserveAspectRatio="xMidYMid meet" version="1.0"><defs><g/><clipPath id="ad327896ab"><path d="M 2.996094 3 L 17.53125 3 L 17.53125 137.753906 L 2.996094 137.753906 Z M 2.996094 3 " clip-rule="nonzero"/></clipPath><clipPath id="b580f04601"><path d="M 2.996094 3 L 17.53125 3 L 17.53125 137.753906 L 2.996094 137.753906 Z M 2.996094 3 " clip-rule="nonzero"/></clipPath><clipPath id="577c32509c"><path d="M 11.695312 123 L 133.921875 123 L 133.921875 142 L 11.695312 142 Z M 11.695312 123 " clip-rule="nonzero"/></clipPath><clipPath id="d04a10c27c"><path d="M 36 108 L 41 108 L 41 112 L 36 112 Z M 36 108 " clip-rule="nonzero"/></clipPath><clipPath id="704aebf626"><path d="M 28.84375 115.554688 L 24.378906 103.824219 L 36.113281 99.359375 L 40.578125 111.089844 Z M 28.84375 115.554688 " clip-rule="nonzero"/></clipPath><clipPath id="b1451a603f"><path d="M 28.84375 115.554688 L 24.378906 103.824219 L 36.113281 99.359375 L 40.578125 111.089844 Z M 28.84375 115.554688 " clip-rule="nonzero"/></clipPath><clipPath id="7cfc5a66a3"><path d="M 32 103 L 39 103 L 39 115 L 32 115 Z M 32 103 " clip-rule="nonzero"/></clipPath><clipPath id="20cae9714e"><path d="M 28.84375 115.554688 L 24.378906 103.824219 L 36.113281 99.359375 L 40.578125 111.089844 Z M 28.84375 115.554688 " clip-rule="nonzero"/></clipPath><clipPath id="dc2012aba7"><path d="M 28.84375 115.554688 L 24.378906 103.824219 L 36.113281 99.359375 L 40.578125 111.089844 Z M 28.84375 115.554688 " clip-rule="nonzero"/></clipPath><clipPath id="ab615b1318"><path d="M 28 99 L 38 99 L 38 116 L 28 116 Z M 28 99 " clip-rule="nonzero"/></clipPath><clipPath id="b8139669d1"><path d="M 28.84375 115.554688 L 24.378906 103.824219 L 36.113281 99.359375 L 40.578125 111.089844 Z M 28.84375 115.554688 " clip-rule="nonzero"/></clipPath><clipPath id="1119e7caee"><path d="M 28.84375 115.554688 L 24.378906 103.824219 L 36.113281 99.359375 L 40.578125 111.089844 Z M 28.84375 115.554688 " clip-rule="nonzero"/></clipPath></defs><g fill="#000000" fill-opacity="1"><g transform="translate(27.381999, 49.323652)"><g><path d="M 3.3125 -45.46875 L 19.890625 -45.46875 C 24.523438 -45.46875 28.273438 -44.269531 31.140625 -41.875 C 34.003906 -39.488281 35.4375 -36.019531 35.4375 -31.46875 C 35.4375 -26.914062 33.984375 -23.34375 31.078125 -20.75 C 28.179688 -18.15625 24.453125 -16.859375 19.890625 -16.859375 L 13.671875 -16.859375 L 13.671875 0 L 3.3125 0 Z M 13.671875 -25.125 L 16.59375 -25.125 C 18.90625 -25.125 20.804688 -25.59375 22.296875 -26.53125 C 23.785156 -27.46875 24.53125 -29.003906 24.53125 -31.140625 C 24.53125 -33.304688 23.785156 -34.859375 22.296875 -35.796875 C 20.804688 -36.734375 18.90625 -37.203125 16.59375 -37.203125 L 13.671875 -37.203125 Z M 13.671875 -25.125 "/></g></g></g><g fill="#000000" fill-opacity="1"><g transform="translate(64.081919, 49.323652)"><g><path d="M 3.3125 0 L 3.3125 -28.265625 L 13.0625 -28.265625 L 13.0625 -24.1875 L 13.171875 -24.1875 C 13.242188 -24.332031 13.363281 -24.515625 13.53125 -24.734375 C 13.695312 -24.960938 14.054688 -25.351562 14.609375 -25.90625 C 15.160156 -26.457031 15.742188 -26.953125 16.359375 -27.390625 C 16.984375 -27.828125 17.789062 -28.21875 18.78125 -28.5625 C 19.78125 -28.914062 20.796875 -29.09375 21.828125 -29.09375 C 22.890625 -29.09375 23.929688 -28.945312 24.953125 -28.65625 C 25.984375 -28.363281 26.738281 -28.070312 27.21875 -27.78125 L 28 -27.328125 L 23.921875 -19.0625 C 22.703125 -20.09375 21.007812 -20.609375 18.84375 -20.609375 C 17.664062 -20.609375 16.65625 -20.347656 15.8125 -19.828125 C 14.96875 -19.316406 14.367188 -18.691406 14.015625 -17.953125 C 13.671875 -17.222656 13.425781 -16.601562 13.28125 -16.09375 C 13.132812 -15.582031 13.0625 -15.175781 13.0625 -14.875 L 13.0625 0 Z M 3.3125 0 "/></g></g></g><g fill="#000000" fill-opacity="1"><g transform="translate(91.524195, 49.323652)"><g><path d="M 5.96875 -3.359375 C 2.832031 -6.148438 1.265625 -9.734375 1.265625 -14.109375 C 1.265625 -18.484375 2.898438 -22.070312 6.171875 -24.875 C 9.441406 -27.6875 13.484375 -29.09375 18.296875 -29.09375 C 23.035156 -29.09375 27.03125 -27.675781 30.28125 -24.84375 C 33.53125 -22.019531 35.15625 -18.441406 35.15625 -14.109375 C 35.15625 -9.773438 33.566406 -6.203125 30.390625 -3.390625 C 27.210938 -0.578125 23.179688 0.828125 18.296875 0.828125 C 13.222656 0.828125 9.113281 -0.566406 5.96875 -3.359375 Z M 13.53125 -18.90625 C 12.257812 -17.65625 11.625 -16.054688 11.625 -14.109375 C 11.625 -12.160156 12.226562 -10.570312 13.4375 -9.34375 C 14.65625 -8.113281 16.253906 -7.5 18.234375 -7.5 C 20.148438 -7.5 21.722656 -8.125 22.953125 -9.375 C 24.179688 -10.625 24.796875 -12.203125 24.796875 -14.109375 C 24.796875 -16.054688 24.160156 -17.65625 22.890625 -18.90625 C 21.628906 -20.15625 20.078125 -20.78125 18.234375 -20.78125 C 16.367188 -20.78125 14.800781 -20.15625 13.53125 -18.90625 Z M 13.53125 -18.90625 "/></g></g></g><g fill="#000000" fill-opacity="1"><g transform="translate(127.948586, 49.323652)"><g><path d="M 4.953125 -28.265625 L 4.953125 -38.796875 L 14.71875 -38.796875 L 14.71875 -28.265625 L 20.671875 -28.265625 L 20.671875 -20.828125 L 14.71875 -20.828125 L 14.71875 -11.84375 C 14.71875 -9.238281 15.453125 -7.9375 16.921875 -7.9375 C 17.285156 -7.9375 17.671875 -8.007812 18.078125 -8.15625 C 18.484375 -8.300781 18.796875 -8.445312 19.015625 -8.59375 L 19.34375 -8.8125 L 21.765625 -0.9375 C 19.671875 0.238281 17.285156 0.828125 14.609375 0.828125 C 12.765625 0.828125 11.179688 0.503906 9.859375 -0.140625 C 8.535156 -0.785156 7.535156 -1.648438 6.859375 -2.734375 C 6.179688 -3.816406 5.691406 -4.953125 5.390625 -6.140625 C 5.097656 -7.335938 4.953125 -8.613281 4.953125 -9.96875 L 4.953125 -20.828125 L 0.875 -20.828125 L 0.875 -28.265625 Z M 4.953125 -28.265625 "/></g></g></g><g fill="#000000" fill-opacity="1"><g transform="translate(149.715052, 49.323652)"><g><path d="M 4.234375 -44.03125 C 5.378906 -45.164062 6.738281 -45.734375 8.3125 -45.734375 C 9.894531 -45.734375 11.253906 -45.164062 12.390625 -44.03125 C 13.535156 -42.894531 14.109375 -41.535156 14.109375 -39.953125 C 14.109375 -38.367188 13.535156 -37.007812 12.390625 -35.875 C 11.253906 -34.738281 9.894531 -34.171875 8.3125 -34.171875 C 6.738281 -34.171875 5.378906 -34.738281 4.234375 -35.875 C 3.097656 -37.007812 2.53125 -38.367188 2.53125 -39.953125 C 2.53125 -41.535156 3.097656 -42.894531 4.234375 -44.03125 Z M 3.3125 -28.265625 L 3.3125 0 L 13.0625 0 L 13.0625 -28.265625 Z M 3.3125 -28.265625 "/></g></g></g><g fill="#000000" fill-opacity="1"><g transform="translate(166.356756, 49.323652)"><g><path d="M 5.234375 -3.5 C 2.585938 -6.382812 1.265625 -9.921875 1.265625 -14.109375 C 1.265625 -18.296875 2.585938 -21.835938 5.234375 -24.734375 C 7.878906 -27.640625 11.242188 -29.09375 15.328125 -29.09375 C 19.066406 -29.09375 22.148438 -27.921875 24.578125 -25.578125 L 24.578125 -47.390625 L 34.328125 -47.390625 L 34.328125 0 L 24.6875 0 L 24.6875 -3.203125 L 24.578125 -3.203125 C 22.148438 -0.515625 19.066406 0.828125 15.328125 0.828125 C 11.242188 0.828125 7.878906 -0.613281 5.234375 -3.5 Z M 13.53125 -18.90625 C 12.257812 -17.65625 11.625 -16.054688 11.625 -14.109375 C 11.625 -12.160156 12.226562 -10.570312 13.4375 -9.34375 C 14.65625 -8.113281 16.253906 -7.5 18.234375 -7.5 C 20.148438 -7.5 21.722656 -8.125 22.953125 -9.375 C 24.179688 -10.625 24.796875 -12.203125 24.796875 -14.109375 C 24.796875 -16.054688 24.160156 -17.65625 22.890625 -18.90625 C 21.628906 -20.15625 20.078125 -20.78125 18.234375 -20.78125 C 16.367188 -20.78125 14.800781 -20.15625 13.53125 -18.90625 Z M 13.53125 -18.90625 "/></g></g></g><g fill="#000000" fill-opacity="1"><g transform="translate(203.993462, 49.323652)"><g><path d="M 4.234375 -44.03125 C 5.378906 -45.164062 6.738281 -45.734375 8.3125 -45.734375 C 9.894531 -45.734375 11.253906 -45.164062 12.390625 -44.03125 C 13.535156 -42.894531 14.109375 -41.535156 14.109375 -39.953125 C 14.109375 -38.367188 13.535156 -37.007812 12.390625 -35.875 C 11.253906 -34.738281 9.894531 -34.171875 8.3125 -34.171875 C 6.738281 -34.171875 5.378906 -34.738281 4.234375 -35.875 C 3.097656 -37.007812 2.53125 -38.367188 2.53125 -39.953125 C 2.53125 -41.535156 3.097656 -42.894531 4.234375 -44.03125 Z M 3.3125 -28.265625 L 3.3125 0 L 13.0625 0 L 13.0625 -28.265625 Z M 3.3125 -28.265625 "/></g></g></g><g fill="#000000" fill-opacity="1"><g transform="translate(220.635157, 49.323652)"><g><path d="M 3.3125 0 L 3.3125 -28.265625 L 13.0625 -28.265625 L 13.0625 -25.296875 L 13.171875 -25.296875 C 15.703125 -27.828125 18.398438 -29.09375 21.265625 -29.09375 C 22.660156 -29.09375 24.046875 -28.910156 25.421875 -28.546875 C 26.804688 -28.179688 28.128906 -27.613281 29.390625 -26.84375 C 30.660156 -26.070312 31.691406 -24.976562 32.484375 -23.5625 C 33.273438 -22.144531 33.671875 -20.5 33.671875 -18.625 L 33.671875 0 L 23.921875 0 L 23.921875 -15.984375 C 23.921875 -17.453125 23.453125 -18.738281 22.515625 -19.84375 C 21.578125 -20.945312 20.351562 -21.5 18.84375 -21.5 C 17.375 -21.5 16.039062 -20.925781 14.84375 -19.78125 C 13.65625 -18.644531 13.0625 -17.378906 13.0625 -15.984375 L 13.0625 0 Z M 3.3125 0 "/></g></g></g><g fill="#000000" fill-opacity="1"><g transform="translate(26.540439, 49.01735)"><g><path d="M 3.304688 -45.757812 L 19.894531 -45.757812 C 24.59375 -45.757812 28.402344 -44.539062 31.324219 -42.105469 C 34.257812 -39.660156 35.726562 -36.113281 35.726562 -31.464844 C 35.726562 -26.824219 34.242188 -23.179688 31.277344 -20.53125 C 28.316406 -17.890625 24.523438 -16.570312 19.894531 -16.570312 L 13.667969 -16.570312 L 13.667969 -16.863281 L 13.960938 -16.863281 L 13.960938 0.292969 L 3.011719 0.292969 L 3.011719 -45.757812 Z M 3.304688 -45.171875 L 3.304688 -45.464844 L 3.597656 -45.464844 L 3.597656 0 L 3.304688 0 L 3.304688 -0.292969 L 13.667969 -0.292969 L 13.667969 0 L 13.375 0 L 13.375 -17.15625 L 19.894531 -17.15625 C 24.375 -17.15625 28.039062 -18.425781 30.886719 -20.964844 C 33.722656 -23.5 35.140625 -27 35.140625 -31.464844 C 35.140625 -35.929688 33.742188 -39.328125 30.949219 -41.65625 C 28.136719 -44 24.453125 -45.171875 19.894531 -45.171875 Z M 13.667969 -25.421875 L 16.585938 -25.421875 C 18.84375 -25.421875 20.695312 -25.875 22.136719 -26.78125 C 23.53125 -27.660156 24.230469 -29.113281 24.230469 -31.136719 C 24.230469 -33.195312 23.53125 -34.664062 22.136719 -35.542969 C 20.695312 -36.453125 18.84375 -36.90625 16.585938 -36.90625 L 13.667969 -36.90625 L 13.667969 -37.199219 L 13.960938 -37.199219 L 13.960938 -25.128906 L 13.667969 -25.128906 Z M 13.375 -24.835938 L 13.375 -37.492188 L 16.585938 -37.492188 C 18.957031 -37.492188 20.910156 -37.007812 22.445312 -36.039062 C 24.027344 -35.046875 24.816406 -33.410156 24.816406 -31.136719 C 24.816406 -28.898438 24.027344 -27.28125 22.445312 -26.285156 C 20.910156 -25.320312 18.957031 -24.835938 16.585938 -24.835938 Z M 13.375 -24.835938 "/></g></g></g><g fill="#000000" fill-opacity="1"><g transform="translate(63.240358, 49.01735)"><g><path d="M 3.011719 0 L 3.011719 -28.5625 L 13.351562 -28.5625 L 13.351562 -24.191406 L 13.058594 -24.191406 L 13.058594 -24.484375 L 13.171875 -24.484375 L 13.171875 -24.191406 L 12.910156 -24.324219 C 12.988281 -24.484375 13.117188 -24.683594 13.292969 -24.917969 C 13.46875 -25.152344 13.835938 -25.546875 14.394531 -26.109375 C 14.960938 -26.671875 15.558594 -27.175781 16.199219 -27.628906 C 16.84375 -28.085938 17.675781 -28.492188 18.695312 -28.847656 C 19.71875 -29.210938 20.761719 -29.390625 21.824219 -29.390625 C 22.914062 -29.390625 23.988281 -29.238281 25.042969 -28.9375 C 26.097656 -28.636719 26.875 -28.332031 27.375 -28.023438 L 27.222656 -27.773438 L 27.367188 -28.027344 L 28.378906 -27.449219 L 24.011719 -18.601562 L 23.726562 -18.84375 C 22.570312 -19.828125 20.941406 -20.316406 18.847656 -20.316406 C 17.726562 -20.316406 16.765625 -20.074219 15.96875 -19.589844 C 15.171875 -19.105469 14.613281 -18.523438 14.289062 -17.839844 C 13.945312 -17.121094 13.703125 -16.507812 13.5625 -16.011719 C 13.421875 -15.523438 13.351562 -15.144531 13.351562 -14.878906 L 13.351562 0.292969 L 3.011719 0.292969 Z M 3.597656 0 L 3.304688 0 L 3.304688 -0.292969 L 13.058594 -0.292969 L 13.058594 0 L 12.769531 0 L 12.769531 -14.878906 C 12.769531 -15.199219 12.84375 -15.632812 13 -16.171875 C 13.152344 -16.703125 13.40625 -17.339844 13.761719 -18.089844 C 14.132812 -18.878906 14.769531 -19.542969 15.664062 -20.089844 C 16.554688 -20.632812 17.617188 -20.902344 18.847656 -20.902344 C 21.085938 -20.902344 22.839844 -20.367188 24.105469 -19.289062 L 23.917969 -19.066406 L 23.652344 -19.195312 L 27.730469 -27.460938 L 27.996094 -27.332031 L 27.847656 -27.078125 L 27.074219 -27.523438 L 27.070312 -27.523438 C 26.613281 -27.804688 25.886719 -28.085938 24.882812 -28.375 C 23.882812 -28.660156 22.859375 -28.804688 21.824219 -28.804688 C 20.828125 -28.804688 19.847656 -28.636719 18.890625 -28.296875 C 17.921875 -27.957031 17.136719 -27.574219 16.535156 -27.148438 C 15.925781 -26.71875 15.351562 -26.234375 14.808594 -25.695312 C 14.269531 -25.152344 13.921875 -24.777344 13.761719 -24.566406 C 13.609375 -24.359375 13.5 -24.191406 13.433594 -24.0625 L 13.351562 -23.898438 L 12.769531 -23.898438 L 12.769531 -28.269531 L 13.058594 -28.269531 L 13.058594 -27.976562 L 3.304688 -27.976562 L 3.304688 -28.269531 L 3.597656 -28.269531 Z M 3.597656 0 "/></g></g></g><g fill="#000000" fill-opacity="1"><g transform="translate(90.682635, 49.01735)"><g><path d="M 5.785156 -3.144531 C 2.578125 -5.992188 0.976562 -9.648438 0.976562 -14.109375 C 0.976562 -18.570312 2.644531 -22.234375 5.980469 -25.101562 C 9.304688 -27.960938 13.410156 -29.390625 18.296875 -29.390625 C 23.109375 -29.390625 27.167969 -27.949219 30.472656 -25.074219 C 33.792969 -22.1875 35.453125 -18.53125 35.453125 -14.109375 C 35.453125 -9.683594 33.828125 -6.039062 30.585938 -3.167969 C 27.351562 -0.308594 23.253906 1.121094 18.296875 1.121094 C 13.152344 1.121094 8.980469 -0.300781 5.785156 -3.144531 Z M 6.171875 -3.582031 C 9.257812 -0.835938 13.300781 0.535156 18.296875 0.535156 C 23.109375 0.535156 27.074219 -0.847656 30.199219 -3.609375 C 33.308594 -6.359375 34.867188 -9.859375 34.867188 -14.109375 C 34.867188 -18.355469 33.273438 -21.863281 30.089844 -24.632812 C 26.894531 -27.414062 22.960938 -28.804688 18.296875 -28.804688 C 13.554688 -28.804688 9.578125 -27.421875 6.363281 -24.660156 C 3.160156 -21.90625 1.558594 -18.390625 1.558594 -14.109375 C 1.558594 -9.824219 3.097656 -6.3125 6.171875 -3.582031 Z M 13.734375 -18.691406 C 12.523438 -17.5 11.921875 -15.972656 11.921875 -14.109375 C 11.921875 -12.242188 12.5 -10.71875 13.65625 -9.546875 C 14.808594 -8.375 16.339844 -7.789062 18.242188 -7.789062 C 20.070312 -7.789062 21.570312 -8.382812 22.742188 -9.574219 C 23.917969 -10.765625 24.503906 -12.277344 24.503906 -14.109375 C 24.503906 -15.972656 23.902344 -17.5 22.691406 -18.691406 C 21.480469 -19.886719 19.996094 -20.484375 18.242188 -20.484375 C 16.445312 -20.484375 14.945312 -19.886719 13.734375 -18.691406 Z M 13.324219 -19.109375 C 14.648438 -20.414062 16.285156 -21.066406 18.242188 -21.066406 C 20.15625 -21.066406 21.777344 -20.414062 23.101562 -19.109375 C 24.429688 -17.804688 25.089844 -16.136719 25.089844 -14.109375 C 25.089844 -12.117188 24.449219 -10.46875 23.160156 -9.164062 C 21.871094 -7.855469 20.234375 -7.203125 18.242188 -7.203125 C 16.175781 -7.203125 14.507812 -7.847656 13.238281 -9.136719 C 11.96875 -10.421875 11.335938 -12.082031 11.335938 -14.109375 C 11.335938 -16.136719 11.996094 -17.804688 13.324219 -19.109375 Z M 13.324219 -19.109375 "/></g></g></g><g fill="#000000" fill-opacity="1"><g transform="translate(127.107025, 49.01735)"><g><path d="M 4.667969 -28.269531 L 4.667969 -39.089844 L 15.007812 -39.089844 L 15.007812 -28.269531 L 14.714844 -28.269531 L 14.714844 -28.5625 L 20.957031 -28.5625 L 20.957031 -20.539062 L 14.714844 -20.539062 L 14.714844 -20.832031 L 15.007812 -20.832031 L 15.007812 -11.847656 C 15.007812 -9.433594 15.644531 -8.226562 16.917969 -8.226562 C 17.25 -8.226562 17.601562 -8.296875 17.976562 -8.429688 C 18.355469 -8.570312 18.648438 -8.707031 18.851562 -8.839844 L 19.507812 -9.277344 L 22.117188 -0.796875 L 21.910156 -0.679688 C 19.773438 0.519531 17.335938 1.121094 14.601562 1.121094 C 12.722656 1.121094 11.097656 0.789062 9.734375 0.125 C 8.363281 -0.542969 7.320312 -1.441406 6.613281 -2.574219 C 5.917969 -3.683594 5.417969 -4.851562 5.117188 -6.074219 C 4.816406 -7.292969 4.667969 -8.589844 4.667969 -9.972656 L 4.667969 -20.832031 L 4.960938 -20.832031 L 4.960938 -20.539062 L 0.589844 -20.539062 L 0.589844 -28.5625 L 4.960938 -28.5625 L 4.960938 -28.269531 Z M 5.253906 -27.976562 L 0.882812 -27.976562 L 0.882812 -28.269531 L 1.175781 -28.269531 L 1.175781 -20.832031 L 0.882812 -20.832031 L 0.882812 -21.125 L 5.253906 -21.125 L 5.253906 -9.972656 C 5.253906 -8.640625 5.398438 -7.386719 5.683594 -6.214844 C 5.972656 -5.050781 6.445312 -3.941406 7.109375 -2.882812 C 7.757812 -1.847656 8.71875 -1.019531 9.992188 -0.402344 C 11.273438 0.222656 12.8125 0.535156 14.601562 0.535156 C 17.234375 0.535156 19.574219 -0.0429688 21.625 -1.191406 L 21.765625 -0.9375 L 21.488281 -0.851562 L 19.0625 -8.730469 L 19.34375 -8.816406 L 19.503906 -8.574219 L 19.175781 -8.351562 C 18.933594 -8.191406 18.601562 -8.035156 18.175781 -7.878906 C 17.738281 -7.722656 17.320312 -7.644531 16.917969 -7.644531 C 15.253906 -7.644531 14.421875 -9.042969 14.421875 -11.847656 L 14.421875 -21.125 L 20.664062 -21.125 L 20.664062 -20.832031 L 20.371094 -20.832031 L 20.371094 -28.269531 L 20.664062 -28.269531 L 20.664062 -27.976562 L 14.421875 -27.976562 L 14.421875 -38.796875 L 14.714844 -38.796875 L 14.714844 -38.503906 L 4.960938 -38.503906 L 4.960938 -38.796875 L 5.253906 -38.796875 Z M 5.253906 -27.976562 "/></g></g></g><g fill="#000000" fill-opacity="1"><g transform="translate(148.873491, 49.01735)"><g><path d="M 4.035156 -44.238281 C 5.230469 -45.433594 6.660156 -46.03125 8.320312 -46.03125 C 9.980469 -46.03125 11.410156 -45.433594 12.605469 -44.238281 C 13.800781 -43.042969 14.398438 -41.613281 14.398438 -39.953125 C 14.398438 -38.292969 13.800781 -36.863281 12.605469 -35.667969 C 11.410156 -34.472656 9.980469 -33.875 8.320312 -33.875 C 6.660156 -33.875 5.230469 -34.472656 4.035156 -35.667969 C 2.839844 -36.863281 2.242188 -38.292969 2.242188 -39.953125 C 2.242188 -41.613281 2.839844 -43.042969 4.035156 -44.238281 Z M 4.449219 -43.824219 C 3.367188 -42.742188 2.828125 -41.453125 2.828125 -39.953125 C 2.828125 -38.453125 3.367188 -37.164062 4.449219 -36.082031 C 5.53125 -35 6.824219 -34.460938 8.320312 -34.460938 C 9.820312 -34.460938 11.109375 -35 12.191406 -36.082031 C 13.273438 -37.164062 13.816406 -38.453125 13.816406 -39.953125 C 13.816406 -41.453125 13.273438 -42.742188 12.191406 -43.824219 C 11.109375 -44.90625 9.820312 -45.445312 8.320312 -45.445312 C 6.824219 -45.445312 5.53125 -44.90625 4.449219 -43.824219 Z M 3.597656 -28.269531 L 3.597656 0 L 3.304688 0 L 3.304688 -0.292969 L 13.058594 -0.292969 L 13.058594 0 L 12.769531 0 L 12.769531 -28.269531 L 13.058594 -28.269531 L 13.058594 -27.976562 L 3.304688 -27.976562 L 3.304688 -28.269531 Z M 3.011719 -28.5625 L 13.351562 -28.5625 L 13.351562 0.292969 L 3.011719 0.292969 Z M 3.011719 -28.5625 "/></g></g></g><g fill="#000000" fill-opacity="1"><g transform="translate(165.515196, 49.01735)"><g><path d="M 5.019531 -3.300781 C 2.324219 -6.242188 0.976562 -9.84375 0.976562 -14.109375 C 0.976562 -18.371094 2.324219 -21.980469 5.019531 -24.941406 C 7.722656 -27.90625 11.15625 -29.390625 15.320312 -29.390625 C 19.144531 -29.390625 22.300781 -28.1875 24.78125 -25.78125 L 24.578125 -25.570312 L 24.285156 -25.570312 L 24.285156 -47.683594 L 34.625 -47.683594 L 34.625 0.292969 L 24.394531 0.292969 L 24.394531 -3.195312 L 24.6875 -3.195312 L 24.6875 -2.902344 L 24.578125 -2.902344 L 24.578125 -3.195312 L 24.796875 -3 C 22.3125 -0.253906 19.152344 1.121094 15.320312 1.121094 C 11.15625 1.121094 7.722656 -0.355469 5.019531 -3.300781 Z M 5.449219 -3.695312 C 8.039062 -0.875 11.328125 0.535156 15.320312 0.535156 C 18.980469 0.535156 21.996094 -0.773438 24.359375 -3.394531 L 24.449219 -3.488281 L 24.980469 -3.488281 L 24.980469 0 L 24.6875 0 L 24.6875 -0.292969 L 34.332031 -0.292969 L 34.332031 0 L 34.039062 0 L 34.039062 -47.390625 L 34.332031 -47.390625 L 34.332031 -47.101562 L 24.578125 -47.101562 L 24.578125 -47.390625 L 24.871094 -47.390625 L 24.871094 -24.878906 L 24.375 -25.359375 C 22.007812 -27.65625 18.988281 -28.804688 15.320312 -28.804688 C 11.328125 -28.804688 8.039062 -27.382812 5.453125 -24.546875 C 2.855469 -21.699219 1.558594 -18.21875 1.558594 -14.109375 C 1.558594 -9.996094 2.855469 -6.523438 5.449219 -3.695312 Z M 13.734375 -18.691406 C 12.523438 -17.5 11.921875 -15.972656 11.921875 -14.109375 C 11.921875 -12.242188 12.5 -10.71875 13.65625 -9.546875 C 14.808594 -8.375 16.339844 -7.789062 18.242188 -7.789062 C 20.070312 -7.789062 21.570312 -8.382812 22.742188 -9.574219 C 23.917969 -10.765625 24.503906 -12.277344 24.503906 -14.109375 C 24.503906 -15.972656 23.902344 -17.5 22.691406 -18.691406 C 21.480469 -19.886719 19.996094 -20.484375 18.242188 -20.484375 C 16.445312 -20.484375 14.945312 -19.886719 13.734375 -18.691406 Z M 13.324219 -19.109375 C 14.648438 -20.414062 16.285156 -21.066406 18.242188 -21.066406 C 20.15625 -21.066406 21.777344 -20.414062 23.101562 -19.109375 C 24.429688 -17.804688 25.089844 -16.136719 25.089844 -14.109375 C 25.089844 -12.117188 24.449219 -10.46875 23.160156 -9.164062 C 21.871094 -7.855469 20.234375 -7.203125 18.242188 -7.203125 C 16.175781 -7.203125 14.507812 -7.847656 13.238281 -9.136719 C 11.96875 -10.421875 11.335938 -12.082031 11.335938 -14.109375 C 11.335938 -16.136719 11.996094 -17.804688 13.324219 -19.109375 Z M 13.324219 -19.109375 "/></g></g></g><g fill="#000000" fill-opacity="1"><g transform="translate(203.151902, 49.01735)"><g><path d="M 4.035156 -44.238281 C 5.230469 -45.433594 6.660156 -46.03125 8.320312 -46.03125 C 9.980469 -46.03125 11.410156 -45.433594 12.605469 -44.238281 C 13.800781 -43.042969 14.398438 -41.613281 14.398438 -39.953125 C 14.398438 -38.292969 13.800781 -36.863281 12.605469 -35.667969 C 11.410156 -34.472656 9.980469 -33.875 8.320312 -33.875 C 6.660156 -33.875 5.230469 -34.472656 4.035156 -35.667969 C 2.839844 -36.863281 2.242188 -38.292969 2.242188 -39.953125 C 2.242188 -41.613281 2.839844 -43.042969 4.035156 -44.238281 Z M 4.449219 -43.824219 C 3.367188 -42.742188 2.828125 -41.453125 2.828125 -39.953125 C 2.828125 -38.453125 3.367188 -37.164062 4.449219 -36.082031 C 5.53125 -35 6.824219 -34.460938 8.320312 -34.460938 C 9.820312 -34.460938 11.109375 -35 12.191406 -36.082031 C 13.273438 -37.164062 13.816406 -38.453125 13.816406 -39.953125 C 13.816406 -41.453125 13.273438 -42.742188 12.191406 -43.824219 C 11.109375 -44.90625 9.820312 -45.445312 8.320312 -45.445312 C 6.824219 -45.445312 5.53125 -44.90625 4.449219 -43.824219 Z M 3.597656 -28.269531 L 3.597656 0 L 3.304688 0 L 3.304688 -0.292969 L 13.058594 -0.292969 L 13.058594 0 L 12.769531 0 L 12.769531 -28.269531 L 13.058594 -28.269531 L 13.058594 -27.976562 L 3.304688 -27.976562 L 3.304688 -28.269531 Z M 3.011719 -28.5625 L 13.351562 -28.5625 L 13.351562 0.292969 L 3.011719 0.292969 Z M 3.011719 -28.5625 "/></g></g></g><g fill="#000000" fill-opacity="1"><g transform="translate(219.793596, 49.01735)"><g><path d="M 3.011719 0 L 3.011719 -28.5625 L 13.351562 -28.5625 L 13.351562 -25.292969 L 13.058594 -25.292969 L 13.058594 -25.585938 L 13.171875 -25.585938 L 13.171875 -25.292969 L 12.964844 -25.5 C 15.554688 -28.09375 18.324219 -29.390625 21.273438 -29.390625 C 22.691406 -29.390625 24.105469 -29.203125 25.507812 -28.828125 C 26.914062 -28.453125 28.261719 -27.875 29.550781 -27.085938 C 30.863281 -26.289062 31.925781 -25.160156 32.742188 -23.703125 C 33.554688 -22.242188 33.964844 -20.550781 33.964844 -18.625 L 33.964844 0.292969 L 23.625 0.292969 L 23.625 -15.980469 C 23.625 -17.378906 23.179688 -18.601562 22.289062 -19.648438 C 21.410156 -20.683594 20.261719 -21.199219 18.847656 -21.199219 C 17.457031 -21.199219 16.191406 -20.65625 15.054688 -19.570312 C 13.921875 -18.492188 13.351562 -17.292969 13.351562 -15.980469 L 13.351562 0.292969 L 3.011719 0.292969 Z M 3.597656 0 L 3.304688 0 L 3.304688 -0.292969 L 13.058594 -0.292969 L 13.058594 0 L 12.769531 0 L 12.769531 -15.980469 C 12.769531 -17.460938 13.394531 -18.800781 14.648438 -19.996094 C 15.898438 -21.1875 17.300781 -21.785156 18.847656 -21.785156 C 20.441406 -21.785156 21.738281 -21.199219 22.734375 -20.027344 C 23.71875 -18.871094 24.210938 -17.523438 24.210938 -15.980469 L 24.210938 0 L 23.917969 0 L 23.917969 -0.292969 L 33.671875 -0.292969 L 33.671875 0 L 33.378906 0 L 33.378906 -18.625 C 33.378906 -20.449219 32.996094 -22.046875 32.230469 -23.414062 C 31.464844 -24.785156 30.472656 -25.84375 29.246094 -26.585938 C 28.003906 -27.34375 26.707031 -27.902344 25.355469 -28.261719 C 24.003906 -28.625 22.640625 -28.804688 21.273438 -28.804688 C 18.488281 -28.804688 15.855469 -27.566406 13.378906 -25.085938 L 13.292969 -25 L 12.769531 -25 L 12.769531 -28.269531 L 13.058594 -28.269531 L 13.058594 -27.976562 L 3.304688 -27.976562 L 3.304688 -28.269531 L 3.597656 -28.269531 Z M 3.597656 0 "/></g></g></g><g fill="#000000" fill-opacity="1"><g transform="translate(257.061909, 49.323652)"><g/></g></g><g fill="#000000" fill-opacity="1"><g transform="translate(256.220349, 49.01735)"><g/></g></g><g clip-path="url(#ad327896ab)"><path fill="#000000" d="M 17.402344 12.957031 C 17.402344 12.714844 17.207031 12.519531 16.964844 12.519531 L 16.132812 12.519531 L 16.132812 3.597656 C 16.132812 3.355469 15.9375 3.160156 15.695312 3.160156 L 8.355469 3.160156 C 8.113281 3.160156 7.917969 3.355469 7.917969 3.597656 L 7.917969 12.519531 L 7.085938 12.519531 C 6.84375 12.519531 6.648438 12.714844 6.648438 12.957031 L 6.648438 15.304688 C 4.597656 15.523438 2.996094 17.261719 2.996094 19.367188 L 2.996094 62.078125 C 2.996094 64.183594 4.597656 65.921875 6.648438 66.140625 L 6.648438 118.496094 C 6.648438 118.515625 6.65625 118.535156 6.660156 118.550781 C 6.660156 118.566406 6.65625 118.582031 6.660156 118.59375 L 10.089844 133.722656 L 10.652344 136.207031 C 10.800781 136.859375 11.351562 137.300781 12.027344 137.300781 C 12.699219 137.300781 13.25 136.859375 13.398438 136.207031 L 13.960938 133.722656 L 17.390625 118.59375 C 17.394531 118.582031 17.390625 118.566406 17.390625 118.550781 C 17.394531 118.535156 17.402344 118.515625 17.402344 118.496094 Z M 17.402344 12.957031 " fill-opacity="1" fill-rule="nonzero"/></g><path fill="#000000" d="M 11.175781 19.367188 L 11.175781 62.078125 C 11.175781 64.183594 9.574219 65.921875 7.523438 66.140625 L 7.523438 118.058594 L 16.527344 118.058594 L 16.527344 13.394531 L 7.523438 13.394531 L 7.523438 15.304688 C 9.574219 15.523438 11.175781 17.261719 11.175781 19.367188 Z M 11.175781 19.367188 " fill-opacity="1" fill-rule="nonzero"/><path fill="#8bc34a" d="M 16.414062 118.9375 L 13.183594 133.1875 L 10.867188 133.1875 L 7.636719 118.9375 Z M 15.257812 4.035156 L 8.792969 4.035156 L 8.792969 12.445312 L 15.257812 12.445312 Z M 15.257812 4.035156 " fill-opacity="1" fill-rule="nonzero"/><path fill="#8bc34a" d="M 11.507812 136.011719 L 11.066406 134.0625 L 12.984375 134.0625 L 12.542969 136.011719 C 12.472656 136.316406 12.230469 136.425781 12.027344 136.425781 C 11.820312 136.425781 11.578125 136.316406 11.507812 136.011719 Z M 7.085938 65.289062 C 8.859375 65.289062 10.300781 63.847656 10.300781 62.078125 L 10.300781 19.367188 C 10.300781 17.597656 8.859375 16.15625 7.085938 16.15625 C 5.316406 16.15625 3.875 17.597656 3.875 19.367188 L 3.875 62.078125 C 3.875 63.847656 5.316406 65.289062 7.085938 65.289062 Z M 7.085938 65.289062 " fill-opacity="1" fill-rule="nonzero"/><g clip-path="url(#b580f04601)"><path fill="#000000" d="M 17.402344 12.957031 C 17.402344 12.714844 17.207031 12.519531 16.964844 12.519531 L 16.132812 12.519531 L 16.132812 3.597656 C 16.132812 3.355469 15.9375 3.160156 15.695312 3.160156 L 8.355469 3.160156 C 8.113281 3.160156 7.917969 3.355469 7.917969 3.597656 L 7.917969 12.519531 L 7.085938 12.519531 C 6.84375 12.519531 6.648438 12.714844 6.648438 12.957031 L 6.648438 15.304688 C 4.597656 15.523438 2.996094 17.261719 2.996094 19.367188 L 2.996094 62.078125 C 2.996094 64.183594 4.597656 65.921875 6.648438 66.140625 L 6.648438 118.496094 C 6.648438 118.515625 6.65625 118.535156 6.660156 118.550781 C 6.660156 118.566406 6.65625 118.582031 6.660156 118.59375 L 10.089844 133.722656 L 10.652344 136.207031 C 10.800781 136.859375 11.351562 137.300781 12.027344 137.300781 C 12.699219 137.300781 13.25 136.859375 13.398438 136.207031 L 13.960938 133.722656 L 17.390625 118.59375 C 17.394531 118.582031 17.390625 118.566406 17.390625 118.550781 C 17.394531 118.535156 17.402344 118.515625 17.402344 118.496094 Z M 8.792969 4.035156 L 15.257812 4.035156 L 15.257812 12.445312 L 8.792969 12.445312 Z M 3.875 62.078125 L 3.875 19.367188 C 3.875 17.597656 5.316406 16.15625 7.085938 16.15625 C 8.859375 16.15625 10.300781 17.597656 10.300781 19.367188 L 10.300781 62.078125 C 10.300781 63.847656 8.859375 65.289062 7.085938 65.289062 C 5.316406 65.289062 3.875 63.847656 3.875 62.078125 Z M 12.542969 136.011719 C 12.472656 136.316406 12.230469 136.425781 12.027344 136.425781 C 11.820312 136.425781 11.578125 136.316406 11.507812 136.011719 L 11.066406 134.0625 L 12.984375 134.0625 Z M 13.183594 133.1875 L 10.867188 133.1875 L 7.636719 118.9375 L 16.414062 118.9375 Z M 7.523438 118.058594 L 7.523438 66.140625 C 9.574219 65.921875 11.175781 64.183594 11.175781 62.078125 L 11.175781 19.367188 C 11.175781 17.261719 9.574219 15.523438 7.523438 15.304688 L 7.523438 13.394531 L 16.527344 13.394531 L 16.527344 118.058594 Z M 7.523438 118.058594 " fill-opacity="1" fill-rule="nonzero"/></g><g clip-path="url(#577c32509c)"><path fill="#000000" d="M 11.695312 137.871094 L 11.953125 137.828125 L 12.667969 137.710938 C 15.132812 136.9375 16.941406 136.425781 18.101562 136.167969 C 22.664062 135.421875 25.785156 134.828125 27.46875 134.390625 L 36.453125 131.960938 C 37.464844 131.792969 41.238281 131.503906 47.769531 131.097656 C 50.773438 130.898438 52.78125 130.820312 53.792969 130.867188 C 55.832031 130.933594 59.277344 131.65625 64.128906 133.03125 C 64.816406 133.273438 65.738281 133.675781 66.898438 134.242188 L 75.113281 138.472656 C 75.933594 138.882812 76.714844 139.160156 77.453125 139.308594 L 81.636719 139.976562 L 85.261719 140.792969 C 86.617188 140.992188 87.738281 141.117188 88.621094 141.164062 C 89.085938 141.191406 89.558594 141.1875 90.035156 141.148438 L 92.171875 140.894531 C 93.847656 140.820312 95.125 140.734375 96.003906 140.640625 C 96.996094 140.546875 97.703125 140.460938 98.128906 140.382812 C 98.632812 140.328125 100.335938 139.957031 103.226562 139.277344 C 104.039062 139.085938 104.710938 138.878906 105.246094 138.652344 C 117.160156 132.953125 123.433594 129.992188 124.058594 129.765625 C 124.714844 129.378906 127.871094 128.164062 133.535156 126.125 L 133.929688 125.695312 C 133.699219 125.636719 133.304688 125.597656 132.738281 125.585938 C 129.144531 125.640625 126.167969 126.03125 123.804688 126.757812 C 120.164062 127.664062 113.25 129.824219 103.0625 133.238281 C 100.105469 133.648438 98.136719 133.882812 97.15625 133.945312 C 95.867188 134.007812 94.0625 133.992188 91.746094 133.90625 L 89.773438 133.984375 C 89.472656 134.007812 88.511719 133.859375 86.890625 133.535156 L 83.445312 132.449219 L 79.042969 131.421875 C 74.300781 128.644531 70.070312 126.710938 66.359375 125.621094 C 63.476562 124.992188 60.863281 124.542969 58.515625 124.273438 C 57.425781 124.136719 56.214844 124.03125 54.886719 123.949219 C 54.410156 123.925781 53.746094 123.957031 52.898438 124.046875 C 43.222656 125.414062 37.1875 126.46875 34.789062 127.214844 C 33.847656 127.492188 30.914062 128.769531 25.992188 131.042969 L 17.414062 134.453125 C 16.320312 134.964844 14.691406 136.007812 12.515625 137.582031 C 12.324219 137.714844 12.050781 137.8125 11.695312 137.871094 " fill-opacity="1" fill-rule="nonzero"/></g><g clip-path="url(#d04a10c27c)"><g clip-path="url(#704aebf626)"><g clip-path="url(#b1451a603f)"><path fill="#8bc34a" d="M 37.949219 108.351562 C 38.167969 108.269531 38.394531 108.230469 38.625 108.234375 C 38.859375 108.242188 39.082031 108.292969 39.292969 108.386719 C 39.507812 108.480469 39.691406 108.609375 39.851562 108.777344 C 40.011719 108.945312 40.132812 109.136719 40.214844 109.351562 C 40.296875 109.566406 40.332031 109.792969 40.324219 110.023438 C 40.316406 110.253906 40.265625 110.476562 40.167969 110.6875 C 40.074219 110.898438 39.941406 111.082031 39.769531 111.242188 C 39.601562 111.402344 39.40625 111.523438 39.1875 111.605469 C 38.96875 111.6875 38.746094 111.726562 38.511719 111.722656 C 38.277344 111.714844 38.054688 111.664062 37.84375 111.570312 C 37.632812 111.476562 37.445312 111.347656 37.285156 111.179688 C 37.128906 111.011719 37.007812 110.820312 36.925781 110.605469 C 36.84375 110.386719 36.804688 110.164062 36.8125 109.933594 C 36.820312 109.703125 36.871094 109.480469 36.96875 109.269531 C 37.0625 109.058594 37.199219 108.875 37.367188 108.714844 C 37.539062 108.554688 37.730469 108.433594 37.949219 108.351562 Z M 37.949219 108.351562 " fill-opacity="1" fill-rule="nonzero"/></g></g></g><g clip-path="url(#7cfc5a66a3)"><g clip-path="url(#20cae9714e)"><g clip-path="url(#dc2012aba7)"><path fill="#8bc34a" d="M 37.839844 103.117188 L 38.71875 105.421875 C 35.613281 106.601562 34.046875 110.046875 35.214844 113.117188 L 32.882812 114.003906 C 31.230469 109.660156 33.449219 104.785156 37.839844 103.117188 Z M 37.839844 103.117188 " fill-opacity="1" fill-rule="nonzero"/></g></g></g><g clip-path="url(#ab615b1318)"><g clip-path="url(#b8139669d1)"><g clip-path="url(#1119e7caee)"><path fill="#8bc34a" d="M 37.222656 101.488281 C 31.921875 103.503906 29.242188 109.390625 31.238281 114.628906 L 28.839844 115.542969 C 26.347656 108.992188 29.695312 101.636719 36.316406 99.117188 Z M 37.222656 101.488281 " fill-opacity="1" fill-rule="nonzero"/></g></g></g><g fill="#000000" fill-opacity="1"><g transform="translate(36.523378, 120.433409)"><g><path d="M 12.15625 -6.375 C 12.15625 -5.050781 11.921875 -3.894531 11.453125 -2.90625 C 10.984375 -1.914062 10.316406 -1.148438 9.453125 -0.609375 C 8.597656 -0.078125 7.609375 0.1875 6.484375 0.1875 C 5.378906 0.1875 4.394531 -0.078125 3.53125 -0.609375 C 2.664062 -1.140625 1.992188 -1.898438 1.515625 -2.890625 C 1.035156 -3.878906 0.789062 -5.015625 0.78125 -6.296875 L 0.78125 -6.953125 C 0.78125 -8.265625 1.015625 -9.421875 1.484375 -10.421875 C 1.960938 -11.421875 2.632812 -12.1875 3.5 -12.71875 C 4.363281 -13.257812 5.351562 -13.53125 6.46875 -13.53125 C 7.582031 -13.53125 8.570312 -13.257812 9.4375 -12.71875 C 10.300781 -12.1875 10.96875 -11.421875 11.4375 -10.421875 C 11.914062 -9.421875 12.15625 -8.269531 12.15625 -6.96875 Z M 9.359375 -6.96875 C 9.359375 -8.375 9.109375 -9.4375 8.609375 -10.15625 C 8.109375 -10.882812 7.394531 -11.25 6.46875 -11.25 C 5.539062 -11.25 4.828125 -10.890625 4.328125 -10.171875 C 3.828125 -9.453125 3.578125 -8.398438 3.578125 -7.015625 L 3.578125 -6.375 C 3.578125 -5.007812 3.828125 -3.953125 4.328125 -3.203125 C 4.828125 -2.453125 5.546875 -2.078125 6.484375 -2.078125 C 7.410156 -2.078125 8.117188 -2.4375 8.609375 -3.15625 C 9.109375 -3.882812 9.359375 -4.941406 9.359375 -6.328125 Z M 9.359375 -6.96875 "/></g></g></g><g fill="#000000" fill-opacity="1"><g transform="translate(50.344612, 120.433409)"><g><path d="M 3.453125 -9.921875 L 3.53125 -8.765625 C 4.238281 -9.648438 5.191406 -10.09375 6.390625 -10.09375 C 7.441406 -10.09375 8.222656 -9.785156 8.734375 -9.171875 C 9.242188 -8.554688 9.503906 -7.632812 9.515625 -6.40625 L 9.515625 0 L 6.875 0 L 6.875 -6.34375 C 6.875 -6.90625 6.75 -7.3125 6.5 -7.5625 C 6.257812 -7.8125 5.851562 -7.9375 5.28125 -7.9375 C 4.539062 -7.9375 3.984375 -7.617188 3.609375 -6.984375 L 3.609375 0 L 0.96875 0 L 0.96875 -9.921875 Z M 3.453125 -9.921875 "/></g></g></g><g fill="#000000" fill-opacity="1"><g transform="translate(61.719107, 120.433409)"><g><path d="M 3.8125 0 L 1.15625 0 L 1.15625 -14.078125 L 3.8125 -14.078125 Z M 3.8125 0 "/></g></g></g><g fill="#000000" fill-opacity="1"><g transform="translate(67.558657, 120.433409)"><g><path d="M 3.8125 0 L 1.15625 0 L 1.15625 -9.921875 L 3.8125 -9.921875 Z M 1 -12.484375 C 1 -12.878906 1.128906 -13.203125 1.390625 -13.453125 C 1.660156 -13.710938 2.023438 -13.84375 2.484375 -13.84375 C 2.929688 -13.84375 3.289062 -13.710938 3.5625 -13.453125 C 3.832031 -13.203125 3.96875 -12.878906 3.96875 -12.484375 C 3.96875 -12.078125 3.832031 -11.742188 3.5625 -11.484375 C 3.289062 -11.234375 2.929688 -11.109375 2.484375 -11.109375 C 2.035156 -11.109375 1.675781 -11.234375 1.40625 -11.484375 C 1.132812 -11.742188 1 -12.078125 1 -12.484375 Z M 1 -12.484375 "/></g></g></g><g fill="#000000" fill-opacity="1"><g transform="translate(73.398206, 120.433409)"><g><path d="M 3.453125 -9.921875 L 3.53125 -8.765625 C 4.238281 -9.648438 5.191406 -10.09375 6.390625 -10.09375 C 7.441406 -10.09375 8.222656 -9.785156 8.734375 -9.171875 C 9.242188 -8.554688 9.503906 -7.632812 9.515625 -6.40625 L 9.515625 0 L 6.875 0 L 6.875 -6.34375 C 6.875 -6.90625 6.75 -7.3125 6.5 -7.5625 C 6.257812 -7.8125 5.851562 -7.9375 5.28125 -7.9375 C 4.539062 -7.9375 3.984375 -7.617188 3.609375 -6.984375 L 3.609375 0 L 0.96875 0 L 0.96875 -9.921875 Z M 3.453125 -9.921875 "/></g></g></g><g fill="#000000" fill-opacity="1"><g transform="translate(84.772701, 120.433409)"><g><path d="M 5.578125 0.1875 C 4.128906 0.1875 2.945312 -0.257812 2.03125 -1.15625 C 1.113281 -2.050781 0.65625 -3.238281 0.65625 -4.71875 L 0.65625 -4.96875 C 0.65625 -5.96875 0.847656 -6.859375 1.234375 -7.640625 C 1.617188 -8.429688 2.164062 -9.035156 2.875 -9.453125 C 3.582031 -9.878906 4.382812 -10.09375 5.28125 -10.09375 C 6.644531 -10.09375 7.710938 -9.664062 8.484375 -8.8125 C 9.265625 -7.957031 9.65625 -6.742188 9.65625 -5.171875 L 9.65625 -4.09375 L 3.34375 -4.09375 C 3.425781 -3.445312 3.679688 -2.925781 4.109375 -2.53125 C 4.546875 -2.144531 5.09375 -1.953125 5.75 -1.953125 C 6.769531 -1.953125 7.566406 -2.320312 8.140625 -3.0625 L 9.453125 -1.609375 C 9.046875 -1.046875 8.503906 -0.601562 7.828125 -0.28125 C 7.148438 0.03125 6.398438 0.1875 5.578125 0.1875 Z M 5.28125 -7.953125 C 4.75 -7.953125 4.320312 -7.773438 4 -7.421875 C 3.675781 -7.066406 3.46875 -6.5625 3.375 -5.90625 L 7.0625 -5.90625 L 7.0625 -6.109375 C 7.039062 -6.691406 6.878906 -7.144531 6.578125 -7.46875 C 6.273438 -7.789062 5.84375 -7.953125 5.28125 -7.953125 Z M 5.28125 -7.953125 "/></g></g></g><g fill="#000000" fill-opacity="1"><g transform="translate(35.745711, 120.763511)"><g><path d="M 12.339844 -6.371094 C 12.339844 -5.027344 12.101562 -3.851562 11.625 -2.835938 C 11.144531 -1.8125 10.457031 -1.019531 9.5625 -0.464844 C 8.667969 0.09375 7.644531 0.371094 6.488281 0.371094 C 5.347656 0.371094 4.328125 0.0976562 3.429688 -0.453125 C 2.53125 -1.003906 1.835938 -1.789062 1.34375 -2.808594 C 0.855469 -3.820312 0.605469 -4.984375 0.601562 -6.296875 L 0.601562 -6.957031 C 0.601562 -8.296875 0.84375 -9.480469 1.328125 -10.503906 C 1.816406 -11.539062 2.511719 -12.332031 3.40625 -12.886719 C 4.300781 -13.4375 5.324219 -13.714844 6.46875 -13.714844 C 7.617188 -13.714844 8.640625 -13.4375 9.535156 -12.886719 C 10.429688 -12.332031 11.121094 -11.539062 11.613281 -10.503906 C 12.097656 -9.480469 12.339844 -8.300781 12.339844 -6.964844 Z M 11.964844 -6.371094 L 11.964844 -6.964844 C 11.964844 -8.246094 11.734375 -9.371094 11.273438 -10.34375 C 10.816406 -11.308594 10.167969 -12.050781 9.335938 -12.566406 C 8.503906 -13.082031 7.546875 -13.339844 6.46875 -13.339844 C 5.394531 -13.339844 4.4375 -13.082031 3.605469 -12.566406 C 2.769531 -12.050781 2.125 -11.308594 1.667969 -10.34375 C 1.207031 -9.371094 0.976562 -8.242188 0.976562 -6.957031 L 0.976562 -6.296875 C 0.980469 -5.042969 1.21875 -3.933594 1.679688 -2.972656 C 2.140625 -2.019531 2.789062 -1.285156 3.625 -0.773438 C 4.464844 -0.261719 5.417969 -0.00390625 6.488281 -0.00390625 C 7.570312 -0.00390625 8.53125 -0.265625 9.363281 -0.78125 C 10.195312 -1.300781 10.835938 -2.039062 11.285156 -2.996094 C 11.738281 -3.957031 11.964844 -5.082031 11.964844 -6.371094 Z M 9.179688 -6.972656 C 9.179688 -8.335938 8.941406 -9.363281 8.460938 -10.058594 C 7.996094 -10.730469 7.332031 -11.066406 6.46875 -11.066406 C 5.613281 -11.066406 4.953125 -10.734375 4.488281 -10.070312 C 4.011719 -9.382812 3.769531 -8.367188 3.761719 -7.019531 L 3.761719 -6.371094 C 3.761719 -5.046875 4.003906 -4.023438 4.480469 -3.300781 C 4.945312 -2.605469 5.613281 -2.257812 6.488281 -2.257812 C 7.34375 -2.257812 8.003906 -2.59375 8.460938 -3.261719 C 8.933594 -3.957031 9.171875 -4.976562 9.179688 -6.324219 Z M 9.554688 -6.972656 L 9.554688 -6.324219 C 9.546875 -4.898438 9.285156 -3.808594 8.769531 -3.050781 C 8.238281 -2.273438 7.476562 -1.882812 6.488281 -1.882812 C 5.480469 -1.882812 4.707031 -2.289062 4.167969 -3.09375 C 3.648438 -3.878906 3.386719 -4.96875 3.386719 -6.371094 L 3.386719 -7.019531 C 3.394531 -8.445312 3.65625 -9.535156 4.179688 -10.285156 C 4.71875 -11.058594 5.484375 -11.441406 6.46875 -11.441406 C 7.464844 -11.441406 8.230469 -11.050781 8.769531 -10.269531 C 9.292969 -9.511719 9.554688 -8.414062 9.554688 -6.972656 Z M 9.554688 -6.972656 "/></g></g></g><g fill="#000000" fill-opacity="1"><g transform="translate(49.566945, 120.763511)"><g><path d="M 3.640625 -9.929688 L 3.726562 -8.785156 L 3.539062 -8.769531 L 3.390625 -8.886719 C 4.136719 -9.820312 5.136719 -10.289062 6.386719 -10.289062 C 7.496094 -10.289062 8.328125 -9.957031 8.878906 -9.292969 C 9.421875 -8.644531 9.699219 -7.679688 9.710938 -6.410156 L 9.710938 0.1875 L 6.6875 0.1875 L 6.6875 -6.34375 C 6.6875 -6.855469 6.582031 -7.21875 6.371094 -7.433594 C 6.164062 -7.652344 5.804688 -7.757812 5.289062 -7.757812 C 4.613281 -7.757812 4.109375 -7.472656 3.773438 -6.898438 L 3.609375 -6.992188 L 3.796875 -6.992188 L 3.796875 0.1875 L 0.773438 0.1875 L 0.773438 -10.105469 L 3.628906 -10.105469 Z M 3.269531 -9.902344 L 3.457031 -9.917969 L 3.457031 -9.730469 L 0.960938 -9.730469 L 0.960938 -9.917969 L 1.148438 -9.917969 L 1.148438 0 L 0.960938 0 L 0.960938 -0.1875 L 3.609375 -0.1875 L 3.609375 0 L 3.421875 0 L 3.421875 -7.042969 L 3.449219 -7.089844 C 3.859375 -7.785156 4.472656 -8.132812 5.289062 -8.132812 C 5.910156 -8.132812 6.359375 -7.988281 6.640625 -7.695312 C 6.921875 -7.40625 7.0625 -6.953125 7.0625 -6.34375 L 7.0625 0 L 6.875 0 L 6.875 -0.1875 L 9.523438 -0.1875 L 9.523438 0 L 9.335938 0 L 9.335938 -6.40625 C 9.324219 -7.589844 9.074219 -8.472656 8.589844 -9.054688 C 8.113281 -9.625 7.378906 -9.914062 6.386719 -9.914062 C 5.257812 -9.914062 4.355469 -9.492188 3.683594 -8.652344 L 3.386719 -8.28125 Z M 3.269531 -9.902344 "/></g></g></g><g fill="#000000" fill-opacity="1"><g transform="translate(60.94144, 120.763511)"><g><path d="M 0.96875 -14.265625 L 4 -14.265625 L 4 0.1875 L 0.96875 0.1875 Z M 1.34375 -13.890625 L 1.34375 -0.1875 L 3.625 -0.1875 L 3.625 -13.890625 Z M 1.34375 -13.890625 "/></g></g></g><g fill="#000000" fill-opacity="1"><g transform="translate(66.78099, 120.763511)"><g><path d="M 3.8125 0.1875 L 0.96875 0.1875 L 0.96875 -10.105469 L 4 -10.105469 L 4 0.1875 Z M 3.8125 -0.1875 L 3.8125 0 L 3.625 0 L 3.625 -9.917969 L 3.8125 -9.917969 L 3.8125 -9.730469 L 1.15625 -9.730469 L 1.15625 -9.917969 L 1.34375 -9.917969 L 1.34375 0 L 1.15625 0 L 1.15625 -0.1875 Z M 0.8125 -12.484375 C 0.8125 -12.933594 0.964844 -13.304688 1.265625 -13.597656 C 1.570312 -13.890625 1.976562 -14.035156 2.484375 -14.035156 C 2.984375 -14.035156 3.390625 -13.890625 3.695312 -13.597656 C 4.003906 -13.304688 4.15625 -12.933594 4.15625 -12.484375 C 4.15625 -12.027344 4 -11.648438 3.691406 -11.355469 C 3.382812 -11.066406 2.980469 -10.921875 2.484375 -10.921875 C 1.988281 -10.921875 1.585938 -11.066406 1.277344 -11.355469 C 0.96875 -11.648438 0.8125 -12.027344 0.8125 -12.484375 Z M 1.1875 -12.484375 C 1.1875 -12.132812 1.304688 -11.847656 1.535156 -11.628906 C 1.769531 -11.40625 2.085938 -11.296875 2.484375 -11.296875 C 2.878906 -11.296875 3.195312 -11.40625 3.433594 -11.628906 C 3.664062 -11.847656 3.78125 -12.132812 3.78125 -12.484375 C 3.78125 -12.828125 3.664062 -13.109375 3.4375 -13.328125 C 3.203125 -13.550781 2.886719 -13.660156 2.484375 -13.660156 C 2.074219 -13.660156 1.757812 -13.550781 1.527344 -13.328125 C 1.300781 -13.109375 1.1875 -12.828125 1.1875 -12.484375 Z M 1.1875 -12.484375 "/></g></g></g><g fill="#000000" fill-opacity="1"><g transform="translate(72.620539, 120.763511)"><g><path d="M 3.640625 -9.929688 L 3.726562 -8.785156 L 3.539062 -8.769531 L 3.390625 -8.886719 C 4.136719 -9.820312 5.136719 -10.289062 6.386719 -10.289062 C 7.496094 -10.289062 8.328125 -9.957031 8.878906 -9.292969 C 9.421875 -8.644531 9.699219 -7.679688 9.710938 -6.410156 L 9.710938 0.1875 L 6.6875 0.1875 L 6.6875 -6.34375 C 6.6875 -6.855469 6.582031 -7.21875 6.371094 -7.433594 C 6.164062 -7.652344 5.804688 -7.757812 5.289062 -7.757812 C 4.613281 -7.757812 4.109375 -7.472656 3.773438 -6.898438 L 3.609375 -6.992188 L 3.796875 -6.992188 L 3.796875 0.1875 L 0.773438 0.1875 L 0.773438 -10.105469 L 3.628906 -10.105469 Z M 3.269531 -9.902344 L 3.457031 -9.917969 L 3.457031 -9.730469 L 0.960938 -9.730469 L 0.960938 -9.917969 L 1.148438 -9.917969 L 1.148438 0 L 0.960938 0 L 0.960938 -0.1875 L 3.609375 -0.1875 L 3.609375 0 L 3.421875 0 L 3.421875 -7.042969 L 3.449219 -7.089844 C 3.859375 -7.785156 4.472656 -8.132812 5.289062 -8.132812 C 5.910156 -8.132812 6.359375 -7.988281 6.640625 -7.695312 C 6.921875 -7.40625 7.0625 -6.953125 7.0625 -6.34375 L 7.0625 0 L 6.875 0 L 6.875 -0.1875 L 9.523438 -0.1875 L 9.523438 0 L 9.335938 0 L 9.335938 -6.40625 C 9.324219 -7.589844 9.074219 -8.472656 8.589844 -9.054688 C 8.113281 -9.625 7.378906 -9.914062 6.386719 -9.914062 C 5.257812 -9.914062 4.355469 -9.492188 3.683594 -8.652344 L 3.386719 -8.28125 Z M 3.269531 -9.902344 "/></g></g></g><g fill="#000000" fill-opacity="1"><g transform="translate(83.995034, 120.763511)"><g><path d="M 5.582031 0.371094 C 4.078125 0.371094 2.847656 -0.09375 1.898438 -1.019531 C 0.949219 -1.949219 0.472656 -3.183594 0.472656 -4.71875 L 0.472656 -4.976562 C 0.472656 -6 0.671875 -6.917969 1.070312 -7.730469 C 1.46875 -8.550781 2.039062 -9.179688 2.777344 -9.625 C 3.511719 -10.066406 4.347656 -10.289062 5.289062 -10.289062 C 6.699219 -10.289062 7.8125 -9.839844 8.628906 -8.941406 C 9.441406 -8.050781 9.847656 -6.796875 9.847656 -5.179688 L 9.847656 -3.910156 L 3.34375 -3.910156 L 3.34375 -4.097656 L 3.53125 -4.121094 C 3.609375 -3.519531 3.847656 -3.039062 4.246094 -2.675781 C 4.640625 -2.320312 5.144531 -2.140625 5.753906 -2.140625 C 6.714844 -2.140625 7.460938 -2.484375 8 -3.175781 L 8.136719 -3.355469 L 9.6875 -1.617188 L 9.601562 -1.496094 C 9.1875 -0.90625 8.625 -0.445312 7.914062 -0.117188 C 7.210938 0.207031 6.433594 0.371094 5.582031 0.371094 Z M 5.582031 -0.00390625 C 6.378906 -0.00390625 7.105469 -0.15625 7.757812 -0.460938 C 8.40625 -0.757812 8.917969 -1.175781 9.296875 -1.710938 L 9.449219 -1.605469 L 9.308594 -1.480469 L 8.007812 -2.9375 L 8.148438 -3.0625 L 8.296875 -2.945312 C 7.683594 -2.160156 6.835938 -1.765625 5.753906 -1.765625 C 5.046875 -1.765625 4.460938 -1.976562 3.992188 -2.398438 C 3.527344 -2.820312 3.25 -3.378906 3.160156 -4.070312 L 3.132812 -4.285156 L 9.660156 -4.285156 L 9.660156 -4.097656 L 9.472656 -4.097656 L 9.472656 -5.179688 C 9.472656 -6.699219 9.097656 -7.871094 8.351562 -8.691406 C 7.609375 -9.503906 6.589844 -9.914062 5.289062 -9.914062 C 4.417969 -9.914062 3.644531 -9.707031 2.96875 -9.300781 C 2.296875 -8.894531 1.773438 -8.316406 1.40625 -7.566406 C 1.035156 -6.804688 0.847656 -5.945312 0.847656 -4.976562 L 0.847656 -4.71875 C 0.847656 -3.289062 1.285156 -2.144531 2.160156 -1.289062 C 3.039062 -0.433594 4.179688 -0.00390625 5.582031 -0.00390625 Z M 5.277344 -7.765625 C 4.808594 -7.765625 4.429688 -7.609375 4.136719 -7.296875 C 3.839844 -6.972656 3.644531 -6.496094 3.558594 -5.875 L 3.371094 -5.902344 L 3.371094 -6.089844 L 7.058594 -6.089844 L 7.058594 -5.902344 L 6.871094 -5.902344 L 6.871094 -6.113281 C 6.859375 -6.648438 6.714844 -7.058594 6.445312 -7.34375 C 6.175781 -7.625 5.789062 -7.765625 5.277344 -7.765625 Z M 5.277344 -8.144531 C 5.894531 -8.144531 6.375 -7.964844 6.714844 -7.605469 C 7.054688 -7.246094 7.230469 -6.75 7.246094 -6.113281 L 7.246094 -5.714844 L 3.15625 -5.714844 L 3.1875 -5.929688 C 3.285156 -6.625 3.507812 -7.167969 3.863281 -7.550781 C 4.226562 -7.945312 4.699219 -8.144531 5.277344 -8.144531 Z M 5.277344 -8.144531 "/></g></g></g><g fill="#000000" fill-opacity="1"><g transform="translate(95.788618, 120.433409)"><g/></g></g><g fill="#000000" fill-opacity="1"><g transform="translate(101.325762, 120.433409)"><g/></g></g><g fill="#000000" fill-opacity="1"><g transform="translate(95.010952, 120.763511)"><g/></g></g><g fill="#000000" fill-opacity="1"><g transform="translate(100.548095, 120.763511)"><g/></g></g><g fill="#000000" fill-opacity="1"><g transform="translate(106.865365, 120.433409)"><g><path d="M 8.71875 -2.75 L 3.90625 -2.75 L 2.984375 0 L 0.0625 0 L 5.03125 -13.34375 L 7.578125 -13.34375 L 12.578125 0 L 9.65625 0 Z M 4.640625 -4.96875 L 7.984375 -4.96875 L 6.296875 -9.96875 Z M 4.640625 -4.96875 "/></g></g></g><g fill="#000000" fill-opacity="1"><g transform="translate(120.356703, 120.433409)"><g><path d="M 5.140625 -1.953125 C 5.628906 -1.953125 6.023438 -2.085938 6.328125 -2.359375 C 6.640625 -2.628906 6.800781 -2.984375 6.8125 -3.421875 L 9.296875 -3.421875 C 9.285156 -2.753906 9.097656 -2.140625 8.734375 -1.578125 C 8.378906 -1.023438 7.890625 -0.59375 7.265625 -0.28125 C 6.640625 0.03125 5.945312 0.1875 5.1875 0.1875 C 3.769531 0.1875 2.648438 -0.257812 1.828125 -1.15625 C 1.015625 -2.0625 0.609375 -3.3125 0.609375 -4.90625 L 0.609375 -5.078125 C 0.609375 -6.597656 1.015625 -7.8125 1.828125 -8.71875 C 2.640625 -9.632812 3.753906 -10.09375 5.171875 -10.09375 C 6.410156 -10.09375 7.398438 -9.738281 8.140625 -9.03125 C 8.890625 -8.332031 9.273438 -7.394531 9.296875 -6.21875 L 6.8125 -6.21875 C 6.800781 -6.726562 6.640625 -7.144531 6.328125 -7.46875 C 6.023438 -7.789062 5.625 -7.953125 5.125 -7.953125 C 4.507812 -7.953125 4.039062 -7.726562 3.71875 -7.28125 C 3.40625 -6.832031 3.25 -6.101562 3.25 -5.09375 L 3.25 -4.8125 C 3.25 -3.800781 3.40625 -3.070312 3.71875 -2.625 C 4.03125 -2.175781 4.503906 -1.953125 5.140625 -1.953125 Z M 5.140625 -1.953125 "/></g></g></g><g fill="#000000" fill-opacity="1"><g transform="translate(131.007256, 120.433409)"><g><path d="M 6.765625 0 C 6.640625 -0.238281 6.550781 -0.535156 6.5 -0.890625 C 5.851562 -0.171875 5.019531 0.1875 4 0.1875 C 3.019531 0.1875 2.210938 -0.09375 1.578125 -0.65625 C 0.941406 -1.21875 0.625 -1.925781 0.625 -2.78125 C 0.625 -3.832031 1.007812 -4.640625 1.78125 -5.203125 C 2.5625 -5.765625 3.691406 -6.050781 5.171875 -6.0625 L 6.390625 -6.0625 L 6.390625 -6.625 C 6.390625 -7.082031 6.269531 -7.445312 6.03125 -7.71875 C 5.800781 -8 5.429688 -8.140625 4.921875 -8.140625 C 4.472656 -8.140625 4.117188 -8.03125 3.859375 -7.8125 C 3.609375 -7.601562 3.484375 -7.3125 3.484375 -6.9375 L 0.84375 -6.9375 C 0.84375 -7.507812 1.019531 -8.039062 1.375 -8.53125 C 1.726562 -9.019531 2.226562 -9.398438 2.875 -9.671875 C 3.519531 -9.953125 4.25 -10.09375 5.0625 -10.09375 C 6.28125 -10.09375 7.25 -9.785156 7.96875 -9.171875 C 8.6875 -8.554688 9.046875 -7.695312 9.046875 -6.59375 L 9.046875 -2.296875 C 9.046875 -1.347656 9.175781 -0.632812 9.4375 -0.15625 L 9.4375 0 Z M 4.578125 -1.84375 C 4.960938 -1.84375 5.316406 -1.925781 5.640625 -2.09375 C 5.972656 -2.269531 6.222656 -2.503906 6.390625 -2.796875 L 6.390625 -4.515625 L 5.390625 -4.515625 C 4.066406 -4.515625 3.363281 -4.054688 3.28125 -3.140625 L 3.265625 -2.984375 C 3.265625 -2.648438 3.378906 -2.375 3.609375 -2.15625 C 3.847656 -1.945312 4.171875 -1.84375 4.578125 -1.84375 Z M 4.578125 -1.84375 "/></g></g></g><g fill="#000000" fill-opacity="1"><g transform="translate(141.932725, 120.433409)"><g><path d="M 0.609375 -5.03125 C 0.609375 -6.570312 0.953125 -7.800781 1.640625 -8.71875 C 2.335938 -9.632812 3.285156 -10.09375 4.484375 -10.09375 C 5.453125 -10.09375 6.25 -9.734375 6.875 -9.015625 L 6.875 -14.078125 L 9.53125 -14.078125 L 9.53125 0 L 7.140625 0 L 7.015625 -1.046875 C 6.359375 -0.222656 5.507812 0.1875 4.46875 0.1875 C 3.300781 0.1875 2.363281 -0.269531 1.65625 -1.1875 C 0.957031 -2.113281 0.609375 -3.394531 0.609375 -5.03125 Z M 3.25 -4.84375 C 3.25 -3.90625 3.410156 -3.1875 3.734375 -2.6875 C 4.054688 -2.195312 4.53125 -1.953125 5.15625 -1.953125 C 5.96875 -1.953125 6.539062 -2.300781 6.875 -3 L 6.875 -6.90625 C 6.550781 -7.59375 5.984375 -7.9375 5.171875 -7.9375 C 3.890625 -7.9375 3.25 -6.90625 3.25 -4.84375 Z M 3.25 -4.84375 "/></g></g></g><g fill="#000000" fill-opacity="1"><g transform="translate(153.371367, 120.433409)"><g><path d="M 5.578125 0.1875 C 4.128906 0.1875 2.945312 -0.257812 2.03125 -1.15625 C 1.113281 -2.050781 0.65625 -3.238281 0.65625 -4.71875 L 0.65625 -4.96875 C 0.65625 -5.96875 0.847656 -6.859375 1.234375 -7.640625 C 1.617188 -8.429688 2.164062 -9.035156 2.875 -9.453125 C 3.582031 -9.878906 4.382812 -10.09375 5.28125 -10.09375 C 6.644531 -10.09375 7.710938 -9.664062 8.484375 -8.8125 C 9.265625 -7.957031 9.65625 -6.742188 9.65625 -5.171875 L 9.65625 -4.09375 L 3.34375 -4.09375 C 3.425781 -3.445312 3.679688 -2.925781 4.109375 -2.53125 C 4.546875 -2.144531 5.09375 -1.953125 5.75 -1.953125 C 6.769531 -1.953125 7.566406 -2.320312 8.140625 -3.0625 L 9.453125 -1.609375 C 9.046875 -1.046875 8.503906 -0.601562 7.828125 -0.28125 C 7.148438 0.03125 6.398438 0.1875 5.578125 0.1875 Z M 5.28125 -7.953125 C 4.75 -7.953125 4.320312 -7.773438 4 -7.421875 C 3.675781 -7.066406 3.46875 -6.5625 3.375 -5.90625 L 7.0625 -5.90625 L 7.0625 -6.109375 C 7.039062 -6.691406 6.878906 -7.144531 6.578125 -7.46875 C 6.273438 -7.789062 5.84375 -7.953125 5.28125 -7.953125 Z M 5.28125 -7.953125 "/></g></g></g><g fill="#000000" fill-opacity="1"><g transform="translate(164.379309, 120.433409)"><g><path d="M 3.5 -9.921875 L 3.578125 -8.8125 C 4.285156 -9.664062 5.238281 -10.09375 6.4375 -10.09375 C 7.707031 -10.09375 8.582031 -9.585938 9.0625 -8.578125 C 9.757812 -9.585938 10.753906 -10.09375 12.046875 -10.09375 C 13.117188 -10.09375 13.914062 -9.78125 14.4375 -9.15625 C 14.96875 -8.53125 15.234375 -7.585938 15.234375 -6.328125 L 15.234375 0 L 12.578125 0 L 12.578125 -6.328125 C 12.578125 -6.890625 12.460938 -7.296875 12.234375 -7.546875 C 12.015625 -7.804688 11.628906 -7.9375 11.078125 -7.9375 C 10.285156 -7.9375 9.734375 -7.5625 9.421875 -6.8125 L 9.4375 0 L 6.796875 0 L 6.796875 -6.3125 C 6.796875 -6.882812 6.679688 -7.296875 6.453125 -7.546875 C 6.222656 -7.804688 5.835938 -7.9375 5.296875 -7.9375 C 4.546875 -7.9375 4.003906 -7.628906 3.671875 -7.015625 L 3.671875 0 L 1.015625 0 L 1.015625 -9.921875 Z M 3.5 -9.921875 "/></g></g></g><g fill="#000000" fill-opacity="1"><g transform="translate(181.490354, 120.433409)"><g><path d="M 4.71875 -3.75 L 6.546875 -9.921875 L 9.390625 -9.921875 L 5.40625 1.546875 L 5.1875 2.0625 C 4.59375 3.351562 3.613281 4 2.25 4 C 1.863281 4 1.472656 3.941406 1.078125 3.828125 L 1.078125 1.828125 L 1.484375 1.828125 C 1.984375 1.828125 2.359375 1.75 2.609375 1.59375 C 2.859375 1.445312 3.050781 1.195312 3.1875 0.84375 L 3.5 0.03125 L 0.03125 -9.921875 L 2.875 -9.921875 Z M 4.71875 -3.75 "/></g></g></g><g fill="#000000" fill-opacity="1"><g transform="translate(106.087699, 120.763511)"><g><path d="M 8.726562 -2.5625 L 3.90625 -2.5625 L 3.90625 -2.75 L 4.082031 -2.691406 L 3.125 0.1875 L -0.207031 0.1875 L 4.902344 -13.53125 L 7.710938 -13.53125 L 12.84375 0.1875 L 9.515625 0.1875 L 8.546875 -2.691406 L 8.726562 -2.75 Z M 8.859375 -2.9375 L 9.828125 -0.0585938 L 9.652344 0 L 9.652344 -0.1875 L 12.574219 -0.1875 L 12.574219 0 L 12.398438 0.0664062 L 7.402344 -13.277344 L 7.578125 -13.34375 L 7.578125 -13.15625 L 5.03125 -13.15625 L 5.03125 -13.34375 L 5.207031 -13.277344 L 0.238281 0.0664062 L 0.0625 0 L 0.0625 -0.1875 L 2.988281 -0.1875 L 2.988281 0 L 2.808594 -0.0585938 L 3.769531 -2.9375 Z M 4.648438 -5.164062 L 7.984375 -5.164062 L 7.984375 -4.976562 L 7.804688 -4.917969 L 6.128906 -9.910156 L 6.304688 -9.972656 L 6.484375 -9.914062 L 4.824219 -4.917969 L 4.648438 -4.976562 Z M 4.386719 -4.789062 L 6.304688 -10.5625 L 8.242188 -4.789062 Z M 4.386719 -4.789062 "/></g></g></g><g fill="#000000" fill-opacity="1"><g transform="translate(119.579036, 120.763511)"><g><path d="M 5.140625 -2.140625 C 5.582031 -2.140625 5.9375 -2.257812 6.210938 -2.496094 C 6.472656 -2.730469 6.609375 -3.042969 6.621094 -3.433594 L 6.625 -3.617188 L 9.484375 -3.617188 L 9.480469 -3.425781 C 9.476562 -2.71875 9.28125 -2.070312 8.902344 -1.480469 C 8.523438 -0.890625 8.003906 -0.433594 7.347656 -0.109375 C 6.695312 0.210938 5.972656 0.371094 5.1875 0.371094 C 3.714844 0.371094 2.550781 -0.101562 1.695312 -1.042969 C 0.84375 -1.980469 0.417969 -3.265625 0.417969 -4.902344 L 0.417969 -5.078125 C 0.417969 -6.652344 0.839844 -7.914062 1.683594 -8.859375 C 2.535156 -9.8125 3.695312 -10.289062 5.167969 -10.289062 C 6.460938 -10.289062 7.496094 -9.917969 8.28125 -9.179688 C 9.066406 -8.4375 9.46875 -7.453125 9.480469 -6.226562 L 9.484375 -6.035156 L 6.625 -6.035156 L 6.621094 -6.21875 C 6.609375 -6.683594 6.46875 -7.058594 6.195312 -7.34375 C 5.929688 -7.625 5.570312 -7.765625 5.125 -7.765625 C 4.570312 -7.765625 4.15625 -7.570312 3.878906 -7.175781 C 3.585938 -6.757812 3.441406 -6.0625 3.441406 -5.097656 L 3.441406 -4.820312 C 3.441406 -3.839844 3.585938 -3.140625 3.875 -2.730469 C 4.148438 -2.335938 4.570312 -2.140625 5.140625 -2.140625 Z M 5.140625 -1.765625 C 4.441406 -1.765625 3.917969 -2.015625 3.566406 -2.515625 C 3.234375 -2.992188 3.066406 -3.761719 3.066406 -4.820312 L 3.066406 -5.097656 C 3.066406 -6.144531 3.234375 -6.90625 3.570312 -7.390625 C 3.925781 -7.890625 4.441406 -8.144531 5.125 -8.144531 C 5.679688 -8.144531 6.125 -7.964844 6.46875 -7.605469 C 6.808594 -7.246094 6.984375 -6.789062 6.996094 -6.226562 L 6.808594 -6.222656 L 6.808594 -6.410156 L 9.292969 -6.410156 L 9.292969 -6.222656 L 9.105469 -6.222656 C 9.09375 -7.339844 8.734375 -8.234375 8.023438 -8.90625 C 7.3125 -9.578125 6.359375 -9.914062 5.167969 -9.914062 C 3.808594 -9.914062 2.738281 -9.476562 1.964844 -8.609375 C 1.183594 -7.734375 0.792969 -6.558594 0.792969 -5.078125 L 0.792969 -4.902344 C 0.792969 -3.363281 1.1875 -2.160156 1.972656 -1.292969 C 2.753906 -0.433594 3.824219 -0.00390625 5.1875 -0.00390625 C 5.914062 -0.00390625 6.582031 -0.152344 7.179688 -0.449219 C 7.777344 -0.742188 8.242188 -1.152344 8.585938 -1.683594 C 8.925781 -2.210938 9.101562 -2.792969 9.105469 -3.429688 L 9.292969 -3.425781 L 9.292969 -3.238281 L 6.808594 -3.238281 L 6.808594 -3.425781 L 6.996094 -3.421875 C 6.984375 -2.921875 6.804688 -2.519531 6.457031 -2.214844 C 6.117188 -1.914062 5.675781 -1.765625 5.140625 -1.765625 Z M 5.140625 -1.765625 "/></g></g></g><g fill="#000000" fill-opacity="1"><g transform="translate(130.22959, 120.763511)"><g><path d="M 6.597656 0.0859375 C 6.464844 -0.171875 6.371094 -0.484375 6.3125 -0.859375 L 6.496094 -0.890625 L 6.636719 -0.761719 C 5.957031 -0.0078125 5.078125 0.371094 3.996094 0.371094 C 2.976562 0.371094 2.132812 0.0742188 1.457031 -0.519531 C 0.777344 -1.117188 0.433594 -1.875 0.433594 -2.785156 C 0.433594 -3.902344 0.851562 -4.757812 1.683594 -5.359375 C 2.492188 -5.945312 3.65625 -6.238281 5.167969 -6.246094 L 6.386719 -6.246094 L 6.386719 -6.058594 L 6.199219 -6.058594 L 6.199219 -6.625 C 6.199219 -7.039062 6.097656 -7.363281 5.890625 -7.605469 C 5.695312 -7.835938 5.371094 -7.949219 4.921875 -7.949219 C 4.519531 -7.949219 4.210938 -7.859375 3.992188 -7.675781 C 3.785156 -7.496094 3.679688 -7.253906 3.679688 -6.9375 L 3.679688 -6.75 L 0.65625 -6.75 L 0.65625 -6.9375 C 0.65625 -7.554688 0.84375 -8.121094 1.222656 -8.644531 C 1.597656 -9.160156 2.125 -9.5625 2.804688 -9.855469 C 3.476562 -10.144531 4.226562 -10.289062 5.058594 -10.289062 C 6.328125 -10.289062 7.339844 -9.964844 8.089844 -9.320312 C 8.851562 -8.667969 9.234375 -7.757812 9.234375 -6.589844 L 9.234375 -2.292969 C 9.238281 -1.382812 9.363281 -0.699219 9.605469 -0.242188 L 9.628906 -0.203125 L 9.628906 0.1875 L 6.648438 0.1875 Z M 6.929688 -0.0859375 L 6.765625 0 L 6.765625 -0.1875 L 9.441406 -0.1875 L 9.441406 0 L 9.253906 0 L 9.253906 -0.15625 L 9.441406 -0.15625 L 9.273438 -0.0664062 C 9.003906 -0.578125 8.863281 -1.320312 8.859375 -2.292969 L 8.859375 -6.589844 C 8.859375 -7.644531 8.519531 -8.460938 7.847656 -9.035156 C 7.164062 -9.621094 6.234375 -9.914062 5.058594 -9.914062 C 4.277344 -9.914062 3.574219 -9.777344 2.953125 -9.511719 C 2.335938 -9.246094 1.859375 -8.882812 1.527344 -8.421875 C 1.195312 -7.964844 1.03125 -7.472656 1.03125 -6.9375 L 0.84375 -6.9375 L 0.84375 -7.125 L 3.492188 -7.125 L 3.492188 -6.9375 L 3.304688 -6.9375 C 3.304688 -7.367188 3.453125 -7.710938 3.75 -7.960938 C 4.039062 -8.203125 4.429688 -8.328125 4.921875 -8.328125 C 5.488281 -8.328125 5.90625 -8.167969 6.179688 -7.847656 C 6.441406 -7.539062 6.574219 -7.128906 6.574219 -6.625 L 6.574219 -5.871094 L 5.167969 -5.871094 C 3.738281 -5.863281 2.648438 -5.59375 1.902344 -5.054688 C 1.175781 -4.527344 0.8125 -3.773438 0.8125 -2.785156 C 0.8125 -1.988281 1.109375 -1.324219 1.703125 -0.800781 C 2.308594 -0.269531 3.070312 -0.00390625 3.996094 -0.00390625 C 4.964844 -0.00390625 5.753906 -0.339844 6.359375 -1.015625 L 6.621094 -1.308594 L 6.683594 -0.917969 C 6.734375 -0.582031 6.816406 -0.304688 6.929688 -0.0859375 Z M 4.574219 -2.03125 C 4.933594 -2.03125 5.265625 -2.109375 5.566406 -2.269531 C 5.863281 -2.425781 6.082031 -2.632812 6.222656 -2.894531 L 6.386719 -2.804688 L 6.199219 -2.804688 L 6.199219 -4.507812 L 6.386719 -4.507812 L 6.386719 -4.320312 L 5.398438 -4.320312 C 4.773438 -4.320312 4.296875 -4.21875 3.976562 -4.007812 C 3.675781 -3.8125 3.503906 -3.515625 3.46875 -3.117188 L 3.28125 -3.132812 L 3.46875 -3.125 L 3.460938 -2.96875 L 3.273438 -2.980469 L 3.460938 -2.980469 C 3.460938 -2.703125 3.554688 -2.476562 3.746094 -2.300781 C 3.945312 -2.121094 4.21875 -2.03125 4.574219 -2.03125 Z M 4.574219 -1.65625 C 4.121094 -1.65625 3.761719 -1.777344 3.492188 -2.023438 C 3.21875 -2.277344 3.085938 -2.59375 3.085938 -2.980469 L 3.085938 -2.984375 L 3.09375 -3.148438 L 3.09375 -3.152344 C 3.140625 -3.671875 3.367188 -4.0625 3.773438 -4.324219 C 4.15625 -4.574219 4.699219 -4.695312 5.398438 -4.695312 L 6.574219 -4.695312 L 6.574219 -2.757812 L 6.554688 -2.714844 C 6.375 -2.386719 6.105469 -2.128906 5.742188 -1.9375 C 5.386719 -1.75 4.996094 -1.65625 4.574219 -1.65625 Z M 4.574219 -1.65625 "/></g></g></g><g fill="#000000" fill-opacity="1"><g transform="translate(141.155058, 120.763511)"><g><path d="M 0.417969 -5.03125 C 0.417969 -6.621094 0.777344 -7.886719 1.496094 -8.839844 C 2.226562 -9.804688 3.226562 -10.289062 4.492188 -10.289062 C 5.511719 -10.289062 6.359375 -9.90625 7.023438 -9.140625 L 6.882812 -9.019531 L 6.695312 -9.019531 L 6.695312 -14.265625 L 9.730469 -14.265625 L 9.730469 0.1875 L 6.984375 0.1875 L 6.835938 -1.03125 L 7.019531 -1.054688 L 7.167969 -0.9375 C 6.46875 -0.0664062 5.570312 0.371094 4.472656 0.371094 C 3.242188 0.371094 2.257812 -0.113281 1.515625 -1.082031 C 0.78125 -2.035156 0.417969 -3.351562 0.417969 -5.03125 Z M 0.792969 -5.03125 C 0.792969 -3.4375 1.132812 -2.195312 1.8125 -1.308594 C 2.480469 -0.441406 3.367188 -0.00390625 4.472656 -0.00390625 C 5.449219 -0.00390625 6.25 -0.394531 6.875 -1.171875 L 7.152344 -1.519531 L 7.335938 -0.0234375 L 7.148438 0 L 7.148438 -0.1875 L 9.539062 -0.1875 L 9.539062 0 L 9.351562 0 L 9.351562 -14.078125 L 9.539062 -14.078125 L 9.539062 -13.890625 L 6.882812 -13.890625 L 6.882812 -14.078125 L 7.070312 -14.078125 L 7.070312 -8.519531 L 6.742188 -8.894531 C 6.148438 -9.574219 5.398438 -9.914062 4.492188 -9.914062 C 3.347656 -9.914062 2.449219 -9.480469 1.792969 -8.613281 C 1.125 -7.730469 0.792969 -6.535156 0.792969 -5.03125 Z M 3.441406 -4.839844 C 3.441406 -3.949219 3.59375 -3.269531 3.894531 -2.804688 C 4.183594 -2.367188 4.601562 -2.148438 5.152344 -2.148438 C 5.527344 -2.148438 5.84375 -2.226562 6.101562 -2.382812 C 6.359375 -2.535156 6.5625 -2.765625 6.714844 -3.078125 L 6.882812 -2.996094 L 6.695312 -2.996094 L 6.695312 -6.910156 L 6.882812 -6.910156 L 6.714844 -6.828125 C 6.566406 -7.140625 6.363281 -7.375 6.109375 -7.527344 C 5.855469 -7.679688 5.539062 -7.757812 5.167969 -7.757812 C 4.601562 -7.757812 4.175781 -7.527344 3.890625 -7.070312 C 3.589844 -6.582031 3.441406 -5.839844 3.441406 -4.839844 Z M 3.066406 -4.839844 C 3.066406 -5.910156 3.234375 -6.71875 3.574219 -7.269531 C 3.929688 -7.84375 4.460938 -8.132812 5.167969 -8.132812 C 5.609375 -8.132812 5.988281 -8.039062 6.304688 -7.847656 C 6.621094 -7.65625 6.871094 -7.371094 7.050781 -6.992188 L 7.070312 -6.953125 L 7.070312 -2.953125 L 7.050781 -2.914062 C 6.867188 -2.535156 6.613281 -2.25 6.292969 -2.058594 C 5.976562 -1.867188 5.59375 -1.773438 5.152344 -1.773438 C 4.464844 -1.773438 3.941406 -2.050781 3.582031 -2.601562 C 3.238281 -3.128906 3.066406 -3.875 3.066406 -4.839844 Z M 3.066406 -4.839844 "/></g></g></g><g fill="#000000" fill-opacity="1"><g transform="translate(152.5937, 120.763511)"><g><path d="M 5.582031 0.371094 C 4.078125 0.371094 2.847656 -0.09375 1.898438 -1.019531 C 0.949219 -1.949219 0.472656 -3.183594 0.472656 -4.71875 L 0.472656 -4.976562 C 0.472656 -6 0.671875 -6.917969 1.070312 -7.730469 C 1.46875 -8.550781 2.039062 -9.179688 2.777344 -9.625 C 3.511719 -10.066406 4.347656 -10.289062 5.289062 -10.289062 C 6.699219 -10.289062 7.8125 -9.839844 8.628906 -8.941406 C 9.441406 -8.050781 9.847656 -6.796875 9.847656 -5.179688 L 9.847656 -3.910156 L 3.34375 -3.910156 L 3.34375 -4.097656 L 3.53125 -4.121094 C 3.609375 -3.519531 3.847656 -3.039062 4.246094 -2.675781 C 4.640625 -2.320312 5.144531 -2.140625 5.753906 -2.140625 C 6.714844 -2.140625 7.460938 -2.484375 8 -3.175781 L 8.136719 -3.355469 L 9.6875 -1.617188 L 9.601562 -1.496094 C 9.1875 -0.90625 8.625 -0.445312 7.914062 -0.117188 C 7.210938 0.207031 6.433594 0.371094 5.582031 0.371094 Z M 5.582031 -0.00390625 C 6.378906 -0.00390625 7.105469 -0.15625 7.757812 -0.460938 C 8.40625 -0.757812 8.917969 -1.175781 9.296875 -1.710938 L 9.449219 -1.605469 L 9.308594 -1.480469 L 8.007812 -2.9375 L 8.148438 -3.0625 L 8.296875 -2.945312 C 7.683594 -2.160156 6.835938 -1.765625 5.753906 -1.765625 C 5.046875 -1.765625 4.460938 -1.976562 3.992188 -2.398438 C 3.527344 -2.820312 3.25 -3.378906 3.160156 -4.070312 L 3.132812 -4.285156 L 9.660156 -4.285156 L 9.660156 -4.097656 L 9.472656 -4.097656 L 9.472656 -5.179688 C 9.472656 -6.699219 9.097656 -7.871094 8.351562 -8.691406 C 7.609375 -9.503906 6.589844 -9.914062 5.289062 -9.914062 C 4.417969 -9.914062 3.644531 -9.707031 2.96875 -9.300781 C 2.296875 -8.894531 1.773438 -8.316406 1.40625 -7.566406 C 1.035156 -6.804688 0.847656 -5.945312 0.847656 -4.976562 L 0.847656 -4.71875 C 0.847656 -3.289062 1.285156 -2.144531 2.160156 -1.289062 C 3.039062 -0.433594 4.179688 -0.00390625 5.582031 -0.00390625 Z M 5.277344 -7.765625 C 4.808594 -7.765625 4.429688 -7.609375 4.136719 -7.296875 C 3.839844 -6.972656 3.644531 -6.496094 3.558594 -5.875 L 3.371094 -5.902344 L 3.371094 -6.089844 L 7.058594 -6.089844 L 7.058594 -5.902344 L 6.871094 -5.902344 L 6.871094 -6.113281 C 6.859375 -6.648438 6.714844 -7.058594 6.445312 -7.34375 C 6.175781 -7.625 5.789062 -7.765625 5.277344 -7.765625 Z M 5.277344 -8.144531 C 5.894531 -8.144531 6.375 -7.964844 6.714844 -7.605469 C 7.054688 -7.246094 7.230469 -6.75 7.246094 -6.113281 L 7.246094 -5.714844 L 3.15625 -5.714844 L 3.1875 -5.929688 C 3.285156 -6.625 3.507812 -7.167969 3.863281 -7.550781 C 4.226562 -7.945312 4.699219 -8.144531 5.277344 -8.144531 Z M 5.277344 -8.144531 "/></g></g></g><g fill="#000000" fill-opacity="1"><g transform="translate(163.601642, 120.763511)"><g><path d="M 3.6875 -9.929688 L 3.769531 -8.820312 L 3.582031 -8.808594 L 3.4375 -8.925781 C 4.179688 -9.832031 5.175781 -10.289062 6.433594 -10.289062 C 7.105469 -10.289062 7.675781 -10.152344 8.144531 -9.882812 C 8.613281 -9.613281 8.980469 -9.207031 9.234375 -8.667969 L 9.0625 -8.585938 L 8.910156 -8.695312 C 9.644531 -9.757812 10.6875 -10.289062 12.042969 -10.289062 C 13.175781 -10.289062 14.023438 -9.953125 14.589844 -9.28125 C 15.144531 -8.621094 15.421875 -7.636719 15.421875 -6.332031 L 15.421875 0.1875 L 12.386719 0.1875 L 12.386719 -6.324219 C 12.386719 -6.839844 12.292969 -7.210938 12.101562 -7.433594 C 11.917969 -7.652344 11.578125 -7.757812 11.082031 -7.757812 C 10.722656 -7.757812 10.421875 -7.675781 10.179688 -7.507812 C 9.933594 -7.339844 9.742188 -7.082031 9.605469 -6.738281 L 9.429688 -6.808594 L 9.617188 -6.808594 L 9.628906 0.1875 L 6.605469 0.1875 L 6.605469 -6.316406 C 6.605469 -6.839844 6.507812 -7.214844 6.3125 -7.4375 C 6.121094 -7.652344 5.785156 -7.757812 5.296875 -7.757812 C 4.621094 -7.757812 4.132812 -7.480469 3.832031 -6.921875 L 3.664062 -7.011719 L 3.855469 -7.011719 L 3.855469 0.1875 L 0.828125 0.1875 L 0.828125 -10.105469 L 3.675781 -10.105469 Z M 3.3125 -9.902344 L 3.5 -9.917969 L 3.5 -9.730469 L 1.015625 -9.730469 L 1.015625 -9.917969 L 1.203125 -9.917969 L 1.203125 0 L 1.015625 0 L 1.015625 -0.1875 L 3.664062 -0.1875 L 3.664062 0 L 3.476562 0 L 3.476562 -7.058594 L 3.5 -7.101562 C 3.871094 -7.789062 4.472656 -8.132812 5.296875 -8.132812 C 5.898438 -8.132812 6.328125 -7.984375 6.59375 -7.683594 C 6.851562 -7.394531 6.980469 -6.9375 6.980469 -6.316406 L 6.980469 0 L 6.792969 0 L 6.792969 -0.1875 L 9.441406 -0.1875 L 9.441406 0 L 9.253906 0 L 9.242188 -6.847656 L 9.257812 -6.878906 C 9.421875 -7.292969 9.660156 -7.605469 9.964844 -7.816406 C 10.273438 -8.027344 10.644531 -8.132812 11.082031 -8.132812 C 11.695312 -8.132812 12.128906 -7.980469 12.386719 -7.679688 C 12.636719 -7.382812 12.761719 -6.933594 12.761719 -6.324219 L 12.761719 0 L 12.574219 0 L 12.574219 -0.1875 L 15.230469 -0.1875 L 15.230469 0 L 15.042969 0 L 15.042969 -6.332031 C 15.042969 -7.546875 14.796875 -8.449219 14.300781 -9.039062 C 13.8125 -9.621094 13.058594 -9.914062 12.042969 -9.914062 C 10.820312 -9.914062 9.878906 -9.433594 9.21875 -8.480469 L 9.035156 -8.214844 L 8.894531 -8.507812 C 8.671875 -8.976562 8.359375 -9.328125 7.957031 -9.558594 C 7.546875 -9.792969 7.039062 -9.914062 6.433594 -9.914062 C 5.296875 -9.914062 4.394531 -9.503906 3.730469 -8.6875 L 3.429688 -8.324219 Z M 3.3125 -9.902344 "/></g></g></g><g fill="#000000" fill-opacity="1"><g transform="translate(180.712687, 120.763511)"><g><path d="M 4.539062 -3.800781 L 6.414062 -10.105469 L 9.660156 -10.105469 L 5.582031 1.605469 L 5.359375 2.136719 L 5.359375 2.140625 C 5.046875 2.820312 4.632812 3.332031 4.113281 3.675781 C 3.59375 4.019531 2.972656 4.191406 2.253906 4.191406 C 1.851562 4.191406 1.441406 4.132812 1.027344 4.011719 L 0.894531 3.972656 L 0.894531 1.632812 L 1.488281 1.644531 L 1.484375 1.832031 L 1.484375 1.644531 C 1.949219 1.644531 2.292969 1.578125 2.507812 1.445312 C 2.722656 1.3125 2.890625 1.089844 3.015625 0.773438 L 3.324219 -0.0390625 L 3.5 0.0273438 L 3.324219 0.0898438 L -0.238281 -10.105469 L 3.019531 -10.105469 L 4.898438 -3.800781 L 4.71875 -3.75 Z M 4.71875 -3.089844 L 2.699219 -9.863281 L 2.878906 -9.917969 L 2.878906 -9.730469 L 0.0273438 -9.730469 L 0.0273438 -9.917969 L 0.203125 -9.976562 L 3.699219 0.03125 L 3.363281 0.914062 C 3.207031 1.304688 2.988281 1.589844 2.707031 1.761719 C 2.429688 1.933594 2.019531 2.019531 1.484375 2.019531 L 1.078125 2.011719 L 1.082031 1.824219 L 1.269531 1.824219 L 1.269531 3.832031 L 1.082031 3.832031 L 1.132812 3.652344 C 1.515625 3.761719 1.886719 3.816406 2.253906 3.816406 C 2.898438 3.816406 3.449219 3.664062 3.90625 3.363281 C 4.363281 3.058594 4.734375 2.597656 5.015625 1.984375 L 5.1875 2.0625 L 5.015625 1.988281 L 5.234375 1.46875 L 5.40625 1.539062 L 5.230469 1.476562 L 9.21875 -9.976562 L 9.394531 -9.917969 L 9.394531 -9.730469 L 6.554688 -9.730469 L 6.554688 -9.917969 L 6.734375 -9.863281 L 4.898438 -3.695312 Z M 4.71875 -3.089844 "/></g></g></g><g fill="#8bc34a" fill-opacity="1"><g transform="translate(27.381999, 98.868887)"><g><path d="M 44.421875 -25.453125 L 44.421875 -15.59375 C 43.242188 -10.195312 40.671875 -6.109375 36.703125 -3.328125 C 32.734375 -0.554688 28.304688 0.828125 23.421875 0.828125 C 17.285156 0.828125 12.054688 -1.46875 7.734375 -6.0625 C 3.421875 -10.65625 1.265625 -16.203125 1.265625 -22.703125 C 1.265625 -29.316406 3.375 -34.898438 7.59375 -39.453125 C 11.820312 -44.015625 17.097656 -46.296875 23.421875 -46.296875 C 30.804688 -46.296875 36.648438 -43.703125 40.953125 -38.515625 L 34.171875 -31.078125 C 31.742188 -34.972656 28.363281 -36.921875 24.03125 -36.921875 C 20.832031 -36.921875 18.101562 -35.535156 15.84375 -32.765625 C 13.582031 -29.992188 12.453125 -26.640625 12.453125 -22.703125 C 12.453125 -18.847656 13.582031 -15.550781 15.84375 -12.8125 C 18.101562 -10.070312 20.832031 -8.703125 24.03125 -8.703125 C 26.675781 -8.703125 28.976562 -9.5 30.9375 -11.09375 C 32.90625 -12.695312 33.890625 -14.820312 33.890625 -17.46875 L 23.421875 -17.46875 L 23.421875 -25.453125 Z M 44.421875 -25.453125 "/></g></g></g><g fill="#8bc34a" fill-opacity="1"><g transform="translate(73.064033, 98.868887)"><g><path d="M 31.90625 -12.78125 L 11.40625 -12.78125 C 11.40625 -10.800781 12.046875 -9.332031 13.328125 -8.375 C 14.617188 -7.414062 16.019531 -6.9375 17.53125 -6.9375 C 19.101562 -6.9375 20.347656 -7.148438 21.265625 -7.578125 C 22.191406 -8.003906 23.238281 -8.835938 24.40625 -10.078125 L 31.46875 -6.5625 C 28.53125 -1.632812 23.644531 0.828125 16.8125 0.828125 C 12.550781 0.828125 8.894531 -0.628906 5.84375 -3.546875 C 2.789062 -6.472656 1.265625 -9.992188 1.265625 -14.109375 C 1.265625 -18.222656 2.789062 -21.75 5.84375 -24.6875 C 8.894531 -27.625 12.550781 -29.09375 16.8125 -29.09375 C 21.289062 -29.09375 24.9375 -27.796875 27.75 -25.203125 C 30.5625 -22.617188 31.96875 -18.921875 31.96875 -14.109375 C 31.96875 -13.441406 31.945312 -13 31.90625 -12.78125 Z M 11.6875 -18.1875 L 22.421875 -18.1875 C 22.203125 -19.65625 21.625 -20.785156 20.6875 -21.578125 C 19.75 -22.367188 18.546875 -22.765625 17.078125 -22.765625 C 15.460938 -22.765625 14.175781 -22.335938 13.21875 -21.484375 C 12.269531 -20.640625 11.757812 -19.539062 11.6875 -18.1875 Z M 11.6875 -18.1875 "/></g></g></g><g fill="#8bc34a" fill-opacity="1"><g transform="translate(106.292338, 98.868887)"><g><path d="M 3.3125 0 L 3.3125 -28.265625 L 13.0625 -28.265625 L 13.0625 -24.1875 L 13.171875 -24.1875 C 13.242188 -24.332031 13.363281 -24.515625 13.53125 -24.734375 C 13.695312 -24.960938 14.054688 -25.351562 14.609375 -25.90625 C 15.160156 -26.457031 15.742188 -26.953125 16.359375 -27.390625 C 16.984375 -27.828125 17.789062 -28.21875 18.78125 -28.5625 C 19.78125 -28.914062 20.796875 -29.09375 21.828125 -29.09375 C 22.890625 -29.09375 23.929688 -28.945312 24.953125 -28.65625 C 25.984375 -28.363281 26.738281 -28.070312 27.21875 -27.78125 L 28 -27.328125 L 23.921875 -19.0625 C 22.703125 -20.09375 21.007812 -20.609375 18.84375 -20.609375 C 17.664062 -20.609375 16.65625 -20.347656 15.8125 -19.828125 C 14.96875 -19.316406 14.367188 -18.691406 14.015625 -17.953125 C 13.671875 -17.222656 13.425781 -16.601562 13.28125 -16.09375 C 13.132812 -15.582031 13.0625 -15.175781 13.0625 -14.875 L 13.0625 0 Z M 3.3125 0 "/></g></g></g><g fill="#8bc34a" fill-opacity="1"><g transform="translate(133.734614, 98.868887)"><g><path d="M 3.3125 0 L 3.3125 -28.265625 L 13.0625 -28.265625 L 13.0625 -25.296875 L 13.171875 -25.296875 C 15.703125 -27.828125 18.398438 -29.09375 21.265625 -29.09375 C 23.328125 -29.09375 25.257812 -28.671875 27.0625 -27.828125 C 28.863281 -26.984375 30.222656 -25.679688 31.140625 -23.921875 C 34.003906 -27.367188 37.125 -29.09375 40.5 -29.09375 C 43.519531 -29.09375 46.113281 -28.25 48.28125 -26.5625 C 50.445312 -24.875 51.53125 -22.226562 51.53125 -18.625 L 51.53125 0 L 41.765625 0 L 41.765625 -15.984375 C 41.765625 -17.484375 41.351562 -18.738281 40.53125 -19.75 C 39.707031 -20.757812 38.46875 -21.265625 36.8125 -21.265625 C 35.375 -21.265625 34.28125 -20.832031 33.53125 -19.96875 C 32.78125 -19.113281 32.367188 -18.078125 32.296875 -16.859375 L 32.296875 0 L 22.546875 0 L 22.546875 -15.984375 C 22.546875 -17.484375 22.128906 -18.738281 21.296875 -19.75 C 20.472656 -20.757812 19.234375 -21.265625 17.578125 -21.265625 C 16.078125 -21.265625 14.945312 -20.796875 14.1875 -19.859375 C 13.4375 -18.929688 13.0625 -17.820312 13.0625 -16.53125 L 13.0625 0 Z M 3.3125 0 "/></g></g></g><g fill="#8bc34a" fill-opacity="1"><g transform="translate(188.013024, 98.868887)"><g><path d="M 5.234375 -3.5 C 2.585938 -6.382812 1.265625 -9.921875 1.265625 -14.109375 C 1.265625 -18.296875 2.585938 -21.835938 5.234375 -24.734375 C 7.878906 -27.640625 11.242188 -29.09375 15.328125 -29.09375 C 19.066406 -29.09375 22.148438 -27.921875 24.578125 -25.578125 L 24.578125 -28.265625 L 34.328125 -28.265625 L 34.328125 0 L 24.6875 0 L 24.6875 -3.203125 L 24.578125 -3.203125 C 22.148438 -0.515625 19.066406 0.828125 15.328125 0.828125 C 11.242188 0.828125 7.878906 -0.613281 5.234375 -3.5 Z M 13.53125 -18.90625 C 12.257812 -17.65625 11.625 -16.054688 11.625 -14.109375 C 11.625 -12.160156 12.226562 -10.570312 13.4375 -9.34375 C 14.65625 -8.113281 16.253906 -7.5 18.234375 -7.5 C 20.148438 -7.5 21.722656 -8.125 22.953125 -9.375 C 24.179688 -10.625 24.796875 -12.203125 24.796875 -14.109375 C 24.796875 -16.054688 24.160156 -17.65625 22.890625 -18.90625 C 21.628906 -20.15625 20.078125 -20.78125 18.234375 -20.78125 C 16.367188 -20.78125 14.800781 -20.15625 13.53125 -18.90625 Z M 13.53125 -18.90625 "/></g></g></g><g fill="#8bc34a" fill-opacity="1"><g transform="translate(225.64973, 98.868887)"><g><path d="M 3.3125 0 L 3.3125 -28.265625 L 13.0625 -28.265625 L 13.0625 -25.296875 L 13.171875 -25.296875 C 15.703125 -27.828125 18.398438 -29.09375 21.265625 -29.09375 C 22.660156 -29.09375 24.046875 -28.910156 25.421875 -28.546875 C 26.804688 -28.179688 28.128906 -27.613281 29.390625 -26.84375 C 30.660156 -26.070312 31.691406 -24.976562 32.484375 -23.5625 C 33.273438 -22.144531 33.671875 -20.5 33.671875 -18.625 L 33.671875 0 L 23.921875 0 L 23.921875 -15.984375 C 23.921875 -17.453125 23.453125 -18.738281 22.515625 -19.84375 C 21.578125 -20.945312 20.351562 -21.5 18.84375 -21.5 C 17.375 -21.5 16.039062 -20.925781 14.84375 -19.78125 C 13.65625 -18.644531 13.0625 -17.378906 13.0625 -15.984375 L 13.0625 0 Z M 3.3125 0 "/></g></g></g><g fill="#8bc34a" fill-opacity="1"><g transform="translate(26.540439, 98.562582)"><g><path d="M 44.710938 -25.460938 L 44.710938 -15.5625 L 44.703125 -15.53125 C 43.511719 -10.058594 40.898438 -5.910156 36.871094 -3.09375 C 32.851562 -0.285156 28.367188 1.121094 23.421875 1.121094 C 17.199219 1.121094 11.902344 -1.207031 7.527344 -5.859375 C 3.160156 -10.511719 0.976562 -16.125 0.976562 -22.703125 C 0.976562 -29.394531 3.113281 -35.042969 7.390625 -39.65625 C 11.671875 -44.273438 17.015625 -46.582031 23.421875 -46.582031 C 30.898438 -46.582031 36.8125 -43.957031 41.171875 -38.707031 L 41.332031 -38.511719 L 34.121094 -30.597656 L 33.917969 -30.925781 C 31.550781 -34.726562 28.253906 -36.628906 24.027344 -36.628906 C 20.921875 -36.628906 18.269531 -35.277344 16.070312 -32.578125 C 13.855469 -29.855469 12.746094 -26.566406 12.746094 -22.703125 C 12.746094 -18.917969 13.855469 -15.683594 16.070312 -13 C 18.269531 -10.332031 20.921875 -9 24.027344 -9 C 26.601562 -9 28.847656 -9.777344 30.757812 -11.332031 C 32.652344 -12.871094 33.597656 -14.917969 33.597656 -17.46875 L 33.890625 -17.46875 L 33.890625 -17.175781 L 23.128906 -17.175781 L 23.128906 -25.753906 L 44.710938 -25.753906 Z M 44.125 -25.460938 L 44.417969 -25.460938 L 44.417969 -25.167969 L 23.421875 -25.167969 L 23.421875 -25.460938 L 23.714844 -25.460938 L 23.714844 -17.46875 L 23.421875 -17.46875 L 23.421875 -17.761719 L 34.183594 -17.761719 L 34.183594 -17.46875 C 34.183594 -14.730469 33.164062 -12.535156 31.128906 -10.878906 C 29.109375 -9.234375 26.742188 -8.414062 24.027344 -8.414062 C 20.738281 -8.414062 17.9375 -9.816406 15.617188 -12.625 C 13.3125 -15.417969 12.160156 -18.777344 12.160156 -22.703125 C 12.160156 -26.703125 13.3125 -30.117188 15.617188 -32.945312 C 17.933594 -35.792969 20.738281 -37.214844 24.027344 -37.214844 C 28.46875 -37.214844 31.933594 -35.222656 34.414062 -31.234375 L 34.167969 -31.082031 L 33.949219 -31.277344 L 40.726562 -38.71875 L 40.945312 -38.519531 L 40.71875 -38.332031 C 36.480469 -43.441406 30.714844 -45.996094 23.421875 -45.996094 C 17.1875 -45.996094 11.988281 -43.75 7.820312 -39.257812 C 3.648438 -34.757812 1.558594 -29.242188 1.558594 -22.703125 C 1.558594 -16.277344 3.691406 -10.796875 7.957031 -6.261719 C 12.214844 -1.730469 17.371094 0.535156 23.421875 0.535156 C 28.246094 0.535156 32.617188 -0.835938 36.535156 -3.574219 C 40.4375 -6.304688 42.972656 -10.332031 44.128906 -15.65625 L 44.417969 -15.59375 L 44.125 -15.59375 Z M 44.125 -25.460938 "/></g></g></g><g fill="#8bc34a" fill-opacity="1"><g transform="translate(72.222472, 98.562582)"><g><path d="M 31.90625 -12.492188 L 11.40625 -12.492188 L 11.40625 -12.785156 L 11.699219 -12.785156 C 11.699219 -10.898438 12.304688 -9.507812 13.511719 -8.613281 C 14.746094 -7.695312 16.082031 -7.234375 17.523438 -7.234375 C 19.0625 -7.234375 20.269531 -7.4375 21.148438 -7.84375 C 22.03125 -8.25 23.050781 -9.0625 24.199219 -10.285156 L 24.347656 -10.445312 L 31.878906 -6.679688 L 31.71875 -6.40625 C 28.722656 -1.390625 23.75 1.121094 16.808594 1.121094 C 12.46875 1.121094 8.746094 -0.367188 5.640625 -3.34375 C 2.53125 -6.320312 0.976562 -9.910156 0.976562 -14.109375 C 0.976562 -18.304688 2.527344 -21.902344 5.636719 -24.898438 C 8.746094 -27.894531 12.46875 -29.390625 16.808594 -29.390625 C 21.367188 -29.390625 25.078125 -28.070312 27.945312 -25.425781 C 30.820312 -22.777344 32.253906 -19.003906 32.253906 -14.109375 C 32.253906 -13.429688 32.234375 -12.972656 32.195312 -12.738281 L 32.15625 -12.492188 Z M 31.90625 -13.078125 L 31.90625 -12.785156 L 31.617188 -12.832031 C 31.652344 -13.039062 31.667969 -13.460938 31.667969 -14.109375 C 31.667969 -18.835938 30.296875 -22.464844 27.546875 -24.996094 C 24.792969 -27.535156 21.214844 -28.804688 16.808594 -28.804688 C 12.625 -28.804688 9.039062 -27.363281 6.042969 -24.476562 C 3.054688 -21.597656 1.558594 -18.140625 1.558594 -14.109375 C 1.558594 -10.074219 3.054688 -6.628906 6.042969 -3.765625 C 9.035156 -0.898438 12.625 0.535156 16.808594 0.535156 C 23.53125 0.535156 28.332031 -1.878906 31.214844 -6.707031 L 31.464844 -6.558594 L 31.335938 -6.296875 L 24.28125 -9.824219 L 24.414062 -10.085938 L 24.625 -9.882812 C 23.425781 -8.605469 22.347656 -7.75 21.394531 -7.3125 C 20.4375 -6.871094 19.148438 -6.652344 17.523438 -6.652344 C 15.953125 -6.652344 14.5 -7.148438 13.160156 -8.140625 C 11.796875 -9.15625 11.113281 -10.703125 11.113281 -12.785156 L 11.113281 -13.078125 Z M 11.683594 -18.476562 L 22.429688 -18.476562 L 22.429688 -18.183594 L 22.140625 -18.140625 C 21.929688 -19.539062 21.382812 -20.609375 20.503906 -21.351562 C 19.621094 -22.09375 18.480469 -22.464844 17.082031 -22.464844 C 15.539062 -22.464844 14.320312 -22.070312 13.417969 -21.273438 C 12.527344 -20.480469 12.042969 -19.449219 11.976562 -18.167969 L 11.683594 -18.183594 Z M 11.683594 -17.894531 L 11.375 -17.894531 L 11.390625 -18.203125 C 11.46875 -19.640625 12.015625 -20.8125 13.03125 -21.710938 C 14.042969 -22.605469 15.394531 -23.050781 17.082031 -23.050781 C 18.625 -23.050781 19.890625 -22.632812 20.882812 -21.796875 C 21.875 -20.960938 22.488281 -19.769531 22.71875 -18.230469 L 22.769531 -17.894531 Z M 11.683594 -17.894531 "/></g></g></g><g fill="#8bc34a" fill-opacity="1"><g transform="translate(105.450777, 98.562582)"><g><path d="M 3.011719 0 L 3.011719 -28.5625 L 13.351562 -28.5625 L 13.351562 -24.191406 L 13.058594 -24.191406 L 13.058594 -24.484375 L 13.171875 -24.484375 L 13.171875 -24.191406 L 12.910156 -24.324219 C 12.988281 -24.484375 13.117188 -24.683594 13.292969 -24.917969 C 13.46875 -25.152344 13.835938 -25.546875 14.394531 -26.109375 C 14.960938 -26.671875 15.558594 -27.175781 16.199219 -27.628906 C 16.84375 -28.085938 17.675781 -28.492188 18.695312 -28.847656 C 19.71875 -29.210938 20.761719 -29.390625 21.824219 -29.390625 C 22.914062 -29.390625 23.988281 -29.238281 25.042969 -28.9375 C 26.097656 -28.636719 26.875 -28.332031 27.375 -28.023438 L 27.222656 -27.773438 L 27.367188 -28.027344 L 28.378906 -27.449219 L 24.011719 -18.601562 L 23.726562 -18.84375 C 22.570312 -19.828125 20.941406 -20.316406 18.847656 -20.316406 C 17.726562 -20.316406 16.765625 -20.074219 15.96875 -19.589844 C 15.171875 -19.105469 14.613281 -18.523438 14.289062 -17.839844 C 13.945312 -17.121094 13.703125 -16.507812 13.5625 -16.011719 C 13.421875 -15.523438 13.351562 -15.144531 13.351562 -14.878906 L 13.351562 0.292969 L 3.011719 0.292969 Z M 3.597656 0 L 3.304688 0 L 3.304688 -0.292969 L 13.058594 -0.292969 L 13.058594 0 L 12.769531 0 L 12.769531 -14.878906 C 12.769531 -15.199219 12.84375 -15.632812 13 -16.171875 C 13.152344 -16.703125 13.40625 -17.339844 13.761719 -18.089844 C 14.132812 -18.878906 14.769531 -19.542969 15.664062 -20.089844 C 16.554688 -20.632812 17.617188 -20.902344 18.847656 -20.902344 C 21.085938 -20.902344 22.839844 -20.367188 24.105469 -19.289062 L 23.917969 -19.066406 L 23.652344 -19.195312 L 27.730469 -27.460938 L 27.996094 -27.332031 L 27.847656 -27.078125 L 27.074219 -27.523438 L 27.070312 -27.523438 C 26.613281 -27.804688 25.886719 -28.085938 24.882812 -28.375 C 23.882812 -28.660156 22.859375 -28.804688 21.824219 -28.804688 C 20.828125 -28.804688 19.847656 -28.636719 18.890625 -28.296875 C 17.921875 -27.957031 17.136719 -27.574219 16.535156 -27.148438 C 15.925781 -26.71875 15.351562 -26.234375 14.808594 -25.695312 C 14.269531 -25.152344 13.921875 -24.777344 13.761719 -24.566406 C 13.609375 -24.359375 13.5 -24.191406 13.433594 -24.0625 L 13.351562 -23.898438 L 12.769531 -23.898438 L 12.769531 -28.269531 L 13.058594 -28.269531 L 13.058594 -27.976562 L 3.304688 -27.976562 L 3.304688 -28.269531 L 3.597656 -28.269531 Z M 3.597656 0 "/></g></g></g><g fill="#8bc34a" fill-opacity="1"><g transform="translate(132.893053, 98.562582)"><g><path d="M 3.011719 0 L 3.011719 -28.5625 L 13.351562 -28.5625 L 13.351562 -25.292969 L 13.058594 -25.292969 L 13.058594 -25.585938 L 13.171875 -25.585938 L 13.171875 -25.292969 L 12.964844 -25.5 C 15.554688 -28.09375 18.324219 -29.390625 21.273438 -29.390625 C 23.371094 -29.390625 25.34375 -28.957031 27.183594 -28.09375 C 29.042969 -27.222656 30.445312 -25.875 31.394531 -24.050781 L 31.136719 -23.917969 L 30.910156 -24.105469 C 33.835938 -27.628906 37.03125 -29.390625 40.503906 -29.390625 C 43.582031 -29.390625 46.234375 -28.523438 48.453125 -26.792969 C 50.695312 -25.042969 51.816406 -22.320312 51.816406 -18.625 L 51.816406 0.292969 L 41.480469 0.292969 L 41.480469 -15.980469 C 41.480469 -17.417969 41.085938 -18.613281 40.304688 -19.570312 C 39.535156 -20.507812 38.371094 -20.980469 36.8125 -20.980469 C 35.46875 -20.980469 34.449219 -20.582031 33.753906 -19.785156 C 33.042969 -18.972656 32.65625 -17.992188 32.585938 -16.84375 L 32.292969 -16.863281 L 32.585938 -16.863281 L 32.585938 0.292969 L 22.246094 0.292969 L 22.246094 -15.980469 C 22.246094 -17.417969 21.855469 -18.613281 21.074219 -19.570312 C 20.304688 -20.507812 19.140625 -20.980469 17.578125 -20.980469 C 16.167969 -20.980469 15.113281 -20.546875 14.417969 -19.683594 C 13.707031 -18.800781 13.351562 -17.75 13.351562 -16.53125 L 13.351562 0.292969 L 3.011719 0.292969 Z M 3.597656 0 L 3.304688 0 L 3.304688 -0.292969 L 13.058594 -0.292969 L 13.058594 0 L 12.769531 0 L 12.769531 -16.53125 C 12.769531 -17.886719 13.164062 -19.058594 13.960938 -20.050781 C 14.773438 -21.058594 15.980469 -21.5625 17.578125 -21.5625 C 19.324219 -21.5625 20.640625 -21.023438 21.527344 -19.941406 C 22.394531 -18.878906 22.832031 -17.558594 22.832031 -15.980469 L 22.832031 0 L 22.539062 0 L 22.539062 -0.292969 L 32.292969 -0.292969 L 32.292969 0 L 32 0 L 32 -16.878906 C 32.078125 -18.160156 32.515625 -19.253906 33.3125 -20.167969 C 34.125 -21.097656 35.289062 -21.5625 36.8125 -21.5625 C 38.558594 -21.5625 39.871094 -21.023438 40.757812 -19.941406 C 41.628906 -18.878906 42.0625 -17.558594 42.0625 -15.980469 L 42.0625 0 L 41.769531 0 L 41.769531 -0.292969 L 51.527344 -0.292969 L 51.527344 0 L 51.234375 0 L 51.234375 -18.625 C 51.234375 -22.132812 50.1875 -24.699219 48.09375 -26.332031 C 45.980469 -27.980469 43.449219 -28.804688 40.503906 -28.804688 C 37.214844 -28.804688 34.167969 -27.113281 31.359375 -23.730469 L 31.078125 -23.390625 L 30.875 -23.78125 C 29.988281 -25.488281 28.675781 -26.746094 26.933594 -27.5625 C 25.171875 -28.390625 23.285156 -28.804688 21.273438 -28.804688 C 18.488281 -28.804688 15.855469 -27.566406 13.378906 -25.085938 L 13.292969 -25 L 12.769531 -25 L 12.769531 -28.269531 L 13.058594 -28.269531 L 13.058594 -27.976562 L 3.304688 -27.976562 L 3.304688 -28.269531 L 3.597656 -28.269531 Z M 3.597656 0 "/></g></g></g><g fill="#8bc34a" fill-opacity="1"><g transform="translate(187.171464, 98.562582)"><g><path d="M 5.019531 -3.300781 C 2.324219 -6.242188 0.976562 -9.84375 0.976562 -14.109375 C 0.976562 -18.371094 2.324219 -21.980469 5.019531 -24.941406 C 7.722656 -27.90625 11.15625 -29.390625 15.320312 -29.390625 C 19.144531 -29.390625 22.300781 -28.1875 24.78125 -25.78125 L 24.578125 -25.570312 L 24.285156 -25.570312 L 24.285156 -28.5625 L 34.625 -28.5625 L 34.625 0.292969 L 24.394531 0.292969 L 24.394531 -3.195312 L 24.6875 -3.195312 L 24.6875 -2.902344 L 24.578125 -2.902344 L 24.578125 -3.195312 L 24.796875 -3 C 22.3125 -0.253906 19.152344 1.121094 15.320312 1.121094 C 11.15625 1.121094 7.722656 -0.355469 5.019531 -3.300781 Z M 5.449219 -3.695312 C 8.039062 -0.875 11.328125 0.535156 15.320312 0.535156 C 18.980469 0.535156 21.996094 -0.773438 24.359375 -3.394531 L 24.449219 -3.488281 L 24.980469 -3.488281 L 24.980469 0 L 24.6875 0 L 24.6875 -0.292969 L 34.332031 -0.292969 L 34.332031 0 L 34.039062 0 L 34.039062 -28.269531 L 34.332031 -28.269531 L 34.332031 -27.976562 L 24.578125 -27.976562 L 24.578125 -28.269531 L 24.871094 -28.269531 L 24.871094 -24.878906 L 24.375 -25.359375 C 22.007812 -27.65625 18.988281 -28.804688 15.320312 -28.804688 C 11.328125 -28.804688 8.039062 -27.382812 5.453125 -24.546875 C 2.855469 -21.699219 1.558594 -18.21875 1.558594 -14.109375 C 1.558594 -9.996094 2.855469 -6.523438 5.449219 -3.695312 Z M 13.734375 -18.691406 C 12.523438 -17.5 11.921875 -15.972656 11.921875 -14.109375 C 11.921875 -12.242188 12.5 -10.71875 13.65625 -9.546875 C 14.808594 -8.375 16.339844 -7.789062 18.242188 -7.789062 C 20.070312 -7.789062 21.570312 -8.382812 22.742188 -9.574219 C 23.917969 -10.765625 24.503906 -12.277344 24.503906 -14.109375 C 24.503906 -15.972656 23.902344 -17.5 22.691406 -18.691406 C 21.480469 -19.886719 19.996094 -20.484375 18.242188 -20.484375 C 16.445312 -20.484375 14.945312 -19.886719 13.734375 -18.691406 Z M 13.324219 -19.109375 C 14.648438 -20.414062 16.285156 -21.066406 18.242188 -21.066406 C 20.15625 -21.066406 21.777344 -20.414062 23.101562 -19.109375 C 24.429688 -17.804688 25.089844 -16.136719 25.089844 -14.109375 C 25.089844 -12.117188 24.449219 -10.46875 23.160156 -9.164062 C 21.871094 -7.855469 20.234375 -7.203125 18.242188 -7.203125 C 16.175781 -7.203125 14.507812 -7.847656 13.238281 -9.136719 C 11.96875 -10.421875 11.335938 -12.082031 11.335938 -14.109375 C 11.335938 -16.136719 11.996094 -17.804688 13.324219 -19.109375 Z M 13.324219 -19.109375 "/></g></g></g><g fill="#8bc34a" fill-opacity="1"><g transform="translate(224.80817, 98.562582)"><g><path d="M 3.011719 0 L 3.011719 -28.5625 L 13.351562 -28.5625 L 13.351562 -25.292969 L 13.058594 -25.292969 L 13.058594 -25.585938 L 13.171875 -25.585938 L 13.171875 -25.292969 L 12.964844 -25.5 C 15.554688 -28.09375 18.324219 -29.390625 21.273438 -29.390625 C 22.691406 -29.390625 24.105469 -29.203125 25.507812 -28.828125 C 26.914062 -28.453125 28.261719 -27.875 29.550781 -27.085938 C 30.863281 -26.289062 31.925781 -25.160156 32.742188 -23.703125 C 33.554688 -22.242188 33.964844 -20.550781 33.964844 -18.625 L 33.964844 0.292969 L 23.625 0.292969 L 23.625 -15.980469 C 23.625 -17.378906 23.179688 -18.601562 22.289062 -19.648438 C 21.410156 -20.683594 20.261719 -21.199219 18.847656 -21.199219 C 17.457031 -21.199219 16.191406 -20.65625 15.054688 -19.570312 C 13.921875 -18.492188 13.351562 -17.292969 13.351562 -15.980469 L 13.351562 0.292969 L 3.011719 0.292969 Z M 3.597656 0 L 3.304688 0 L 3.304688 -0.292969 L 13.058594 -0.292969 L 13.058594 0 L 12.769531 0 L 12.769531 -15.980469 C 12.769531 -17.460938 13.394531 -18.800781 14.648438 -19.996094 C 15.898438 -21.1875 17.300781 -21.785156 18.847656 -21.785156 C 20.441406 -21.785156 21.738281 -21.199219 22.734375 -20.027344 C 23.71875 -18.871094 24.210938 -17.523438 24.210938 -15.980469 L 24.210938 0 L 23.917969 0 L 23.917969 -0.292969 L 33.671875 -0.292969 L 33.671875 0 L 33.378906 0 L 33.378906 -18.625 C 33.378906 -20.449219 32.996094 -22.046875 32.230469 -23.414062 C 31.464844 -24.785156 30.472656 -25.84375 29.246094 -26.585938 C 28.003906 -27.34375 26.707031 -27.902344 25.355469 -28.261719 C 24.003906 -28.625 22.640625 -28.804688 21.273438 -28.804688 C 18.488281 -28.804688 15.855469 -27.566406 13.378906 -25.085938 L 13.292969 -25 L 12.769531 -25 L 12.769531 -28.269531 L 13.058594 -28.269531 L 13.058594 -27.976562 L 3.304688 -27.976562 L 3.304688 -28.269531 L 3.597656 -28.269531 Z M 3.597656 0 "/></g></g></g></svg>