<svg xmlns="http://www.w3.org/2000/svg" xmlns:xlink="http://www.w3.org/1999/xlink" width="350" zoomAndPan="magnify" viewBox="0 0 262.5 142.499996" height="190" preserveAspectRatio="xMidYMid meet" version="1.0"><defs><g/><clipPath id="6fe8c2eb6b"><path d="M 0.957031 3.75 L 15.15625 3.75 L 15.15625 137.53125 L 0.957031 137.53125 Z M 0.957031 3.75 " clip-rule="nonzero"/></clipPath><clipPath id="40022a48c0"><path d="M 0.957031 3.75 L 15.15625 3.75 L 15.15625 137.53125 L 0.957031 137.53125 Z M 0.957031 3.75 " clip-rule="nonzero"/></clipPath><clipPath id="9b047d176e"><path d="M 21 50 L 261.792969 50 L 261.792969 106 L 21 106 Z M 21 50 " clip-rule="nonzero"/></clipPath><clipPath id="6a8b96190c"><path d="M 103 115 L 107 115 L 107 119 L 103 119 Z M 103 115 " clip-rule="nonzero"/></clipPath><clipPath id="29572313c3"><path d="M 95.117188 122.527344 L 90.597656 110.652344 L 102.472656 106.132812 L 106.992188 118.007812 Z M 95.117188 122.527344 " clip-rule="nonzero"/></clipPath><clipPath id="49c9069bda"><path d="M 95.117188 122.527344 L 90.597656 110.652344 L 102.472656 106.132812 L 106.992188 118.007812 Z M 95.117188 122.527344 " clip-rule="nonzero"/></clipPath><clipPath id="d5a824aa99"><path d="M 98 109 L 106 109 L 106 121 L 98 121 Z M 98 109 " clip-rule="nonzero"/></clipPath><clipPath id="a5fc5346cb"><path d="M 95.117188 122.527344 L 90.597656 110.652344 L 102.472656 106.132812 L 106.992188 118.007812 Z M 95.117188 122.527344 " clip-rule="nonzero"/></clipPath><clipPath id="9719f41377"><path d="M 95.117188 122.527344 L 90.597656 110.652344 L 102.472656 106.132812 L 106.992188 118.007812 Z M 95.117188 122.527344 " clip-rule="nonzero"/></clipPath><clipPath id="cec92eadd8"><path d="M 94 106 L 104 106 L 104 123 L 94 123 Z M 94 106 " clip-rule="nonzero"/></clipPath><clipPath id="a17453b095"><path d="M 95.117188 122.527344 L 90.597656 110.652344 L 102.472656 106.132812 L 106.992188 118.007812 Z M 95.117188 122.527344 " clip-rule="nonzero"/></clipPath><clipPath id="32f9180231"><path d="M 95.117188 122.527344 L 90.597656 110.652344 L 102.472656 106.132812 L 106.992188 118.007812 Z M 95.117188 122.527344 " clip-rule="nonzero"/></clipPath><clipPath id="8f0690d688"><path d="M 9.773438 125 L 109.921875 125 L 109.921875 140 L 9.773438 140 Z M 9.773438 125 " clip-rule="nonzero"/></clipPath></defs><g fill="#000000" fill-opacity="1"><g transform="translate(24.649581, 50.878866)"><g><path d="M 3.359375 -46.21875 L 20.234375 -46.21875 C 24.929688 -46.21875 28.738281 -45.003906 31.65625 -42.578125 C 34.570312 -40.148438 36.03125 -36.617188 36.03125 -31.984375 C 36.03125 -27.359375 34.550781 -23.726562 31.59375 -21.09375 C 28.644531 -18.457031 24.859375 -17.140625 20.234375 -17.140625 L 13.890625 -17.140625 L 13.890625 0 L 3.359375 0 Z M 13.890625 -25.546875 L 16.859375 -25.546875 C 19.210938 -25.546875 21.144531 -26.019531 22.65625 -26.96875 C 24.175781 -27.925781 24.9375 -29.488281 24.9375 -31.65625 C 24.9375 -33.863281 24.175781 -35.441406 22.65625 -36.390625 C 21.144531 -37.347656 19.210938 -37.828125 16.859375 -37.828125 L 13.890625 -37.828125 Z M 13.890625 -25.546875 "/></g></g></g><g fill="#000000" fill-opacity="1"><g transform="translate(61.969367, 50.878866)"><g><path d="M 3.359375 0 L 3.359375 -28.75 L 13.28125 -28.75 L 13.28125 -24.59375 L 13.390625 -24.59375 C 13.460938 -24.75 13.582031 -24.9375 13.75 -25.15625 C 13.914062 -25.382812 14.28125 -25.773438 14.84375 -26.328125 C 15.40625 -26.890625 16.003906 -27.394531 16.640625 -27.84375 C 17.273438 -28.289062 18.097656 -28.691406 19.109375 -29.046875 C 20.117188 -29.398438 21.144531 -29.578125 22.1875 -29.578125 C 23.269531 -29.578125 24.332031 -29.425781 25.375 -29.125 C 26.425781 -28.832031 27.191406 -28.535156 27.671875 -28.234375 L 28.46875 -27.796875 L 24.3125 -19.390625 C 23.082031 -20.429688 21.363281 -20.953125 19.15625 -20.953125 C 17.96875 -20.953125 16.941406 -20.691406 16.078125 -20.171875 C 15.222656 -19.648438 14.617188 -19.015625 14.265625 -18.265625 C 13.910156 -17.515625 13.65625 -16.878906 13.5 -16.359375 C 13.351562 -15.835938 13.28125 -15.425781 13.28125 -15.125 L 13.28125 0 Z M 3.359375 0 "/></g></g></g><g fill="#000000" fill-opacity="1"><g transform="translate(89.875147, 50.878866)"><g><path d="M 6.078125 -3.40625 C 2.878906 -6.25 1.28125 -9.894531 1.28125 -14.34375 C 1.28125 -18.789062 2.941406 -22.441406 6.265625 -25.296875 C 9.597656 -28.148438 13.710938 -29.578125 18.609375 -29.578125 C 23.421875 -29.578125 27.476562 -28.140625 30.78125 -25.265625 C 34.09375 -22.390625 35.75 -18.75 35.75 -14.34375 C 35.75 -9.9375 34.128906 -6.300781 30.890625 -3.4375 C 27.660156 -0.582031 23.566406 0.84375 18.609375 0.84375 C 13.453125 0.84375 9.273438 -0.570312 6.078125 -3.40625 Z M 13.75 -19.21875 C 12.46875 -17.945312 11.828125 -16.320312 11.828125 -14.34375 C 11.828125 -12.363281 12.441406 -10.75 13.671875 -9.5 C 14.898438 -8.25 16.523438 -7.625 18.546875 -7.625 C 20.484375 -7.625 22.078125 -8.257812 23.328125 -9.53125 C 24.585938 -10.800781 25.21875 -12.40625 25.21875 -14.34375 C 25.21875 -16.320312 24.570312 -17.945312 23.28125 -19.21875 C 21.988281 -20.488281 20.410156 -21.125 18.546875 -21.125 C 16.640625 -21.125 15.039062 -20.488281 13.75 -19.21875 Z M 13.75 -19.21875 "/></g></g></g><g fill="#000000" fill-opacity="1"><g transform="translate(126.91475, 50.878866)"><g><path d="M 5.046875 -28.75 L 5.046875 -39.453125 L 14.953125 -39.453125 L 14.953125 -28.75 L 21.015625 -28.75 L 21.015625 -21.1875 L 14.953125 -21.1875 L 14.953125 -12.046875 C 14.953125 -9.390625 15.703125 -8.0625 17.203125 -8.0625 C 17.578125 -8.0625 17.96875 -8.132812 18.375 -8.28125 C 18.789062 -8.4375 19.109375 -8.585938 19.328125 -8.734375 L 19.671875 -8.96875 L 22.125 -0.953125 C 20 0.242188 17.570312 0.84375 14.84375 0.84375 C 12.976562 0.84375 11.375 0.515625 10.03125 -0.140625 C 8.6875 -0.796875 7.664062 -1.671875 6.96875 -2.765625 C 6.28125 -3.867188 5.785156 -5.023438 5.484375 -6.234375 C 5.191406 -7.453125 5.046875 -8.753906 5.046875 -10.140625 L 5.046875 -21.1875 L 0.890625 -21.1875 L 0.890625 -28.75 Z M 5.046875 -28.75 "/></g></g></g><g fill="#000000" fill-opacity="1"><g transform="translate(149.048854, 50.878866)"><g><path d="M 4.3125 -44.765625 C 5.46875 -45.921875 6.847656 -46.5 8.453125 -46.5 C 10.066406 -46.5 11.453125 -45.921875 12.609375 -44.765625 C 13.765625 -43.609375 14.34375 -42.226562 14.34375 -40.625 C 14.34375 -39.019531 13.765625 -37.632812 12.609375 -36.46875 C 11.453125 -35.3125 10.066406 -34.734375 8.453125 -34.734375 C 6.847656 -34.734375 5.46875 -35.3125 4.3125 -36.46875 C 3.15625 -37.632812 2.578125 -39.019531 2.578125 -40.625 C 2.578125 -42.226562 3.15625 -43.609375 4.3125 -44.765625 Z M 3.359375 -28.75 L 3.359375 0 L 13.28125 0 L 13.28125 -28.75 Z M 3.359375 -28.75 "/></g></g></g><g fill="#000000" fill-opacity="1"><g transform="translate(165.971639, 50.878866)"><g><path d="M 5.3125 -3.546875 C 2.625 -6.484375 1.28125 -10.082031 1.28125 -14.34375 C 1.28125 -18.601562 2.625 -22.207031 5.3125 -25.15625 C 8.007812 -28.101562 11.429688 -29.578125 15.578125 -29.578125 C 19.390625 -29.578125 22.523438 -28.382812 24.984375 -26 L 24.984375 -48.1875 L 34.90625 -48.1875 L 34.90625 0 L 25.109375 0 L 25.109375 -3.25 L 24.984375 -3.25 C 22.523438 -0.519531 19.390625 0.84375 15.578125 0.84375 C 11.429688 0.84375 8.007812 -0.617188 5.3125 -3.546875 Z M 13.75 -19.21875 C 12.46875 -17.945312 11.828125 -16.320312 11.828125 -14.34375 C 11.828125 -12.363281 12.441406 -10.75 13.671875 -9.5 C 14.898438 -8.25 16.523438 -7.625 18.546875 -7.625 C 20.484375 -7.625 22.078125 -8.257812 23.328125 -9.53125 C 24.585938 -10.800781 25.21875 -12.40625 25.21875 -14.34375 C 25.21875 -16.320312 24.570312 -17.945312 23.28125 -19.21875 C 21.988281 -20.488281 20.410156 -21.125 18.546875 -21.125 C 16.640625 -21.125 15.039062 -20.488281 13.75 -19.21875 Z M 13.75 -19.21875 "/></g></g></g><g fill="#000000" fill-opacity="1"><g transform="translate(204.244034, 50.878866)"><g><path d="M 4.3125 -44.765625 C 5.46875 -45.921875 6.847656 -46.5 8.453125 -46.5 C 10.066406 -46.5 11.453125 -45.921875 12.609375 -44.765625 C 13.765625 -43.609375 14.34375 -42.226562 14.34375 -40.625 C 14.34375 -39.019531 13.765625 -37.632812 12.609375 -36.46875 C 11.453125 -35.3125 10.066406 -34.734375 8.453125 -34.734375 C 6.847656 -34.734375 5.46875 -35.3125 4.3125 -36.46875 C 3.15625 -37.632812 2.578125 -39.019531 2.578125 -40.625 C 2.578125 -42.226562 3.15625 -43.609375 4.3125 -44.765625 Z M 3.359375 -28.75 L 3.359375 0 L 13.28125 0 L 13.28125 -28.75 Z M 3.359375 -28.75 "/></g></g></g><g fill="#000000" fill-opacity="1"><g transform="translate(221.166809, 50.878866)"><g><path d="M 3.359375 0 L 3.359375 -28.75 L 13.28125 -28.75 L 13.28125 -25.71875 L 13.390625 -25.71875 C 15.960938 -28.289062 18.707031 -29.578125 21.625 -29.578125 C 23.039062 -29.578125 24.445312 -29.390625 25.84375 -29.015625 C 27.25 -28.648438 28.597656 -28.070312 29.890625 -27.28125 C 31.179688 -26.5 32.226562 -25.390625 33.03125 -23.953125 C 33.832031 -22.515625 34.234375 -20.84375 34.234375 -18.9375 L 34.234375 0 L 24.3125 0 L 24.3125 -16.25 C 24.3125 -17.738281 23.832031 -19.046875 22.875 -20.171875 C 21.925781 -21.296875 20.6875 -21.859375 19.15625 -21.859375 C 17.664062 -21.859375 16.3125 -21.273438 15.09375 -20.109375 C 13.882812 -18.953125 13.28125 -17.664062 13.28125 -16.25 L 13.28125 0 Z M 3.359375 0 "/></g></g></g><path stroke-linecap="butt" transform="matrix(0.671841, 0, 0, 0.671841, 23.793806, 10.92877)" fill="none" stroke-linejoin="miter" d="M 5.010635 -9.80727 L 30.116556 -9.80727 C 37.122724 -9.80727 42.791616 -8.004854 47.12323 -4.394206 C 51.466473 -0.783558 53.641002 4.472522 53.641002 11.368219 C 53.641002 18.263917 51.437402 23.676982 47.041831 27.601599 C 42.657888 31.520402 37.012254 33.485617 30.116556 33.485617 L 20.691661 33.485617 L 20.691661 58.998536 L 5.010635 58.998536 Z M 20.691661 20.961728 L 25.110489 20.961728 C 28.610666 20.961728 31.488719 20.25239 33.744647 18.845342 C 35.99476 17.415037 37.122724 15.095152 37.122724 11.879873 C 37.122724 8.594823 35.99476 6.245867 33.744647 4.833005 C 31.488719 3.408514 28.610666 2.693362 25.110489 2.693362 L 20.691661 2.693362 Z M 60.559957 58.998536 L 60.559957 16.217302 L 75.322331 16.217302 L 75.322331 22.386219 L 75.48513 22.386219 C 75.595601 22.153649 75.770028 21.874565 76.014227 21.548967 C 76.270054 21.211741 76.816593 20.630316 77.642216 19.798878 C 78.485282 18.955813 79.374862 18.205775 80.310956 17.537136 C 81.258678 16.874312 82.485484 16.275444 83.973932 15.746348 C 85.485636 15.217251 87.014783 14.95561 88.578816 14.95561 C 90.195176 14.95561 91.776652 15.176552 93.323242 15.624249 C 94.887274 16.071946 96.026867 16.519643 96.742019 16.96734 L 97.928126 17.618536 L 91.753395 30.142425 C 89.910278 28.584207 87.352009 27.805097 84.078588 27.805097 C 82.299428 27.805097 80.764467 28.194652 79.473704 28.98539 C 78.200384 29.758685 77.299175 30.700593 76.770079 31.816928 C 76.252611 32.927449 75.880499 33.869358 75.647929 34.642653 C 75.432802 35.415947 75.322331 36.032258 75.322331 36.479955 L 75.322331 58.998536 Z M 106.126215 53.911069 C 101.375975 49.684111 98.997947 44.271047 98.997947 37.660247 C 98.997947 31.032005 101.469003 25.595683 106.411113 21.345468 C 111.364852 17.083625 117.487255 14.95561 124.778321 14.95561 C 131.947288 14.95561 137.988292 17.095253 142.901331 21.386168 C 147.831813 25.665454 150.297054 31.090147 150.297054 37.660247 C 150.297054 44.218718 147.889955 49.620154 143.087387 53.870369 C 138.279004 58.11477 132.179858 60.242785 124.778321 60.242785 C 117.109329 60.242785 110.893898 58.132213 106.126215 53.911069 Z M 117.551211 30.386623 C 115.638324 32.276254 114.678973 34.700795 114.678973 37.660247 C 114.678973 40.602256 115.597624 43.009355 117.429112 44.869914 C 119.272229 46.724659 121.69677 47.654939 124.696922 47.654939 C 127.592417 47.654939 129.96463 46.713031 131.825189 44.829214 C 133.685748 42.927955 134.616028 40.532485 134.616028 37.63699 C 134.616028 34.694981 133.656677 32.276254 131.74379 30.386623 C 129.830902 28.502807 127.481946 27.560899 124.696922 27.560899 C 121.859569 27.560899 119.475727 28.502807 117.551211 30.386623 Z M 159.727763 16.217302 L 159.727763 0.268821 L 174.495952 0.268821 L 174.495952 16.217302 L 183.496408 16.217302 L 183.496408 27.4795 L 174.495952 27.4795 L 174.495952 41.061582 C 174.495952 45.009456 175.600659 46.9863 177.815888 46.9863 C 178.368241 46.9863 178.95548 46.875829 179.565976 46.660702 C 180.188101 46.428132 180.664869 46.207191 180.990467 45.98625 L 181.502121 45.660652 L 185.165097 57.574045 C 181.990517 59.353205 178.368241 60.242785 174.309896 60.242785 C 171.542315 60.242785 169.152659 59.760202 167.140929 58.795037 C 165.146642 57.818243 163.634938 56.510038 162.600002 54.864606 C 161.57088 53.224988 160.83247 51.498156 160.384773 49.69574 C 159.948705 47.887509 159.727763 45.962993 159.727763 43.910563 L 159.727763 27.4795 L 153.558847 27.4795 L 153.558847 16.217302 Z M 191.578212 -7.650184 C 193.299229 -9.377016 195.357473 -10.237525 197.747128 -10.237525 C 200.148413 -10.237525 202.212471 -9.377016 203.939302 -7.650184 C 205.660319 -5.929167 206.520828 -3.865109 206.520828 -1.458011 C 206.520828 0.931645 205.660319 2.984074 203.939302 4.710906 C 202.212471 6.420295 200.148413 7.274989 197.747128 7.274989 C 195.357473 7.274989 193.299229 6.420295 191.578212 4.710906 C 189.85138 2.984074 188.990872 0.931645 188.990872 -1.458011 C 188.990872 -3.865109 189.85138 -5.929167 191.578212 -7.650184 Z M 190.171164 16.217302 L 190.171164 58.998536 L 204.933538 58.998536 L 204.933538 16.217302 Z M 218.271422 53.70757 C 214.265406 49.335256 212.265305 43.980334 212.265305 37.63699 C 212.265305 31.29946 214.265406 25.938724 218.271422 21.548967 C 222.277439 17.153396 227.364906 14.95561 233.545451 14.95561 C 239.208528 14.95561 243.877369 16.728956 247.557788 20.287275 L 247.557788 -12.743465 L 262.320162 -12.743465 L 262.320162 58.998536 L 247.720586 58.998536 L 247.720586 54.155267 L 247.557788 54.155267 C 243.877369 58.213612 239.208528 60.242785 233.545451 60.242785 C 227.364906 60.242785 222.277439 58.062442 218.271422 53.70757 Z M 230.818569 30.386623 C 228.899867 32.276254 227.94633 34.700795 227.94633 37.660247 C 227.94633 40.602256 228.859167 43.009355 230.696469 44.869914 C 232.539586 46.724659 234.964127 47.654939 237.964279 47.654939 C 240.85396 47.654939 243.231987 46.713031 245.092547 44.829214 C 246.953106 42.927955 247.883385 40.532485 247.883385 37.63699 C 247.883385 34.694981 246.924035 32.276254 245.011147 30.386623 C 243.09826 28.502807 240.749304 27.560899 237.964279 27.560899 C 235.126926 27.560899 232.743085 28.502807 230.818569 30.386623 Z M 273.73353 -7.650184 C 275.454547 -9.377016 277.512791 -10.237525 279.902447 -10.237525 C 282.303731 -10.237525 284.367789 -9.377016 286.094621 -7.650184 C 287.815638 -5.929167 288.676146 -3.865109 288.676146 -1.458011 C 288.676146 0.931645 287.815638 2.984074 286.094621 4.710906 C 284.367789 6.420295 282.303731 7.274989 279.902447 7.274989 C 277.512791 7.274989 275.454547 6.420295 273.73353 4.710906 C 272.006699 2.984074 271.14619 0.931645 271.14619 -1.458011 C 271.14619 -3.865109 272.006699 -5.929167 273.73353 -7.650184 Z M 272.326482 16.217302 L 272.326482 58.998536 L 287.088857 58.998536 L 287.088857 16.217302 Z M 297.513803 58.998536 L 297.513803 16.217302 L 312.276177 16.217302 L 312.276177 20.71753 L 312.438976 20.71753 C 316.282194 16.874312 320.36961 14.95561 324.701225 14.95561 C 326.817611 14.95561 328.916554 15.22888 330.99224 15.787048 C 333.08537 16.345215 335.085471 17.205724 336.998358 18.374388 C 338.928688 19.543052 340.486907 21.200112 341.684642 23.345569 C 342.876562 25.485213 343.47543 27.979525 343.47543 30.816878 L 343.47543 58.998536 L 328.713055 58.998536 L 328.713055 34.805451 C 328.713055 32.578595 327.997903 30.64245 326.573412 28.98539 C 325.16055 27.316701 323.317434 26.479449 321.032434 26.479449 C 318.811392 26.479449 316.793848 27.339958 314.985617 29.066789 C 313.1832 30.787806 312.276177 32.700694 312.276177 34.805451 L 312.276177 58.998536 Z M 297.513803 58.998536 " stroke="#000000" stroke-width="0.886303" stroke-opacity="1" stroke-miterlimit="4"/><g fill="#000000" fill-opacity="1"><g transform="translate(258.208814, 50.878866)"><g/></g></g><g clip-path="url(#6fe8c2eb6b)"><path fill="#000000" d="M 15.257812 13.675781 C 15.257812 13.4375 15.0625 13.242188 14.824219 13.242188 L 14 13.242188 L 14 4.382812 C 14 4.144531 13.804688 3.949219 13.5625 3.949219 L 6.277344 3.949219 C 6.039062 3.949219 5.84375 4.144531 5.84375 4.382812 L 5.84375 13.242188 L 5.015625 13.242188 C 4.777344 13.242188 4.582031 13.4375 4.582031 13.675781 L 4.582031 16.003906 C 2.546875 16.222656 0.957031 17.949219 0.957031 20.039062 L 0.957031 62.4375 C 0.957031 64.53125 2.546875 66.257812 4.582031 66.472656 L 4.582031 118.453125 C 4.582031 118.46875 4.589844 118.488281 4.59375 118.503906 C 4.59375 118.519531 4.589844 118.535156 4.59375 118.546875 L 8 133.566406 L 8.558594 136.03125 C 8.703125 136.679688 9.253906 137.117188 9.921875 137.117188 C 10.585938 137.117188 11.136719 136.679688 11.28125 136.03125 L 11.84375 133.566406 L 15.246094 118.546875 C 15.25 118.535156 15.246094 118.519531 15.246094 118.503906 C 15.25 118.488281 15.257812 118.46875 15.257812 118.453125 Z M 15.257812 13.675781 " fill-opacity="1" fill-rule="nonzero"/></g><path fill="#000000" d="M 9.078125 20.039062 L 9.078125 62.4375 C 9.078125 64.53125 7.488281 66.257812 5.453125 66.472656 L 5.453125 118.015625 L 14.386719 118.015625 L 14.386719 14.109375 L 5.453125 14.109375 L 5.453125 16.003906 C 7.488281 16.222656 9.078125 17.949219 9.078125 20.039062 Z M 9.078125 20.039062 " fill-opacity="1" fill-rule="nonzero"/><path fill="#8bc34a" d="M 14.277344 118.886719 L 11.070312 133.035156 L 8.769531 133.035156 L 5.5625 118.886719 Z M 13.128906 4.820312 L 6.710938 4.820312 L 6.710938 13.167969 L 13.128906 13.167969 Z M 13.128906 4.820312 " fill-opacity="1" fill-rule="nonzero"/><path fill="#8bc34a" d="M 9.40625 135.835938 L 8.96875 133.90625 L 10.871094 133.90625 L 10.433594 135.835938 C 10.367188 136.140625 10.125 136.246094 9.921875 136.246094 C 9.71875 136.246094 9.476562 136.140625 9.40625 135.835938 Z M 5.015625 65.628906 C 6.777344 65.628906 8.207031 64.199219 8.207031 62.4375 L 8.207031 20.039062 C 8.207031 18.28125 6.777344 16.851562 5.015625 16.851562 C 3.257812 16.851562 1.828125 18.28125 1.828125 20.039062 L 1.828125 62.4375 C 1.828125 64.199219 3.257812 65.628906 5.015625 65.628906 Z M 5.015625 65.628906 " fill-opacity="1" fill-rule="nonzero"/><g clip-path="url(#40022a48c0)"><path fill="#000000" d="M 15.257812 13.675781 C 15.257812 13.4375 15.0625 13.242188 14.824219 13.242188 L 14 13.242188 L 14 4.382812 C 14 4.144531 13.804688 3.949219 13.5625 3.949219 L 6.277344 3.949219 C 6.039062 3.949219 5.84375 4.144531 5.84375 4.382812 L 5.84375 13.242188 L 5.015625 13.242188 C 4.777344 13.242188 4.582031 13.4375 4.582031 13.675781 L 4.582031 16.003906 C 2.546875 16.222656 0.957031 17.949219 0.957031 20.039062 L 0.957031 62.4375 C 0.957031 64.53125 2.546875 66.257812 4.582031 66.472656 L 4.582031 118.453125 C 4.582031 118.46875 4.589844 118.488281 4.59375 118.503906 C 4.59375 118.519531 4.589844 118.535156 4.59375 118.546875 L 8 133.566406 L 8.558594 136.03125 C 8.703125 136.679688 9.253906 137.117188 9.921875 137.117188 C 10.585938 137.117188 11.136719 136.679688 11.28125 136.03125 L 11.84375 133.566406 L 15.246094 118.546875 C 15.25 118.535156 15.246094 118.519531 15.246094 118.503906 C 15.25 118.488281 15.257812 118.46875 15.257812 118.453125 Z M 6.710938 4.820312 L 13.128906 4.820312 L 13.128906 13.167969 L 6.710938 13.167969 Z M 1.828125 62.4375 L 1.828125 20.039062 C 1.828125 18.28125 3.257812 16.851562 5.015625 16.851562 C 6.777344 16.851562 8.207031 18.28125 8.207031 20.039062 L 8.207031 62.4375 C 8.207031 64.199219 6.777344 65.628906 5.015625 65.628906 C 3.257812 65.628906 1.828125 64.199219 1.828125 62.4375 Z M 10.433594 135.835938 C 10.367188 136.140625 10.125 136.246094 9.921875 136.246094 C 9.714844 136.246094 9.476562 136.140625 9.40625 135.835938 L 8.96875 133.90625 L 10.871094 133.90625 Z M 11.070312 133.035156 L 8.769531 133.035156 L 5.5625 118.886719 L 14.277344 118.886719 Z M 5.453125 118.015625 L 5.453125 66.472656 C 7.488281 66.257812 9.078125 64.53125 9.078125 62.4375 L 9.078125 20.039062 C 9.078125 17.949219 7.488281 16.222656 5.453125 16.003906 L 5.453125 14.109375 L 14.386719 14.109375 L 14.386719 118.015625 Z M 5.453125 118.015625 " fill-opacity="1" fill-rule="nonzero"/></g><g fill="#8bc34a" fill-opacity="1"><g transform="translate(24.649581, 101.260929)"><g><path d="M 45.15625 -25.890625 L 45.15625 -15.859375 C 43.96875 -10.367188 41.351562 -6.210938 37.3125 -3.390625 C 33.28125 -0.566406 28.78125 0.84375 23.8125 0.84375 C 17.570312 0.84375 12.253906 -1.488281 7.859375 -6.15625 C 3.472656 -10.832031 1.28125 -16.472656 1.28125 -23.078125 C 1.28125 -29.804688 3.425781 -35.484375 7.71875 -40.109375 C 12.019531 -44.742188 17.382812 -47.0625 23.8125 -47.0625 C 31.320312 -47.0625 37.257812 -44.429688 41.625 -39.171875 L 34.734375 -31.609375 C 32.273438 -35.566406 28.835938 -37.546875 24.421875 -37.546875 C 21.179688 -37.546875 18.410156 -36.132812 16.109375 -33.3125 C 13.804688 -30.488281 12.65625 -27.078125 12.65625 -23.078125 C 12.65625 -19.160156 13.804688 -15.8125 16.109375 -13.03125 C 18.410156 -10.25 21.179688 -8.859375 24.421875 -8.859375 C 27.117188 -8.859375 29.460938 -9.671875 31.453125 -11.296875 C 33.453125 -12.921875 34.453125 -15.078125 34.453125 -17.765625 L 23.8125 -17.765625 L 23.8125 -25.890625 Z M 45.15625 -25.890625 "/></g></g></g><g fill="#8bc34a" fill-opacity="1"><g transform="translate(71.10319, 101.260929)"><g><path d="M 32.4375 -13 L 11.59375 -13 C 11.59375 -10.976562 12.242188 -9.484375 13.546875 -8.515625 C 14.859375 -7.546875 16.28125 -7.0625 17.8125 -7.0625 C 19.425781 -7.0625 20.695312 -7.273438 21.625 -7.703125 C 22.5625 -8.128906 23.628906 -8.976562 24.828125 -10.25 L 32 -6.671875 C 29.007812 -1.660156 24.039062 0.84375 17.09375 0.84375 C 12.757812 0.84375 9.039062 -0.640625 5.9375 -3.609375 C 2.832031 -6.578125 1.28125 -10.15625 1.28125 -14.34375 C 1.28125 -18.53125 2.832031 -22.113281 5.9375 -25.09375 C 9.039062 -28.082031 12.757812 -29.578125 17.09375 -29.578125 C 21.644531 -29.578125 25.347656 -28.257812 28.203125 -25.625 C 31.066406 -23 32.5 -19.238281 32.5 -14.34375 C 32.5 -13.664062 32.476562 -13.21875 32.4375 -13 Z M 11.875 -18.484375 L 22.8125 -18.484375 C 22.582031 -19.984375 21.988281 -21.132812 21.03125 -21.9375 C 20.082031 -22.738281 18.863281 -23.140625 17.375 -23.140625 C 15.726562 -23.140625 14.414062 -22.707031 13.4375 -21.84375 C 12.46875 -20.988281 11.945312 -19.867188 11.875 -18.484375 Z M 11.875 -18.484375 "/></g></g></g><g fill="#8bc34a" fill-opacity="1"><g transform="translate(104.892725, 101.260929)"><g><path d="M 3.359375 0 L 3.359375 -28.75 L 13.28125 -28.75 L 13.28125 -24.59375 L 13.390625 -24.59375 C 13.460938 -24.75 13.582031 -24.9375 13.75 -25.15625 C 13.914062 -25.382812 14.28125 -25.773438 14.84375 -26.328125 C 15.40625 -26.890625 16.003906 -27.394531 16.640625 -27.84375 C 17.273438 -28.289062 18.097656 -28.691406 19.109375 -29.046875 C 20.117188 -29.398438 21.144531 -29.578125 22.1875 -29.578125 C 23.269531 -29.578125 24.332031 -29.425781 25.375 -29.125 C 26.425781 -28.832031 27.191406 -28.535156 27.671875 -28.234375 L 28.46875 -27.796875 L 24.3125 -19.390625 C 23.082031 -20.429688 21.363281 -20.953125 19.15625 -20.953125 C 17.96875 -20.953125 16.941406 -20.691406 16.078125 -20.171875 C 15.222656 -19.648438 14.617188 -19.015625 14.265625 -18.265625 C 13.910156 -17.515625 13.65625 -16.878906 13.5 -16.359375 C 13.351562 -15.835938 13.28125 -15.425781 13.28125 -15.125 L 13.28125 0 Z M 3.359375 0 "/></g></g></g><g fill="#8bc34a" fill-opacity="1"><g transform="translate(132.798505, 101.260929)"><g><path d="M 3.359375 0 L 3.359375 -28.75 L 13.28125 -28.75 L 13.28125 -25.71875 L 13.390625 -25.71875 C 15.960938 -28.289062 18.707031 -29.578125 21.625 -29.578125 C 23.71875 -29.578125 25.675781 -29.144531 27.5 -28.28125 C 29.332031 -27.425781 30.71875 -26.101562 31.65625 -24.3125 C 34.570312 -27.820312 37.75 -29.578125 41.1875 -29.578125 C 44.25 -29.578125 46.878906 -28.71875 49.078125 -27 C 51.285156 -25.28125 52.390625 -22.59375 52.390625 -18.9375 L 52.390625 0 L 42.46875 0 L 42.46875 -16.25 C 42.46875 -17.78125 42.046875 -19.054688 41.203125 -20.078125 C 40.367188 -21.109375 39.109375 -21.625 37.421875 -21.625 C 35.972656 -21.625 34.863281 -21.1875 34.09375 -20.3125 C 33.332031 -19.4375 32.910156 -18.378906 32.828125 -17.140625 L 32.828125 0 L 22.921875 0 L 22.921875 -16.25 C 22.921875 -17.78125 22.5 -19.054688 21.65625 -20.078125 C 20.8125 -21.109375 19.550781 -21.625 17.875 -21.625 C 16.34375 -21.625 15.191406 -21.144531 14.421875 -20.1875 C 13.660156 -19.238281 13.28125 -18.113281 13.28125 -16.8125 L 13.28125 0 Z M 3.359375 0 "/></g></g></g><g fill="#8bc34a" fill-opacity="1"><g transform="translate(187.993685, 101.260929)"><g><path d="M 5.3125 -3.546875 C 2.625 -6.484375 1.28125 -10.082031 1.28125 -14.34375 C 1.28125 -18.601562 2.625 -22.207031 5.3125 -25.15625 C 8.007812 -28.101562 11.429688 -29.578125 15.578125 -29.578125 C 19.390625 -29.578125 22.523438 -28.382812 24.984375 -26 L 24.984375 -28.75 L 34.90625 -28.75 L 34.90625 0 L 25.109375 0 L 25.109375 -3.25 L 24.984375 -3.25 C 22.523438 -0.519531 19.390625 0.84375 15.578125 0.84375 C 11.429688 0.84375 8.007812 -0.617188 5.3125 -3.546875 Z M 13.75 -19.21875 C 12.46875 -17.945312 11.828125 -16.320312 11.828125 -14.34375 C 11.828125 -12.363281 12.441406 -10.75 13.671875 -9.5 C 14.898438 -8.25 16.523438 -7.625 18.546875 -7.625 C 20.484375 -7.625 22.078125 -8.257812 23.328125 -9.53125 C 24.585938 -10.800781 25.21875 -12.40625 25.21875 -14.34375 C 25.21875 -16.320312 24.570312 -17.945312 23.28125 -19.21875 C 21.988281 -20.488281 20.410156 -21.125 18.546875 -21.125 C 16.640625 -21.125 15.039062 -20.488281 13.75 -19.21875 Z M 13.75 -19.21875 "/></g></g></g><g fill="#8bc34a" fill-opacity="1"><g transform="translate(226.266079, 101.260929)"><g><path d="M 3.359375 0 L 3.359375 -28.75 L 13.28125 -28.75 L 13.28125 -25.71875 L 13.390625 -25.71875 C 15.960938 -28.289062 18.707031 -29.578125 21.625 -29.578125 C 23.039062 -29.578125 24.445312 -29.390625 25.84375 -29.015625 C 27.25 -28.648438 28.597656 -28.070312 29.890625 -27.28125 C 31.179688 -26.5 32.226562 -25.390625 33.03125 -23.953125 C 33.832031 -22.515625 34.234375 -20.84375 34.234375 -18.9375 L 34.234375 0 L 24.3125 0 L 24.3125 -16.25 C 24.3125 -17.738281 23.832031 -19.046875 22.875 -20.171875 C 21.925781 -21.296875 20.6875 -21.859375 19.15625 -21.859375 C 17.664062 -21.859375 16.3125 -21.273438 15.09375 -20.109375 C 13.882812 -18.953125 13.28125 -17.664062 13.28125 -16.25 L 13.28125 0 Z M 3.359375 0 "/></g></g></g><g clip-path="url(#9b047d176e)"><path stroke-linecap="butt" transform="matrix(0.671841, 0, 0, 0.671841, 23.793806, 61.310833)" fill="none" stroke-linejoin="miter" d="M 67.223084 20.474447 L 67.223084 35.39962 C 65.443925 43.568638 61.554193 49.754998 55.553889 53.94707 C 49.553586 58.144957 42.849758 60.2439 35.454035 60.2439 C 26.168682 60.2439 18.255491 56.76698 11.708648 49.81314 C 5.179248 42.865114 1.911641 34.469341 1.911641 24.62582 C 1.911641 14.6195 5.109477 6.171398 11.50515 -0.7243 C 17.900822 -7.625812 25.883784 -11.07366 35.454035 -11.07366 C 46.629019 -11.07366 55.466676 -7.149043 61.967004 0.700191 L 51.7223 11.962388 C 48.047696 6.066741 42.925344 3.118918 36.366872 3.118918 C 31.535233 3.118918 27.407117 5.217861 23.988339 9.415748 C 20.569562 13.607821 18.854359 18.677844 18.854359 24.62582 C 18.854359 30.474953 20.569562 35.475206 23.988339 39.61495 C 27.407117 43.754694 31.535233 45.824566 36.366872 45.824566 C 40.372889 45.824566 43.861437 44.615203 46.838332 42.20229 C 49.809413 39.771935 51.29786 36.556656 51.29786 32.568082 L 35.454035 32.568082 L 35.454035 20.474447 Z M 117.446555 39.65565 L 86.410101 39.65565 C 86.410101 42.655801 87.381081 44.882658 89.323039 46.33622 C 91.276627 47.772339 93.398827 48.493306 95.678012 48.493306 C 98.067668 48.493306 99.951484 48.173522 101.341089 47.533955 C 102.72488 46.894388 104.31217 45.626882 106.102958 43.725623 L 116.772102 49.080545 C 112.324203 56.522782 104.922666 60.2439 94.579119 60.2439 C 88.131119 60.2439 82.595955 58.034486 77.979442 53.621472 C 73.368744 49.19683 71.060488 43.876793 71.060488 37.661363 C 71.060488 31.428489 73.368744 26.085196 77.979442 21.631482 C 82.595955 17.177769 88.131119 14.950912 94.579119 14.950912 C 101.364346 14.950912 106.882067 16.916127 111.132282 20.840745 C 115.394126 24.759547 117.527954 30.364482 117.527954 37.638106 C 117.527954 38.643971 117.498883 39.312609 117.446555 39.65565 Z M 86.817099 31.469189 L 103.091178 31.469189 C 102.748137 29.242332 101.876 27.532944 100.463138 26.335208 C 99.050276 25.143288 97.230416 24.54442 95.003559 24.54442 C 92.561575 24.54442 90.613802 25.189802 89.16024 26.480565 C 87.724121 27.753885 86.939198 29.41676 86.817099 31.469189 Z M 124.446909 58.999651 L 124.446909 16.218418 L 139.209284 16.218418 L 139.209284 22.387334 L 139.372083 22.387334 C 139.482553 22.154764 139.656981 21.875681 139.901179 21.550083 C 140.16282 21.212856 140.703545 20.625617 141.534983 19.799994 C 142.372234 18.956928 143.261814 18.20689 144.197908 17.538252 C 145.151445 16.875428 146.372437 16.27656 147.866698 15.747464 C 149.372588 15.218367 150.90755 14.950912 152.465768 14.950912 C 154.082129 14.950912 155.663604 15.177667 157.210194 15.625364 C 158.774227 16.073062 159.913819 16.520759 160.634786 16.968456 L 161.815078 17.619651 L 155.646162 30.143541 C 153.797231 28.585322 151.238962 27.800399 147.965541 27.800399 C 146.186381 27.800399 144.657234 28.195768 143.366471 28.986505 C 142.087336 29.7598 141.186128 30.701708 140.657031 31.81223 C 140.139563 32.928565 139.767451 33.870473 139.534882 34.643768 C 139.319754 35.417063 139.209284 36.027559 139.209284 36.475256 L 139.209284 58.999651 Z M 165.983894 58.999651 L 165.983894 16.218418 L 180.746268 16.218418 L 180.746268 20.718645 L 180.909067 20.718645 C 184.752285 16.875428 188.839701 14.950912 193.171316 14.950912 C 196.276124 14.950912 199.194876 15.596293 201.927572 16.887056 C 204.654455 18.166191 206.712698 20.131406 208.096489 22.794332 C 212.439732 17.567323 217.17253 14.950912 222.289067 14.950912 C 226.835809 14.950912 230.754612 16.23586 234.039662 18.799944 C 237.324712 21.352398 238.96433 25.358415 238.96433 30.817993 L 238.96433 58.999651 L 224.201955 58.999651 L 224.201955 34.806567 C 224.201955 32.527382 223.574016 30.626123 222.312324 29.108605 C 221.062261 27.573643 219.190074 26.806163 216.689947 26.806163 C 214.515418 26.806163 212.858358 27.457358 211.718765 28.75975 C 210.579173 30.062141 209.957048 31.637802 209.846578 33.486733 L 209.846578 58.999651 L 195.084203 58.999651 L 195.084203 34.806567 C 195.084203 32.527382 194.456264 30.626123 193.212015 29.108605 C 191.961952 27.573643 190.089764 26.806163 187.589638 26.806163 C 185.310453 26.806163 183.59525 27.515501 182.455657 28.945806 C 181.316065 30.352854 180.746268 32.033171 180.746268 33.97513 L 180.746268 58.999651 Z M 251.05215 53.702872 C 247.046134 49.336372 245.046033 43.975636 245.046033 37.638106 C 245.046033 31.300576 247.046134 25.934025 251.05215 21.550083 C 255.058167 17.154512 260.145634 14.950912 266.326179 14.950912 C 271.983442 14.950912 276.652282 16.730071 280.332701 20.288391 L 280.332701 16.218418 L 295.095076 16.218418 L 295.095076 58.999651 L 280.4955 58.999651 L 280.4955 54.150569 L 280.332701 54.150569 C 276.652282 58.214728 271.983442 60.2439 266.326179 60.2439 C 260.145634 60.2439 255.058167 58.063558 251.05215 53.702872 Z M 263.593482 30.387739 C 261.680595 32.27737 260.721244 34.701911 260.721244 37.661363 C 260.721244 40.603372 261.639895 43.010471 263.471383 44.865216 C 265.320314 46.725775 267.744855 47.656054 270.745007 47.656054 C 273.634688 47.656054 276.006901 46.714146 277.86746 44.824516 C 279.728019 42.929071 280.658299 40.527787 280.658299 37.638106 C 280.658299 34.690282 279.704762 32.27737 277.786061 30.387739 C 275.873173 28.503923 273.524217 27.5562 270.745007 27.5562 C 267.907654 27.5562 265.523813 28.503923 263.593482 30.387739 Z M 305.10721 58.999651 L 305.10721 16.218418 L 319.869585 16.218418 L 319.869585 20.718645 L 320.032384 20.718645 C 323.875601 16.875428 327.957203 14.950912 332.288818 14.950912 C 334.411018 14.950912 336.504147 15.229996 338.585648 15.788163 C 340.672963 16.346331 342.678878 17.20684 344.591766 18.375504 C 346.516281 19.544167 348.080314 21.195414 349.272235 23.340871 C 350.46997 25.486328 351.068837 27.980641 351.068837 30.817993 L 351.068837 58.999651 L 336.300648 58.999651 L 336.300648 34.806567 C 336.300648 32.57971 335.59131 30.637752 334.16682 28.986505 C 332.753957 27.312002 330.905027 26.480565 328.625842 26.480565 C 326.398985 26.480565 324.381441 27.341073 322.579024 29.067905 C 320.770793 30.788922 319.869585 32.70181 319.869585 34.806567 L 319.869585 58.999651 Z M 305.10721 58.999651 " stroke="#8bc34a" stroke-width="0.886303" stroke-opacity="1" stroke-miterlimit="4"/></g><g clip-path="url(#6a8b96190c)"><g clip-path="url(#29572313c3)"><g clip-path="url(#49c9069bda)"><path fill="#8bc34a" d="M 104.371094 115.203125 C 104.59375 115.117188 104.824219 115.078125 105.058594 115.085938 C 105.296875 115.089844 105.523438 115.140625 105.738281 115.238281 C 105.957031 115.332031 106.144531 115.464844 106.304688 115.636719 C 106.46875 115.808594 106.589844 116 106.675781 116.222656 C 106.757812 116.441406 106.796875 116.667969 106.789062 116.902344 C 106.78125 117.136719 106.726562 117.363281 106.628906 117.578125 C 106.53125 117.792969 106.394531 117.980469 106.222656 118.140625 C 106.050781 118.304688 105.851562 118.425781 105.632812 118.511719 C 105.410156 118.59375 105.179688 118.632812 104.945312 118.628906 C 104.707031 118.621094 104.480469 118.570312 104.265625 118.476562 C 104.050781 118.382812 103.859375 118.25 103.699219 118.078125 C 103.535156 117.90625 103.414062 117.710938 103.332031 117.492188 C 103.246094 117.273438 103.207031 117.046875 103.214844 116.8125 C 103.222656 116.578125 103.277344 116.351562 103.375 116.136719 C 103.472656 115.921875 103.609375 115.734375 103.78125 115.574219 C 103.953125 115.410156 104.152344 115.289062 104.371094 115.203125 Z M 104.371094 115.203125 " fill-opacity="1" fill-rule="nonzero"/></g></g></g><g clip-path="url(#d5a824aa99)"><g clip-path="url(#a5fc5346cb)"><g clip-path="url(#9719f41377)"><path fill="#8bc34a" d="M 104.261719 109.882812 L 105.152344 112.222656 C 102 113.425781 100.402344 116.929688 101.589844 120.046875 L 99.222656 120.949219 C 97.542969 116.535156 99.796875 111.578125 104.261719 109.882812 Z M 104.261719 109.882812 " fill-opacity="1" fill-rule="nonzero"/></g></g></g><g clip-path="url(#cec92eadd8)"><g clip-path="url(#a17453b095)"><g clip-path="url(#32f9180231)"><path fill="#8bc34a" d="M 103.632812 108.226562 C 98.246094 110.277344 95.523438 116.257812 97.550781 121.585938 L 95.113281 122.515625 C 92.578125 115.855469 95.980469 108.378906 102.714844 105.816406 Z M 103.632812 108.226562 " fill-opacity="1" fill-rule="nonzero"/></g></g></g><g fill="#000000" fill-opacity="1"><g transform="translate(102.49326, 127.065324)"><g><path d="M 12.359375 -6.484375 C 12.359375 -5.140625 12.125 -3.960938 11.65625 -2.953125 C 11.1875 -1.953125 10.507812 -1.175781 9.625 -0.625 C 8.75 -0.0820312 7.738281 0.1875 6.59375 0.1875 C 5.46875 0.1875 4.460938 -0.0820312 3.578125 -0.625 C 2.703125 -1.164062 2.019531 -1.9375 1.53125 -2.9375 C 1.050781 -3.945312 0.804688 -5.101562 0.796875 -6.40625 L 0.796875 -7.078125 C 0.796875 -8.410156 1.035156 -9.582031 1.515625 -10.59375 C 2.003906 -11.613281 2.6875 -12.394531 3.5625 -12.9375 C 4.445312 -13.488281 5.453125 -13.765625 6.578125 -13.765625 C 7.710938 -13.765625 8.71875 -13.488281 9.59375 -12.9375 C 10.476562 -12.394531 11.160156 -11.613281 11.640625 -10.59375 C 12.117188 -9.582031 12.359375 -8.410156 12.359375 -7.078125 Z M 9.53125 -7.09375 C 9.53125 -8.519531 9.273438 -9.601562 8.765625 -10.34375 C 8.253906 -11.082031 7.523438 -11.453125 6.578125 -11.453125 C 5.640625 -11.453125 4.914062 -11.085938 4.40625 -10.359375 C 3.894531 -9.628906 3.640625 -8.554688 3.640625 -7.140625 L 3.640625 -6.484375 C 3.640625 -5.097656 3.894531 -4.019531 4.40625 -3.25 C 4.914062 -2.488281 5.644531 -2.109375 6.59375 -2.109375 C 7.539062 -2.109375 8.265625 -2.472656 8.765625 -3.203125 C 9.265625 -3.941406 9.519531 -5.019531 9.53125 -6.4375 Z M 9.53125 -7.09375 "/></g></g></g><g fill="#000000" fill-opacity="1"><g transform="translate(116.547943, 127.065324)"><g><path d="M 3.515625 -10.09375 L 3.59375 -8.921875 C 4.320312 -9.828125 5.289062 -10.28125 6.5 -10.28125 C 7.570312 -10.28125 8.367188 -9.960938 8.890625 -9.328125 C 9.410156 -8.703125 9.675781 -7.765625 9.6875 -6.515625 L 9.6875 0 L 7 0 L 7 -6.453125 C 7 -7.023438 6.875 -7.4375 6.625 -7.6875 C 6.375 -7.945312 5.957031 -8.078125 5.375 -8.078125 C 4.613281 -8.078125 4.046875 -7.753906 3.671875 -7.109375 L 3.671875 0 L 0.984375 0 L 0.984375 -10.09375 Z M 3.515625 -10.09375 "/></g></g></g><g fill="#000000" fill-opacity="1"><g transform="translate(128.11456, 127.065324)"><g><path d="M 3.875 0 L 1.171875 0 L 1.171875 -14.328125 L 3.875 -14.328125 Z M 3.875 0 "/></g></g></g><g fill="#000000" fill-opacity="1"><g transform="translate(134.052745, 127.065324)"><g><path d="M 3.875 0 L 1.171875 0 L 1.171875 -10.09375 L 3.875 -10.09375 Z M 1.015625 -12.703125 C 1.015625 -13.097656 1.148438 -13.425781 1.421875 -13.6875 C 1.691406 -13.957031 2.0625 -14.09375 2.53125 -14.09375 C 2.988281 -14.09375 3.351562 -13.957031 3.625 -13.6875 C 3.894531 -13.425781 4.03125 -13.097656 4.03125 -12.703125 C 4.03125 -12.285156 3.890625 -11.945312 3.609375 -11.6875 C 3.335938 -11.425781 2.972656 -11.296875 2.515625 -11.296875 C 2.066406 -11.296875 1.703125 -11.425781 1.421875 -11.6875 C 1.148438 -11.945312 1.015625 -12.285156 1.015625 -12.703125 Z M 1.015625 -12.703125 "/></g></g></g><g fill="#000000" fill-opacity="1"><g transform="translate(139.99093, 127.065324)"><g><path d="M 3.515625 -10.09375 L 3.59375 -8.921875 C 4.320312 -9.828125 5.289062 -10.28125 6.5 -10.28125 C 7.570312 -10.28125 8.367188 -9.960938 8.890625 -9.328125 C 9.410156 -8.703125 9.675781 -7.765625 9.6875 -6.515625 L 9.6875 0 L 7 0 L 7 -6.453125 C 7 -7.023438 6.875 -7.4375 6.625 -7.6875 C 6.375 -7.945312 5.957031 -8.078125 5.375 -8.078125 C 4.613281 -8.078125 4.046875 -7.753906 3.671875 -7.109375 L 3.671875 0 L 0.984375 0 L 0.984375 -10.09375 Z M 3.515625 -10.09375 "/></g></g></g><g fill="#000000" fill-opacity="1"><g transform="translate(151.557548, 127.065324)"><g><path d="M 5.671875 0.1875 C 4.191406 0.1875 2.988281 -0.265625 2.0625 -1.171875 C 1.132812 -2.078125 0.671875 -3.285156 0.671875 -4.796875 L 0.671875 -5.0625 C 0.671875 -6.070312 0.863281 -6.976562 1.25 -7.78125 C 1.644531 -8.582031 2.203125 -9.195312 2.921875 -9.625 C 3.640625 -10.0625 4.457031 -10.28125 5.375 -10.28125 C 6.757812 -10.28125 7.847656 -9.84375 8.640625 -8.96875 C 9.429688 -8.09375 9.828125 -6.859375 9.828125 -5.265625 L 9.828125 -4.171875 L 3.40625 -4.171875 C 3.488281 -3.503906 3.75 -2.972656 4.1875 -2.578125 C 4.625 -2.179688 5.179688 -1.984375 5.859375 -1.984375 C 6.890625 -1.984375 7.695312 -2.359375 8.28125 -3.109375 L 9.609375 -1.625 C 9.203125 -1.0625 8.65625 -0.617188 7.96875 -0.296875 C 7.28125 0.0234375 6.515625 0.1875 5.671875 0.1875 Z M 5.375 -8.09375 C 4.832031 -8.09375 4.394531 -7.910156 4.0625 -7.546875 C 3.738281 -7.191406 3.53125 -6.675781 3.4375 -6 L 7.171875 -6 L 7.171875 -6.21875 C 7.160156 -6.8125 7 -7.269531 6.6875 -7.59375 C 6.382812 -7.925781 5.945312 -8.09375 5.375 -8.09375 Z M 5.375 -8.09375 "/></g></g></g><path stroke-linecap="butt" transform="matrix(0.671841, 0, 0, 0.671841, 100.117331, 107.917614)" fill="none" stroke-linejoin="miter" d="M 20.750836 19.356158 C 20.750836 21.344631 20.401981 23.088905 19.698457 24.588981 C 18.994933 26.089057 17.989068 27.240278 16.680863 28.054273 C 15.372657 28.868267 13.872581 29.275265 12.180635 29.275265 C 10.506132 29.275265 9.01187 28.874082 7.69785 28.071715 C 6.389645 27.263535 5.372151 26.118128 4.64537 24.623867 C 3.924404 23.129605 3.56392 21.414402 3.552292 19.472443 L 3.552292 18.472393 C 3.552292 16.48392 3.912775 14.733832 4.627927 13.222127 C 5.34308 11.710423 6.354759 10.547573 7.662965 9.739393 C 8.97117 8.931212 10.471246 8.524215 12.151564 8.524215 C 13.837696 8.524215 15.331957 8.931212 16.640163 9.739393 C 17.948369 10.547573 18.960048 11.710423 19.681014 13.222127 C 20.396167 14.733832 20.750836 16.478106 20.750836 18.45495 Z M 16.535507 18.443321 C 16.535507 16.326935 16.15758 14.716389 15.401728 13.617496 C 14.640062 12.512789 13.558612 11.96625 12.151564 11.96625 C 10.756144 11.96625 9.680509 12.506975 8.918842 13.594239 C 8.16299 14.681503 7.77925 16.274607 7.767621 18.373551 L 7.767621 19.356158 C 7.767621 21.420216 8.151362 23.019134 8.907214 24.158727 C 9.663066 25.298319 10.756144 25.862301 12.180635 25.862301 C 13.576055 25.862301 14.65169 25.315762 15.401728 24.222684 C 16.145952 23.123791 16.529692 21.524873 16.535507 19.425929 Z M 28.507042 13.989608 L 28.634956 15.722254 C 29.704777 14.384977 31.146711 13.710524 32.949127 13.710524 C 34.536417 13.710524 35.722524 14.181478 36.501633 15.111758 C 37.274928 16.047851 37.676111 17.443271 37.693554 19.30383 L 37.693554 29.001995 L 33.681723 29.001995 L 33.681723 19.402672 C 33.681723 18.547978 33.495667 17.931668 33.129369 17.547927 C 32.757257 17.164187 32.140947 16.972317 31.280438 16.972317 C 30.152474 16.972317 29.309409 17.454899 28.745426 18.41425 L 28.745426 29.001995 L 24.733596 29.001995 L 24.733596 13.989608 Z M 46.263754 29.001995 L 42.246109 29.001995 L 42.246109 7.692778 L 46.263754 7.692778 Z M 55.107225 29.001995 L 51.083766 29.001995 L 51.083766 13.989608 L 55.107225 13.989608 Z M 50.845382 10.10569 C 50.845382 9.506823 51.04888 9.012612 51.450063 8.623057 C 51.851246 8.233503 52.397786 8.041633 53.095495 8.041633 C 53.775762 8.041633 54.322302 8.233503 54.729299 8.623057 C 55.136296 9.012612 55.339795 9.506823 55.339795 10.10569 C 55.339795 10.716186 55.136296 11.216212 54.723485 11.605766 C 54.310673 11.995321 53.769948 12.187191 53.095495 12.187191 C 52.421043 12.187191 51.874503 11.995321 51.461692 11.605766 C 51.054694 11.216212 50.845382 10.716186 50.845382 10.10569 Z M 63.404156 13.989608 L 63.526256 15.722254 C 64.601891 14.384977 66.038011 13.710524 67.840427 13.710524 C 69.433531 13.710524 70.613823 14.181478 71.392933 15.111758 C 72.172042 16.047851 72.567411 17.443271 72.584853 19.30383 L 72.584853 29.001995 L 68.578837 29.001995 L 68.578837 19.402672 C 68.578837 18.547978 68.392781 17.931668 68.020669 17.547927 C 67.654371 17.164187 67.038061 16.972317 66.177552 16.972317 C 65.049588 16.972317 64.200708 17.454899 63.636726 18.41425 L 63.636726 29.001995 L 59.63071 29.001995 L 59.63071 13.989608 Z M 83.835422 29.275265 C 81.637637 29.275265 79.846849 28.600812 78.463058 27.251907 C 77.079267 25.903001 76.387371 24.100584 76.387371 21.856285 L 76.387371 21.46673 C 76.387371 19.96084 76.678084 18.611935 77.259508 17.425828 C 77.846747 16.233907 78.672371 15.321071 79.736378 14.675689 C 80.806199 14.036122 82.027191 13.710524 83.39354 13.710524 C 85.445969 13.710524 87.06233 14.36172 88.242622 15.652483 C 89.422914 16.94906 90.010153 18.786362 90.010153 21.164389 L 90.010153 22.798193 L 80.45153 22.798193 C 80.579444 23.780801 80.974813 24.565724 81.626008 25.158777 C 82.277204 25.751831 83.102827 26.042543 84.102878 26.042543 C 85.643653 26.042543 86.853017 25.484375 87.71934 24.36804 L 89.69037 26.57164 C 89.091502 27.42052 88.277508 28.089158 87.248386 28.565927 C 86.225078 29.036881 85.085486 29.275265 83.835422 29.275265 Z M 83.381911 16.960688 C 82.585359 16.960688 81.939978 17.228144 81.445767 17.763055 C 80.951556 18.297965 80.631772 19.065446 80.49223 20.065497 L 86.068093 20.065497 L 86.068093 19.745713 C 86.050651 18.861947 85.812267 18.170052 85.347127 17.687469 C 84.887801 17.199073 84.230791 16.960688 83.381911 16.960688 Z M 83.381911 16.960688 " stroke="#000000" stroke-width="0.56832" stroke-opacity="1" stroke-miterlimit="4"/><g fill="#000000" fill-opacity="1"><g transform="translate(162.759499, 127.065324)"><g/></g></g><g fill="#000000" fill-opacity="1"><g transform="translate(168.390171, 127.065324)"><g/></g></g><g fill="#000000" fill-opacity="1"><g transform="translate(174.023333, 127.065324)"><g><path d="M 8.875 -2.796875 L 3.96875 -2.796875 L 3.046875 0 L 0.0625 0 L 5.125 -13.578125 L 7.703125 -13.578125 L 12.796875 0 L 9.8125 0 Z M 4.734375 -5.0625 L 8.125 -5.0625 L 6.421875 -10.140625 Z M 4.734375 -5.0625 "/></g></g></g><g fill="#000000" fill-opacity="1"><g transform="translate(187.742546, 127.065324)"><g><path d="M 5.234375 -1.984375 C 5.722656 -1.984375 6.125 -2.117188 6.4375 -2.390625 C 6.75 -2.671875 6.910156 -3.035156 6.921875 -3.484375 L 9.453125 -3.484375 C 9.441406 -2.804688 9.253906 -2.179688 8.890625 -1.609375 C 8.523438 -1.035156 8.023438 -0.59375 7.390625 -0.28125 C 6.753906 0.03125 6.050781 0.1875 5.28125 0.1875 C 3.832031 0.1875 2.691406 -0.269531 1.859375 -1.1875 C 1.023438 -2.101562 0.609375 -3.367188 0.609375 -4.984375 L 0.609375 -5.171875 C 0.609375 -6.722656 1.019531 -7.960938 1.84375 -8.890625 C 2.675781 -9.816406 3.816406 -10.28125 5.265625 -10.28125 C 6.523438 -10.28125 7.535156 -9.921875 8.296875 -9.203125 C 9.054688 -8.484375 9.441406 -7.523438 9.453125 -6.328125 L 6.921875 -6.328125 C 6.910156 -6.847656 6.75 -7.269531 6.4375 -7.59375 C 6.125 -7.925781 5.71875 -8.09375 5.21875 -8.09375 C 4.582031 -8.09375 4.101562 -7.863281 3.78125 -7.40625 C 3.46875 -6.945312 3.3125 -6.207031 3.3125 -5.1875 L 3.3125 -4.90625 C 3.3125 -3.863281 3.46875 -3.113281 3.78125 -2.65625 C 4.101562 -2.207031 4.585938 -1.984375 5.234375 -1.984375 Z M 5.234375 -1.984375 "/></g></g></g><g fill="#000000" fill-opacity="1"><g transform="translate(198.572994, 127.065324)"><g><path d="M 6.875 0 C 6.75 -0.238281 6.660156 -0.539062 6.609375 -0.90625 C 5.953125 -0.175781 5.101562 0.1875 4.0625 0.1875 C 3.070312 0.1875 2.253906 -0.0976562 1.609375 -0.671875 C 0.960938 -1.242188 0.640625 -1.960938 0.640625 -2.828125 C 0.640625 -3.898438 1.035156 -4.722656 1.828125 -5.296875 C 2.617188 -5.867188 3.765625 -6.15625 5.265625 -6.15625 L 6.5 -6.15625 L 6.5 -6.734375 C 6.5 -7.203125 6.378906 -7.578125 6.140625 -7.859375 C 5.898438 -8.140625 5.519531 -8.28125 5 -8.28125 C 4.550781 -8.28125 4.195312 -8.171875 3.9375 -7.953125 C 3.675781 -7.734375 3.546875 -7.4375 3.546875 -7.0625 L 0.859375 -7.0625 C 0.859375 -7.644531 1.035156 -8.179688 1.390625 -8.671875 C 1.753906 -9.171875 2.265625 -9.5625 2.921875 -9.84375 C 3.585938 -10.132812 4.328125 -10.28125 5.140625 -10.28125 C 6.390625 -10.28125 7.378906 -9.96875 8.109375 -9.34375 C 8.835938 -8.71875 9.203125 -7.835938 9.203125 -6.703125 L 9.203125 -2.328125 C 9.210938 -1.367188 9.347656 -0.644531 9.609375 -0.15625 L 9.609375 0 Z M 4.65625 -1.875 C 5.050781 -1.875 5.414062 -1.960938 5.75 -2.140625 C 6.082031 -2.316406 6.332031 -2.554688 6.5 -2.859375 L 6.5 -4.59375 L 5.484375 -4.59375 C 4.140625 -4.59375 3.425781 -4.125 3.34375 -3.1875 L 3.328125 -3.03125 C 3.328125 -2.695312 3.441406 -2.421875 3.671875 -2.203125 C 3.910156 -1.984375 4.238281 -1.875 4.65625 -1.875 Z M 4.65625 -1.875 "/></g></g></g><g fill="#000000" fill-opacity="1"><g transform="translate(209.683, 127.065324)"><g><path d="M 0.609375 -5.125 C 0.609375 -6.695312 0.960938 -7.945312 1.671875 -8.875 C 2.378906 -9.8125 3.34375 -10.28125 4.5625 -10.28125 C 5.550781 -10.28125 6.363281 -9.910156 7 -9.171875 L 7 -14.328125 L 9.703125 -14.328125 L 9.703125 0 L 7.265625 0 L 7.140625 -1.078125 C 6.472656 -0.234375 5.609375 0.1875 4.546875 0.1875 C 3.359375 0.1875 2.40625 -0.28125 1.6875 -1.21875 C 0.96875 -2.15625 0.609375 -3.457031 0.609375 -5.125 Z M 3.3125 -4.921875 C 3.3125 -3.972656 3.472656 -3.25 3.796875 -2.75 C 4.128906 -2.25 4.609375 -2 5.234375 -2 C 6.066406 -2 6.65625 -2.347656 7 -3.046875 L 7 -7.03125 C 6.664062 -7.726562 6.085938 -8.078125 5.265625 -8.078125 C 3.960938 -8.078125 3.3125 -7.023438 3.3125 -4.921875 Z M 3.3125 -4.921875 "/></g></g></g><g fill="#000000" fill-opacity="1"><g transform="translate(221.314847, 127.065324)"><g><path d="M 5.671875 0.1875 C 4.191406 0.1875 2.988281 -0.265625 2.0625 -1.171875 C 1.132812 -2.078125 0.671875 -3.285156 0.671875 -4.796875 L 0.671875 -5.0625 C 0.671875 -6.070312 0.863281 -6.976562 1.25 -7.78125 C 1.644531 -8.582031 2.203125 -9.195312 2.921875 -9.625 C 3.640625 -10.0625 4.457031 -10.28125 5.375 -10.28125 C 6.757812 -10.28125 7.847656 -9.84375 8.640625 -8.96875 C 9.429688 -8.09375 9.828125 -6.859375 9.828125 -5.265625 L 9.828125 -4.171875 L 3.40625 -4.171875 C 3.488281 -3.503906 3.75 -2.972656 4.1875 -2.578125 C 4.625 -2.179688 5.179688 -1.984375 5.859375 -1.984375 C 6.890625 -1.984375 7.695312 -2.359375 8.28125 -3.109375 L 9.609375 -1.625 C 9.203125 -1.0625 8.65625 -0.617188 7.96875 -0.296875 C 7.28125 0.0234375 6.515625 0.1875 5.671875 0.1875 Z M 5.375 -8.09375 C 4.832031 -8.09375 4.394531 -7.910156 4.0625 -7.546875 C 3.738281 -7.191406 3.53125 -6.675781 3.4375 -6 L 7.171875 -6 L 7.171875 -6.21875 C 7.160156 -6.8125 7 -7.269531 6.6875 -7.59375 C 6.382812 -7.925781 5.945312 -8.09375 5.375 -8.09375 Z M 5.375 -8.09375 "/></g></g></g><g fill="#000000" fill-opacity="1"><g transform="translate(232.508721, 127.065324)"><g><path d="M 3.5625 -10.09375 L 3.640625 -8.953125 C 4.359375 -9.835938 5.328125 -10.28125 6.546875 -10.28125 C 7.847656 -10.28125 8.738281 -9.765625 9.21875 -8.734375 C 9.925781 -9.765625 10.9375 -10.28125 12.25 -10.28125 C 13.34375 -10.28125 14.15625 -9.957031 14.6875 -9.3125 C 15.226562 -8.675781 15.5 -7.71875 15.5 -6.4375 L 15.5 0 L 12.796875 0 L 12.796875 -6.4375 C 12.796875 -7.007812 12.679688 -7.425781 12.453125 -7.6875 C 12.234375 -7.945312 11.835938 -8.078125 11.265625 -8.078125 C 10.460938 -8.078125 9.90625 -7.691406 9.59375 -6.921875 L 9.609375 0 L 6.90625 0 L 6.90625 -6.421875 C 6.90625 -7.003906 6.789062 -7.425781 6.5625 -7.6875 C 6.332031 -7.945312 5.941406 -8.078125 5.390625 -8.078125 C 4.617188 -8.078125 4.066406 -7.757812 3.734375 -7.125 L 3.734375 0 L 1.03125 0 L 1.03125 -10.09375 Z M 3.5625 -10.09375 "/></g></g></g><g fill="#000000" fill-opacity="1"><g transform="translate(249.908779, 127.065324)"><g><path d="M 4.796875 -3.8125 L 6.671875 -10.09375 L 9.5625 -10.09375 L 5.5 1.5625 L 5.28125 2.09375 C 4.675781 3.414062 3.679688 4.078125 2.296875 4.078125 C 1.898438 4.078125 1.5 4.015625 1.09375 3.890625 L 1.09375 1.859375 L 1.515625 1.859375 C 2.023438 1.859375 2.40625 1.78125 2.65625 1.625 C 2.90625 1.476562 3.101562 1.222656 3.25 0.859375 L 3.5625 0.03125 L 0.03125 -10.09375 L 2.921875 -10.09375 Z M 4.796875 -3.8125 "/></g></g></g><path stroke-linecap="butt" transform="matrix(0.671841, 0, 0, 0.671841, 100.117331, 107.917614)" fill="none" stroke-linejoin="miter" d="M 122.035029 24.838994 L 114.738148 24.838994 L 113.348543 29.001995 L 108.923901 29.001995 L 116.441723 8.803299 L 120.302383 8.803299 L 127.860905 29.001995 L 123.436263 29.001995 Z M 115.860298 21.46673 L 120.912879 21.46673 L 118.372053 13.908208 Z M 137.029974 26.042543 C 137.768383 26.042543 138.373065 25.839044 138.83239 25.432047 C 139.29753 25.030864 139.535914 24.484325 139.553357 23.809872 L 143.315175 23.809872 C 143.303547 24.827365 143.030277 25.763459 142.483738 26.606525 C 141.937199 27.455405 141.187161 28.112415 140.239438 28.577555 C 139.291716 29.042695 138.245151 29.275265 137.099745 29.275265 C 134.954287 29.275265 133.262341 28.594998 132.023906 27.22865 C 130.785472 25.868116 130.163347 23.984299 130.163347 21.577201 L 130.163347 21.31556 C 130.163347 19.001489 130.779657 17.158373 132.006464 15.780396 C 133.239084 14.402419 134.925216 13.710524 137.070673 13.710524 C 138.948675 13.710524 140.454565 14.245435 141.588344 15.315256 C 142.722122 16.385078 143.297732 17.803754 143.315175 19.582914 L 139.553357 19.582914 C 139.535914 18.803805 139.29753 18.170052 138.83239 17.687469 C 138.373065 17.199073 137.762569 16.960688 137.000902 16.960688 C 136.070623 16.960688 135.361285 17.297915 134.89033 17.978182 C 134.413562 18.658449 134.175178 19.763156 134.175178 21.286489 L 134.175178 21.705114 C 134.175178 23.24589 134.407748 24.356411 134.878702 25.030864 C 135.349656 25.705317 136.070623 26.042543 137.029974 26.042543 Z M 155.606495 29.001995 C 155.420439 28.641512 155.286711 28.188 155.205312 27.65309 C 154.234332 28.73454 152.97264 29.275265 151.414422 29.275265 C 149.949232 29.275265 148.72824 28.850825 147.763075 28.001945 C 146.79791 27.153064 146.309513 26.077429 146.309513 24.780851 C 146.309513 23.193562 146.902566 21.97257 148.082858 21.117875 C 149.257336 20.268995 150.966725 19.838741 153.193582 19.832927 L 155.036698 19.832927 L 155.036698 18.972418 C 155.036698 18.274708 154.862271 17.722355 154.501788 17.303729 C 154.147118 16.890917 153.583136 16.681604 152.815656 16.681604 C 152.141203 16.681604 151.612107 16.844403 151.228366 17.170001 C 150.844626 17.489785 150.652756 17.937482 150.652756 18.501464 L 146.646739 18.501464 C 146.646739 17.629327 146.914194 16.826961 147.449105 16.082737 C 147.984016 15.344328 148.745682 14.762903 149.722476 14.344277 C 150.705084 13.925651 151.803977 13.710524 153.024969 13.710524 C 154.873899 13.710524 156.344904 14.175664 157.432168 15.105943 C 158.519433 16.036223 159.060158 17.344429 159.060158 19.024746 L 159.060158 25.530889 C 159.071786 26.95538 159.269471 28.031016 159.659025 28.763611 L 159.659025 29.001995 Z M 152.292374 26.211156 C 152.885427 26.211156 153.426152 26.077429 153.926177 25.815787 C 154.426202 25.554146 154.798314 25.199477 155.036698 24.757594 L 155.036698 22.176068 L 153.542437 22.176068 C 151.530707 22.176068 150.4667 22.867964 150.332972 24.257569 L 150.321344 24.490139 C 150.321344 24.990164 150.495771 25.402976 150.85044 25.728574 C 151.199295 26.048357 151.681878 26.211156 152.292374 26.211156 Z M 162.821976 21.385331 C 162.821976 19.042189 163.345258 17.18163 164.397637 15.792025 C 165.444202 14.408234 166.880321 13.710524 168.70018 13.710524 C 170.165371 13.710524 171.36892 14.257063 172.322456 15.350142 L 172.322456 7.692778 L 176.345916 7.692778 L 176.345916 29.001995 L 172.72364 29.001995 L 172.531769 27.403077 C 171.531719 28.65314 170.24677 29.275265 168.676923 29.275265 C 166.909392 29.275265 165.490716 28.583369 164.420894 27.18795 C 163.356887 25.798345 162.821976 23.8622 162.821976 21.385331 Z M 166.827992 21.676043 C 166.827992 23.083091 167.078005 24.158727 167.566402 24.908765 C 168.054799 25.658803 168.769951 26.030915 169.700231 26.030915 C 170.938666 26.030915 171.816617 25.507632 172.322456 24.461068 L 172.322456 18.542164 C 171.822431 17.495599 170.961923 16.972317 169.729302 16.972317 C 167.798972 16.972317 166.827992 18.542164 166.827992 21.676043 Z M 187.666256 29.275265 C 185.46847 29.275265 183.671868 28.600812 182.293891 27.251907 C 180.9101 25.903001 180.218205 24.100584 180.218205 21.856285 L 180.218205 21.46673 C 180.218205 19.96084 180.508917 18.611935 181.090342 17.425828 C 181.671767 16.233907 182.49739 15.321071 183.567211 14.675689 C 184.637033 14.036122 185.852211 13.710524 187.224373 13.710524 C 189.276802 13.710524 190.893163 14.36172 192.073456 15.652483 C 193.247934 16.94906 193.840987 18.786362 193.840987 21.164389 L 193.840987 22.798193 L 184.282364 22.798193 C 184.410277 23.780801 184.799832 24.565724 185.456842 25.158777 C 186.108037 25.751831 186.933661 26.042543 187.927897 26.042543 C 189.474487 26.042543 190.68385 25.484375 191.550173 24.36804 L 193.521203 26.57164 C 192.922336 27.42052 192.108341 28.089158 191.079219 28.565927 C 190.055912 29.036881 188.916319 29.275265 187.666256 29.275265 Z M 187.20693 16.960688 C 186.416193 16.960688 185.770811 17.228144 185.2766 17.763055 C 184.776575 18.297965 184.462605 19.065446 184.323063 20.065497 L 189.898927 20.065497 L 189.898927 19.745713 C 189.881484 18.861947 189.6431 18.170052 189.17796 17.687469 C 188.718635 17.199073 188.061625 16.960688 187.20693 16.960688 Z M 201.178567 13.989608 L 201.306481 15.669925 C 202.370488 14.367534 203.806607 13.710524 205.620652 13.710524 C 207.550983 13.710524 208.876631 14.478005 209.597598 16.001338 C 210.655791 14.478005 212.155867 13.710524 214.109454 13.710524 C 215.737443 13.710524 216.946807 14.187292 217.743359 15.135015 C 218.539911 16.082737 218.935279 17.507228 218.935279 19.414301 L 218.935279 29.001995 L 214.91182 29.001995 L 214.91182 19.425929 C 214.91182 18.577049 214.749021 17.954925 214.411795 17.56537 C 214.080383 17.170001 213.493144 16.972317 212.650078 16.972317 C 211.452343 16.972317 210.615091 17.547927 210.155766 18.693334 L 210.167394 29.001995 L 206.161377 29.001995 L 206.161377 19.443372 C 206.161377 18.571235 205.98695 17.943296 205.643909 17.553742 C 205.306683 17.170001 204.719444 16.972317 203.899635 16.972317 C 202.760043 16.972317 201.940234 17.443271 201.42858 18.385179 L 201.42858 29.001995 L 197.422563 29.001995 L 197.422563 13.989608 Z M 228.924157 23.327289 L 231.697553 13.989608 L 236.000096 13.989608 L 229.964907 31.327694 L 229.633495 32.118432 C 228.732287 34.083648 227.255468 35.060441 225.19141 35.060441 C 224.609985 35.060441 224.016932 34.973227 223.418064 34.7988 L 223.418064 31.757948 L 224.02856 31.775391 C 224.784412 31.775391 225.354209 31.659106 225.726321 31.426536 C 226.098432 31.193966 226.394959 30.810226 226.604272 30.275315 L 227.08104 29.042695 L 221.819146 13.989608 L 226.133318 13.989608 Z M 228.924157 23.327289 " stroke="#000000" stroke-width="0.56832" stroke-opacity="1" stroke-miterlimit="4"/><g clip-path="url(#8f0690d688)"><path fill="#000000" d="M 9.769531 137.007812 L 9.984375 136.972656 L 10.570312 136.878906 C 12.585938 136.242188 14.070312 135.820312 15.019531 135.609375 C 18.757812 134.996094 21.316406 134.511719 22.695312 134.148438 L 30.054688 132.152344 C 30.886719 132.015625 33.976562 131.777344 39.328125 131.441406 C 41.792969 131.28125 43.4375 131.214844 44.265625 131.253906 C 45.9375 131.308594 48.757812 131.902344 52.734375 133.03125 C 53.296875 133.230469 54.054688 133.5625 55.003906 134.027344 L 61.734375 137.503906 C 62.40625 137.839844 63.046875 138.066406 63.652344 138.191406 L 67.078125 138.738281 L 70.050781 139.410156 C 71.160156 139.574219 72.078125 139.675781 72.800781 139.714844 C 73.183594 139.738281 73.570312 139.734375 73.960938 139.699219 L 75.710938 139.492188 C 77.082031 139.429688 78.128906 139.359375 78.851562 139.285156 C 79.664062 139.207031 80.242188 139.136719 80.59375 139.074219 C 81.007812 139.027344 82.398438 138.722656 84.769531 138.164062 C 85.433594 138.007812 85.984375 137.835938 86.421875 137.652344 C 96.1875 132.96875 101.324219 130.535156 101.839844 130.351562 C 102.375 130.03125 104.964844 129.035156 109.605469 127.355469 L 109.925781 127.007812 C 109.738281 126.957031 109.414062 126.925781 108.949219 126.914062 C 106.007812 126.960938 103.566406 127.28125 101.628906 127.878906 C 98.648438 128.621094 92.980469 130.394531 84.632812 133.203125 C 82.210938 133.539062 80.601562 133.734375 79.796875 133.78125 C 78.738281 133.832031 77.261719 133.824219 75.363281 133.753906 L 73.746094 133.8125 C 73.5 133.835938 72.710938 133.710938 71.382812 133.445312 L 68.5625 132.554688 L 64.953125 131.710938 C 61.066406 129.429688 57.601562 127.839844 54.5625 126.941406 C 52.199219 126.425781 50.054688 126.058594 48.136719 125.835938 C 47.238281 125.726562 46.246094 125.636719 45.160156 125.570312 C 44.769531 125.550781 44.226562 125.578125 43.53125 125.652344 C 35.605469 126.773438 30.660156 127.640625 28.695312 128.253906 C 27.921875 128.480469 25.519531 129.53125 21.488281 131.398438 L 14.457031 134.199219 C 13.5625 134.621094 12.222656 135.476562 10.445312 136.769531 C 10.285156 136.882812 10.0625 136.960938 9.769531 137.007812 " fill-opacity="1" fill-rule="nonzero"/></g></svg>