<svg xmlns="http://www.w3.org/2000/svg" xmlns:xlink="http://www.w3.org/1999/xlink" width="350" zoomAndPan="magnify" viewBox="0 0 262.5 142.499996" height="190" preserveAspectRatio="xMidYMid meet" version="1.0"><defs><g/><clipPath id="a4a632d797"><path d="M 182.933594 129 L 254.453125 129 L 254.453125 140 L 182.933594 140 Z M 182.933594 129 " clip-rule="nonzero"/></clipPath><clipPath id="158c2e0dba"><path d="M 245.085938 3.527344 L 259.25 3.527344 L 259.25 138.066406 L 245.085938 138.066406 Z M 245.085938 3.527344 " clip-rule="nonzero"/></clipPath><clipPath id="b6ad6f3f3a"><path d="M 245.085938 16 L 256 16 L 256 138 L 245.085938 138 Z M 245.085938 16 " clip-rule="nonzero"/></clipPath><clipPath id="77293fa36a"><path d="M 245.085938 3.527344 L 259.25 3.527344 L 259.25 138.066406 L 245.085938 138.066406 Z M 245.085938 3.527344 " clip-rule="nonzero"/></clipPath><clipPath id="fb656ceb3c"><path d="M 12 113 L 17 113 L 17 118 L 12 118 Z M 12 113 " clip-rule="nonzero"/></clipPath><clipPath id="cc2d1b8517"><path d="M 3.230469 122.429688 L -2.058594 108.53125 L 11.839844 103.242188 L 17.128906 117.140625 Z M 3.230469 122.429688 " clip-rule="nonzero"/></clipPath><clipPath id="597d82efbe"><path d="M 3.230469 122.429688 L -2.058594 108.53125 L 11.839844 103.242188 L 17.128906 117.140625 Z M 3.230469 122.429688 " clip-rule="nonzero"/></clipPath><clipPath id="9289d0bd93"><path d="M 7 107 L 15 107 L 15 121 L 7 121 Z M 7 107 " clip-rule="nonzero"/></clipPath><clipPath id="1456d3dabf"><path d="M 3.230469 122.429688 L -2.058594 108.53125 L 11.839844 103.242188 L 17.128906 117.140625 Z M 3.230469 122.429688 " clip-rule="nonzero"/></clipPath><clipPath id="7020b302d3"><path d="M 3.230469 122.429688 L -2.058594 108.53125 L 11.839844 103.242188 L 17.128906 117.140625 Z M 3.230469 122.429688 " clip-rule="nonzero"/></clipPath><clipPath id="779c66a6cc"><path d="M 2 103 L 13 103 L 13 123 L 2 123 Z M 2 103 " clip-rule="nonzero"/></clipPath><clipPath id="f33bb1c33c"><path d="M 3.230469 122.429688 L -2.058594 108.53125 L 11.839844 103.242188 L 17.128906 117.140625 Z M 3.230469 122.429688 " clip-rule="nonzero"/></clipPath><clipPath id="1d4e12fd47"><path d="M 3.230469 122.429688 L -2.058594 108.53125 L 11.839844 103.242188 L 17.128906 117.140625 Z M 3.230469 122.429688 " clip-rule="nonzero"/></clipPath></defs><g fill="#000000" fill-opacity="1"><g transform="translate(8.77461, 50.39558)"><g><path d="M 3.3125 -45.640625 L 19.96875 -45.640625 C 24.613281 -45.640625 28.375 -44.441406 31.25 -42.046875 C 34.132812 -39.648438 35.578125 -36.164062 35.578125 -31.59375 C 35.578125 -27.019531 34.117188 -23.429688 31.203125 -20.828125 C 28.285156 -18.234375 24.539062 -16.9375 19.96875 -16.9375 L 13.71875 -16.9375 L 13.71875 0 L 3.3125 0 Z M 13.71875 -25.234375 L 16.65625 -25.234375 C 18.976562 -25.234375 20.882812 -25.703125 22.375 -26.640625 C 23.875 -27.578125 24.625 -29.117188 24.625 -31.265625 C 24.625 -33.441406 23.875 -35 22.375 -35.9375 C 20.882812 -36.875 18.976562 -37.34375 16.65625 -37.34375 L 13.71875 -37.34375 Z M 13.71875 -25.234375 "/></g></g></g><g fill="#000000" fill-opacity="1"><g transform="translate(45.622206, 50.39558)"><g><path d="M 3.3125 0 L 3.3125 -28.390625 L 13.109375 -28.390625 L 13.109375 -24.28125 L 13.21875 -24.28125 C 13.289062 -24.4375 13.410156 -24.625 13.578125 -24.84375 C 13.742188 -25.0625 14.101562 -25.445312 14.65625 -26 C 15.207031 -26.550781 15.796875 -27.046875 16.421875 -27.484375 C 17.054688 -27.929688 17.867188 -28.332031 18.859375 -28.6875 C 19.859375 -29.039062 20.875 -29.21875 21.90625 -29.21875 C 22.976562 -29.21875 24.03125 -29.066406 25.0625 -28.765625 C 26.09375 -28.472656 26.847656 -28.179688 27.328125 -27.890625 L 28.109375 -27.4375 L 24.015625 -19.140625 C 22.796875 -20.171875 21.097656 -20.6875 18.921875 -20.6875 C 17.742188 -20.6875 16.726562 -20.425781 15.875 -19.90625 C 15.03125 -19.394531 14.429688 -18.769531 14.078125 -18.03125 C 13.734375 -17.300781 13.484375 -16.675781 13.328125 -16.15625 C 13.179688 -15.632812 13.109375 -15.226562 13.109375 -14.9375 L 13.109375 0 Z M 3.3125 0 "/></g></g></g><g fill="#000000" fill-opacity="1"><g transform="translate(73.174907, 50.39558)"><g><path d="M 6 -3.375 C 2.84375 -6.175781 1.265625 -9.769531 1.265625 -14.15625 C 1.265625 -18.550781 2.90625 -22.160156 6.1875 -24.984375 C 9.476562 -27.804688 13.539062 -29.21875 18.375 -29.21875 C 23.125 -29.21875 27.128906 -27.796875 30.390625 -24.953125 C 33.660156 -22.109375 35.296875 -18.507812 35.296875 -14.15625 C 35.296875 -9.8125 33.703125 -6.226562 30.515625 -3.40625 C 27.328125 -0.582031 23.28125 0.828125 18.375 0.828125 C 13.28125 0.828125 9.15625 -0.570312 6 -3.375 Z M 13.578125 -18.96875 C 12.304688 -17.71875 11.671875 -16.113281 11.671875 -14.15625 C 11.671875 -12.207031 12.28125 -10.613281 13.5 -9.375 C 14.71875 -8.144531 16.320312 -7.53125 18.3125 -7.53125 C 20.226562 -7.53125 21.800781 -8.15625 23.03125 -9.40625 C 24.269531 -10.65625 24.890625 -12.238281 24.890625 -14.15625 C 24.890625 -16.113281 24.253906 -17.71875 22.984375 -18.96875 C 21.710938 -20.226562 20.15625 -20.859375 18.3125 -20.859375 C 16.425781 -20.859375 14.847656 -20.226562 13.578125 -18.96875 Z M 13.578125 -18.96875 "/></g></g></g><g fill="#000000" fill-opacity="1"><g transform="translate(109.745865, 50.39558)"><g><path d="M 4.984375 -28.390625 L 4.984375 -38.953125 L 14.765625 -38.953125 L 14.765625 -28.390625 L 20.75 -28.390625 L 20.75 -20.90625 L 14.765625 -20.90625 L 14.765625 -11.890625 C 14.765625 -9.273438 15.503906 -7.96875 16.984375 -7.96875 C 17.347656 -7.96875 17.734375 -8.039062 18.140625 -8.1875 C 18.546875 -8.332031 18.863281 -8.476562 19.09375 -8.625 L 19.421875 -8.859375 L 21.859375 -0.9375 C 19.753906 0.238281 17.351562 0.828125 14.65625 0.828125 C 12.8125 0.828125 11.222656 0.503906 9.890625 -0.140625 C 8.566406 -0.785156 7.5625 -1.648438 6.875 -2.734375 C 6.195312 -3.828125 5.710938 -4.972656 5.421875 -6.171875 C 5.128906 -7.367188 4.984375 -8.648438 4.984375 -10.015625 L 4.984375 -20.90625 L 0.890625 -20.90625 L 0.890625 -28.390625 Z M 4.984375 -28.390625 "/></g></g></g><g fill="#000000" fill-opacity="1"><g transform="translate(131.599917, 50.39558)"><g><path d="M 4.25 -44.203125 C 5.394531 -45.347656 6.757812 -45.921875 8.34375 -45.921875 C 9.9375 -45.921875 11.300781 -45.347656 12.4375 -44.203125 C 13.582031 -43.054688 14.15625 -41.691406 14.15625 -40.109375 C 14.15625 -38.523438 13.582031 -37.160156 12.4375 -36.015625 C 11.300781 -34.867188 9.9375 -34.296875 8.34375 -34.296875 C 6.757812 -34.296875 5.394531 -34.867188 4.25 -36.015625 C 3.113281 -37.160156 2.546875 -38.523438 2.546875 -40.109375 C 2.546875 -41.691406 3.113281 -43.054688 4.25 -44.203125 Z M 3.3125 -28.390625 L 3.3125 0 L 13.109375 0 L 13.109375 -28.390625 Z M 3.3125 -28.390625 "/></g></g></g><g fill="#000000" fill-opacity="1"><g transform="translate(148.308586, 50.39558)"><g><path d="M 5.25 -3.515625 C 2.59375 -6.410156 1.265625 -9.957031 1.265625 -14.15625 C 1.265625 -18.363281 2.59375 -21.925781 5.25 -24.84375 C 7.90625 -27.757812 11.28125 -29.21875 15.375 -29.21875 C 19.144531 -29.21875 22.242188 -28.035156 24.671875 -25.671875 L 24.671875 -47.578125 L 34.46875 -47.578125 L 34.46875 0 L 24.78125 0 L 24.78125 -3.203125 L 24.671875 -3.203125 C 22.242188 -0.515625 19.144531 0.828125 15.375 0.828125 C 11.28125 0.828125 7.90625 -0.617188 5.25 -3.515625 Z M 13.578125 -18.96875 C 12.304688 -17.71875 11.671875 -16.113281 11.671875 -14.15625 C 11.671875 -12.207031 12.28125 -10.613281 13.5 -9.375 C 14.71875 -8.144531 16.320312 -7.53125 18.3125 -7.53125 C 20.226562 -7.53125 21.800781 -8.15625 23.03125 -9.40625 C 24.269531 -10.65625 24.890625 -12.238281 24.890625 -14.15625 C 24.890625 -16.113281 24.253906 -17.71875 22.984375 -18.96875 C 21.710938 -20.226562 20.15625 -20.859375 18.3125 -20.859375 C 16.425781 -20.859375 14.847656 -20.226562 13.578125 -18.96875 Z M 13.578125 -18.96875 "/></g></g></g><g fill="#000000" fill-opacity="1"><g transform="translate(186.096738, 50.39558)"><g><path d="M 4.25 -44.203125 C 5.394531 -45.347656 6.757812 -45.921875 8.34375 -45.921875 C 9.9375 -45.921875 11.300781 -45.347656 12.4375 -44.203125 C 13.582031 -43.054688 14.15625 -41.691406 14.15625 -40.109375 C 14.15625 -38.523438 13.582031 -37.160156 12.4375 -36.015625 C 11.300781 -34.867188 9.9375 -34.296875 8.34375 -34.296875 C 6.757812 -34.296875 5.394531 -34.867188 4.25 -36.015625 C 3.113281 -37.160156 2.546875 -38.523438 2.546875 -40.109375 C 2.546875 -41.691406 3.113281 -43.054688 4.25 -44.203125 Z M 3.3125 -28.390625 L 3.3125 0 L 13.109375 0 L 13.109375 -28.390625 Z M 3.3125 -28.390625 "/></g></g></g><g fill="#000000" fill-opacity="1"><g transform="translate(202.805397, 50.39558)"><g><path d="M 3.3125 0 L 3.3125 -28.390625 L 13.109375 -28.390625 L 13.109375 -25.390625 L 13.21875 -25.390625 C 15.769531 -27.941406 18.484375 -29.21875 21.359375 -29.21875 C 22.753906 -29.21875 24.144531 -29.03125 25.53125 -28.65625 C 26.914062 -28.289062 28.242188 -27.71875 29.515625 -26.9375 C 30.785156 -26.164062 31.816406 -25.066406 32.609375 -23.640625 C 33.410156 -22.222656 33.8125 -20.578125 33.8125 -18.703125 L 33.8125 0 L 24.015625 0 L 24.015625 -16.046875 C 24.015625 -17.523438 23.539062 -18.816406 22.59375 -19.921875 C 21.65625 -21.023438 20.429688 -21.578125 18.921875 -21.578125 C 17.441406 -21.578125 16.101562 -21.003906 14.90625 -19.859375 C 13.707031 -18.710938 13.109375 -17.441406 13.109375 -16.046875 L 13.109375 0 Z M 3.3125 0 "/></g></g></g><path stroke-linecap="butt" transform="matrix(0.663341, 0, 0, 0.663341, 7.929663, 10.950954)" fill="none" stroke-linejoin="miter" d="M 5.011367 -9.807394 L 30.115131 -9.807394 C 37.12275 -9.807394 42.793621 -8.005435 47.121856 -4.389739 C 51.467757 -0.779932 53.640708 4.472837 53.640708 11.36857 C 53.640708 18.264302 51.438314 23.676068 47.039413 27.597979 C 42.658179 31.51989 37.016752 33.486735 30.115131 33.486735 L 20.687234 33.486735 L 20.687234 59.002711 L 5.011367 59.002711 Z M 20.687234 20.961352 L 25.109689 20.961352 C 28.613498 20.961352 31.487211 20.254702 33.742604 18.8414 C 35.997997 17.416321 37.12275 15.096152 37.12275 11.880891 C 37.12275 8.594966 35.997997 6.245353 33.742604 4.832051 C 31.487211 3.406973 28.613498 2.694433 25.109689 2.694433 L 20.687234 2.694433 Z M 60.559996 59.002711 L 60.559996 16.215015 L 75.323105 16.215015 L 75.323105 22.386431 L 75.482101 22.386431 C 75.593988 22.156769 75.77065 21.874109 76.012089 21.550228 C 76.271195 21.214569 76.81296 20.625693 77.643275 19.801267 C 78.485367 18.959175 79.374569 18.205415 80.310881 17.539985 C 81.25897 16.874556 82.483831 16.273903 83.973687 15.749804 C 85.481208 15.219816 87.018173 14.954822 88.578693 14.954822 C 90.192212 14.954822 91.776287 15.178594 93.32503 15.62614 C 94.88555 16.073685 96.02208 16.521231 96.746397 16.968776 L 97.924148 17.622428 L 91.752732 30.141922 C 89.909552 28.581401 87.347943 27.804086 84.079684 27.804086 C 82.30128 27.804086 80.764315 28.198632 79.474678 28.981837 C 78.202706 29.759153 77.295838 30.701353 76.76585 31.814328 C 76.253528 32.927303 75.876648 33.869504 75.646987 34.646819 C 75.429103 35.418246 75.323105 36.030677 75.323105 36.478222 L 75.323105 59.002711 Z M 106.127184 53.908938 C 101.374958 49.6867 99.00179 44.269046 99.00179 37.655973 C 99.00179 31.031124 101.469178 25.595803 106.409844 21.35001 C 111.368176 17.086551 117.486593 14.954822 124.776872 14.954822 C 131.949376 14.954822 137.991239 17.098329 142.902461 21.385343 C 147.831349 25.666468 150.292849 31.090011 150.292849 37.655973 C 150.292849 44.216047 147.890236 49.621924 143.085012 53.867717 C 138.279788 58.119398 132.179037 60.23935 124.776872 60.23935 C 117.109713 60.23935 110.891187 58.131175 106.127184 53.908938 Z M 117.551369 30.389249 C 115.637524 32.273651 114.677657 34.699818 114.677657 37.655973 C 114.677657 40.60624 115.596302 43.008852 117.427705 44.869699 C 119.276774 46.724656 121.697053 47.65508 124.700318 47.65508 C 127.591697 47.65508 129.964865 46.712879 131.825712 44.828477 C 133.686559 42.926409 134.616982 40.529686 134.616982 37.638307 C 134.616982 34.693929 133.657115 32.273651 131.743269 30.389249 C 129.829424 28.498959 127.479811 27.556758 124.700318 27.556758 C 121.861938 27.556758 119.476992 28.498959 117.551369 30.389249 Z M 159.732523 16.215015 L 159.732523 0.268266 L 174.495633 0.268266 L 174.495633 16.215015 L 183.493651 16.215015 L 183.493651 27.474315 L 174.495633 27.474315 L 174.495633 41.059674 C 174.495633 45.011029 175.602719 46.983762 177.811002 46.983762 C 178.370434 46.983762 178.95342 46.877764 179.565851 46.65988 C 180.190059 46.430219 180.667048 46.206446 180.99093 45.988562 L 181.497363 45.658792 L 185.166057 57.571744 C 181.986129 59.350148 178.370434 60.23935 174.313081 60.23935 C 171.539478 60.23935 169.154532 59.762361 167.140577 58.796605 C 165.150178 57.819071 163.630879 56.511768 162.600347 54.868805 C 161.569815 53.225842 160.827832 51.500437 160.380286 49.692589 C 159.950407 47.89063 159.732523 45.959118 159.732523 43.909831 L 159.732523 27.474315 L 153.561108 27.474315 L 153.561108 16.215015 Z M 191.578912 -7.65211 C 193.298428 -9.377515 195.359493 -10.237273 197.744439 -10.237273 C 200.147051 -10.237273 202.214004 -9.377515 203.939409 -7.65211 C 205.658926 -5.926704 206.524573 -3.86564 206.524573 -1.457139 C 206.524573 0.927807 205.658926 2.988871 203.939409 4.708388 C 202.214004 6.422015 200.147051 7.275885 197.744439 7.275885 C 195.359493 7.275885 193.298428 6.422015 191.578912 4.708388 C 189.853507 2.988871 188.987859 0.927807 188.987859 -1.457139 C 188.987859 -3.86564 189.853507 -5.926704 191.578912 -7.65211 Z M 190.171499 16.215015 L 190.171499 59.002711 L 204.934609 59.002711 L 204.934609 16.215015 Z M 218.27264 53.702832 C 214.268286 49.333375 212.266109 43.980497 212.266109 37.638307 C 212.266109 31.296118 214.268286 25.93735 218.27264 21.550228 C 222.276993 17.151327 227.364878 14.954822 233.542182 14.954822 C 239.207165 14.954822 243.876947 16.733226 247.55742 20.290034 L 247.55742 -12.739994 L 262.320529 -12.739994 L 262.320529 59.002711 L 247.716416 59.002711 L 247.716416 54.156266 L 247.55742 54.156266 C 243.876947 58.213618 239.207165 60.23935 233.542182 60.23935 C 227.364878 60.23935 222.276993 58.06051 218.27264 53.702832 Z M 230.815688 30.389249 C 228.901843 32.273651 227.941976 34.699818 227.941976 37.655973 C 227.941976 40.60624 228.860621 43.008852 230.692024 44.869699 C 232.541094 46.724656 234.961372 47.65508 237.964637 47.65508 C 240.856016 47.65508 243.229184 46.712879 245.090031 44.828477 C 246.950878 42.926409 247.881301 40.529686 247.881301 37.638307 C 247.881301 34.693929 246.921434 32.273651 245.007588 30.389249 C 243.093743 28.498959 240.74413 27.556758 237.964637 27.556758 C 235.126257 27.556758 232.741311 28.498959 230.815688 30.389249 Z M 273.732937 -7.65211 C 275.458342 -9.377515 277.513518 -10.237273 279.904352 -10.237273 C 282.306964 -10.237273 284.368029 -9.377515 286.093434 -7.65211 C 287.818839 -5.926704 288.678598 -3.86564 288.678598 -1.457139 C 288.678598 0.927807 287.818839 2.988871 286.093434 4.708388 C 284.368029 6.422015 282.306964 7.275885 279.904352 7.275885 C 277.513518 7.275885 275.458342 6.422015 273.732937 4.708388 C 272.007531 2.988871 271.147773 0.927807 271.147773 -1.457139 C 271.147773 -3.86564 272.007531 -5.926704 273.732937 -7.65211 Z M 272.325524 16.215015 L 272.325524 59.002711 L 287.088634 59.002711 L 287.088634 16.215015 Z M 297.517619 59.002711 L 297.517619 16.215015 L 312.280729 16.215015 L 312.280729 20.714024 L 312.439725 20.714024 C 316.285082 16.874556 320.371879 14.954822 324.700114 14.954822 C 326.820066 14.954822 328.916462 15.231593 330.995193 15.785136 C 333.085701 16.344568 335.087878 17.204326 337.001723 18.376189 C 338.927346 19.542162 340.487867 21.196902 341.683284 23.340409 C 342.878701 25.489805 343.473466 27.980748 343.473466 30.819128 L 343.473466 59.002711 L 328.710356 59.002711 L 328.710356 34.805816 C 328.710356 32.579866 327.997817 30.642466 326.572738 28.981837 C 325.159437 27.315319 323.316256 26.479116 321.037308 26.479116 C 318.811358 26.479116 316.791515 27.338874 314.989556 29.064279 C 313.181708 30.789685 312.280729 32.70353 312.280729 34.805816 L 312.280729 59.002711 Z M 297.517619 59.002711 " stroke="#000000" stroke-width="0.886303" stroke-opacity="1" stroke-miterlimit="4"/><g fill="#000000" fill-opacity="1"><g transform="translate(239.378727, 50.39558)"><g/></g></g><g clip-path="url(#a4a632d797)"><path fill="#000000" d="M 182.933594 131.144531 L 183.085938 131.167969 L 183.503906 131.234375 C 184.945312 131.679688 186.003906 131.976562 186.683594 132.125 C 189.351562 132.554688 191.179688 132.894531 192.164062 133.148438 L 197.417969 134.546875 C 198.011719 134.640625 200.21875 134.808594 204.042969 135.042969 C 205.800781 135.15625 206.972656 135.203125 207.566406 135.175781 C 208.757812 135.136719 210.777344 134.722656 213.613281 133.929688 C 214.015625 133.792969 214.554688 133.558594 215.234375 133.230469 L 220.042969 130.796875 C 220.523438 130.5625 220.980469 130.402344 221.410156 130.316406 L 223.859375 129.933594 L 225.980469 129.464844 C 226.773438 129.347656 227.429688 129.277344 227.945312 129.25 C 228.21875 129.234375 228.492188 129.238281 228.773438 129.261719 L 230.023438 129.40625 C 231.003906 129.449219 231.75 129.496094 232.265625 129.550781 C 232.84375 129.605469 233.261719 129.65625 233.507812 129.699219 C 233.804688 129.730469 234.800781 129.945312 236.492188 130.335938 C 236.964844 130.445312 237.359375 130.566406 237.671875 130.695312 C 244.644531 133.972656 248.3125 135.679688 248.679688 135.808594 C 249.066406 136.03125 250.914062 136.730469 254.226562 137.902344 L 254.457031 138.148438 C 254.324219 138.183594 254.089844 138.207031 253.757812 138.214844 C 251.65625 138.183594 249.914062 137.957031 248.53125 137.539062 C 246.402344 137.019531 242.355469 135.777344 236.394531 133.8125 C 234.664062 133.574219 233.515625 133.4375 232.941406 133.402344 C 232.1875 133.367188 231.128906 133.375 229.773438 133.425781 L 228.617188 133.382812 C 228.441406 133.367188 227.878906 133.453125 226.933594 133.640625 L 224.917969 134.265625 L 222.339844 134.855469 C 219.566406 136.453125 217.089844 137.566406 214.917969 138.195312 C 213.230469 138.554688 211.703125 138.8125 210.332031 138.96875 C 209.691406 139.046875 208.980469 139.109375 208.207031 139.15625 C 207.925781 139.167969 207.539062 139.148438 207.042969 139.097656 C 201.382812 138.3125 197.851562 137.703125 196.445312 137.277344 C 195.894531 137.117188 194.179688 136.382812 191.300781 135.074219 L 186.277344 133.109375 C 185.640625 132.816406 184.6875 132.214844 183.414062 131.3125 C 183.300781 131.234375 183.140625 131.179688 182.933594 131.144531 " fill-opacity="1" fill-rule="nonzero"/></g><g clip-path="url(#158c2e0dba)"><path fill="#000000" d="M 259.53125 13.511719 C 259.53125 13.269531 259.335938 13.070312 259.09375 13.070312 L 258.257812 13.070312 L 258.257812 4.125 C 258.257812 3.882812 258.0625 3.683594 257.820312 3.683594 L 250.460938 3.683594 C 250.21875 3.683594 250.019531 3.882812 250.019531 4.125 L 250.019531 13.070312 L 249.1875 13.070312 C 248.945312 13.070312 248.746094 13.269531 248.746094 13.511719 L 248.746094 15.863281 C 246.691406 16.082031 245.085938 17.828125 245.085938 19.9375 L 245.085938 62.761719 C 245.085938 64.875 246.691406 66.617188 248.746094 66.839844 L 248.746094 119.339844 C 248.746094 119.359375 248.757812 119.375 248.757812 119.394531 C 248.761719 119.40625 248.753906 119.421875 248.757812 119.433594 L 252.199219 134.605469 L 252.761719 137.09375 C 252.914062 137.75 253.464844 138.191406 254.140625 138.191406 C 254.8125 138.191406 255.367188 137.75 255.515625 137.09375 L 256.082031 134.605469 L 259.519531 119.433594 C 259.523438 119.421875 259.519531 119.40625 259.519531 119.394531 C 259.523438 119.375 259.53125 119.359375 259.53125 119.339844 Z M 259.53125 13.511719 " fill-opacity="1" fill-rule="nonzero"/></g><path fill="#000000" d="M 253.289062 19.9375 L 253.289062 62.761719 C 253.289062 64.875 251.683594 66.621094 249.625 66.839844 L 249.625 118.898438 L 258.652344 118.898438 L 258.652344 13.949219 L 249.625 13.949219 L 249.625 15.863281 C 251.683594 16.082031 253.289062 17.824219 253.289062 19.9375 Z M 253.289062 19.9375 " fill-opacity="1" fill-rule="nonzero"/><path fill="#7FBF4D" d="M 258.542969 119.777344 L 255.300781 134.066406 L 252.980469 134.066406 L 249.738281 119.777344 Z M 257.378906 4.5625 L 250.898438 4.5625 L 250.898438 12.996094 L 257.378906 12.996094 Z M 257.378906 4.5625 " fill-opacity="1" fill-rule="nonzero"/><g clip-path="url(#b6ad6f3f3a)"><path fill="#7FBF4D" d="M 253.621094 136.898438 L 253.179688 134.945312 L 255.101562 134.945312 L 254.660156 136.898438 C 254.589844 137.203125 254.347656 137.3125 254.140625 137.3125 C 253.933594 137.3125 253.691406 137.203125 253.621094 136.898438 Z M 249.1875 65.984375 C 250.964844 65.984375 252.410156 64.539062 252.410156 62.761719 L 252.410156 19.9375 C 252.410156 18.164062 250.964844 16.71875 249.1875 16.71875 C 247.410156 16.71875 245.964844 18.164062 245.964844 19.9375 L 245.964844 62.761719 C 245.964844 64.539062 247.410156 65.984375 249.1875 65.984375 Z M 249.1875 65.984375 " fill-opacity="1" fill-rule="nonzero"/></g><g clip-path="url(#77293fa36a)"><path fill="#000000" d="M 259.53125 13.511719 C 259.53125 13.269531 259.335938 13.070312 259.09375 13.070312 L 258.257812 13.070312 L 258.257812 4.125 C 258.257812 3.882812 258.0625 3.683594 257.820312 3.683594 L 250.460938 3.683594 C 250.21875 3.683594 250.019531 3.882812 250.019531 4.125 L 250.019531 13.070312 L 249.1875 13.070312 C 248.945312 13.070312 248.746094 13.269531 248.746094 13.511719 L 248.746094 15.863281 C 246.691406 16.082031 245.085938 17.828125 245.085938 19.9375 L 245.085938 62.761719 C 245.085938 64.875 246.691406 66.617188 248.746094 66.839844 L 248.746094 119.339844 C 248.746094 119.359375 248.757812 119.375 248.757812 119.394531 C 248.761719 119.40625 248.753906 119.421875 248.757812 119.433594 L 252.199219 134.605469 L 252.761719 137.09375 C 252.914062 137.75 253.464844 138.191406 254.140625 138.191406 C 254.8125 138.191406 255.367188 137.75 255.515625 137.09375 L 256.082031 134.605469 L 259.519531 119.433594 C 259.523438 119.421875 259.519531 119.40625 259.519531 119.394531 C 259.523438 119.375 259.53125 119.359375 259.53125 119.339844 Z M 250.898438 4.5625 L 257.378906 4.5625 L 257.378906 12.996094 L 250.898438 12.996094 Z M 245.964844 62.761719 L 245.964844 19.9375 C 245.964844 18.164062 247.410156 16.71875 249.1875 16.71875 C 250.964844 16.71875 252.410156 18.164062 252.410156 19.9375 L 252.410156 62.761719 C 252.410156 64.539062 250.964844 65.984375 249.1875 65.984375 C 247.410156 65.984375 245.964844 64.539062 245.964844 62.761719 Z M 254.660156 136.898438 C 254.589844 137.203125 254.34375 137.3125 254.140625 137.3125 C 253.933594 137.3125 253.691406 137.203125 253.621094 136.898438 L 253.175781 134.945312 L 255.101562 134.945312 Z M 255.300781 134.066406 L 252.980469 134.066406 L 249.738281 119.777344 L 258.542969 119.777344 Z M 249.625 118.898438 L 249.625 66.839844 C 251.679688 66.617188 253.289062 64.875 253.289062 62.761719 L 253.289062 19.9375 C 253.289062 17.824219 251.683594 16.082031 249.625 15.863281 L 249.625 13.949219 L 258.652344 13.949219 L 258.652344 118.898438 Z M 249.625 118.898438 " fill-opacity="1" fill-rule="nonzero"/></g><g fill="#7FBF4D" fill-opacity="1"><g transform="translate(4.31517, 100.987423)"><g><path d="M 44.59375 -25.5625 L 44.59375 -15.65625 C 43.414062 -10.238281 40.832031 -6.132812 36.84375 -3.34375 C 32.863281 -0.5625 28.421875 0.828125 23.515625 0.828125 C 17.359375 0.828125 12.109375 -1.472656 7.765625 -6.078125 C 3.429688 -10.691406 1.265625 -16.265625 1.265625 -22.796875 C 1.265625 -29.429688 3.382812 -35.035156 7.625 -39.609375 C 11.875 -44.179688 17.171875 -46.46875 23.515625 -46.46875 C 30.929688 -46.46875 36.796875 -43.867188 41.109375 -38.671875 L 34.296875 -31.203125 C 31.867188 -35.109375 28.476562 -37.0625 24.125 -37.0625 C 20.914062 -37.0625 18.175781 -35.671875 15.90625 -32.890625 C 13.632812 -30.109375 12.5 -26.742188 12.5 -22.796875 C 12.5 -18.921875 13.632812 -15.609375 15.90625 -12.859375 C 18.175781 -10.109375 20.914062 -8.734375 24.125 -8.734375 C 26.78125 -8.734375 29.09375 -9.535156 31.0625 -11.140625 C 33.039062 -12.753906 34.03125 -14.882812 34.03125 -17.53125 L 23.515625 -17.53125 L 23.515625 -25.5625 Z M 44.59375 -25.5625 "/></g></g></g><g fill="#7FBF4D" fill-opacity="1"><g transform="translate(50.181023, 100.987423)"><g><path d="M 32.03125 -12.84375 L 11.453125 -12.84375 C 11.453125 -10.84375 12.097656 -9.363281 13.390625 -8.40625 C 14.679688 -7.445312 16.082031 -6.96875 17.59375 -6.96875 C 19.175781 -6.96875 20.425781 -7.179688 21.34375 -7.609375 C 22.269531 -8.035156 23.328125 -8.875 24.515625 -10.125 L 31.59375 -6.578125 C 28.644531 -1.640625 23.738281 0.828125 16.875 0.828125 C 12.59375 0.828125 8.921875 -0.632812 5.859375 -3.5625 C 2.796875 -6.5 1.265625 -10.03125 1.265625 -14.15625 C 1.265625 -18.289062 2.796875 -21.832031 5.859375 -24.78125 C 8.921875 -27.738281 12.59375 -29.21875 16.875 -29.21875 C 21.375 -29.21875 25.035156 -27.914062 27.859375 -25.3125 C 30.679688 -22.707031 32.09375 -18.988281 32.09375 -14.15625 C 32.09375 -13.5 32.070312 -13.0625 32.03125 -12.84375 Z M 11.734375 -18.265625 L 22.515625 -18.265625 C 22.296875 -19.734375 21.710938 -20.863281 20.765625 -21.65625 C 19.828125 -22.445312 18.625 -22.84375 17.15625 -22.84375 C 15.53125 -22.84375 14.238281 -22.421875 13.28125 -21.578125 C 12.320312 -20.734375 11.804688 -19.628906 11.734375 -18.265625 Z M 11.734375 -18.265625 "/></g></g></g><g fill="#7FBF4D" fill-opacity="1"><g transform="translate(83.543035, 100.987423)"><g><path d="M 3.3125 0 L 3.3125 -28.390625 L 13.109375 -28.390625 L 13.109375 -24.28125 L 13.21875 -24.28125 C 13.289062 -24.4375 13.410156 -24.625 13.578125 -24.84375 C 13.742188 -25.0625 14.101562 -25.445312 14.65625 -26 C 15.207031 -26.550781 15.796875 -27.046875 16.421875 -27.484375 C 17.054688 -27.929688 17.867188 -28.332031 18.859375 -28.6875 C 19.859375 -29.039062 20.875 -29.21875 21.90625 -29.21875 C 22.976562 -29.21875 24.03125 -29.066406 25.0625 -28.765625 C 26.09375 -28.472656 26.847656 -28.179688 27.328125 -27.890625 L 28.109375 -27.4375 L 24.015625 -19.140625 C 22.796875 -20.171875 21.097656 -20.6875 18.921875 -20.6875 C 17.742188 -20.6875 16.726562 -20.425781 15.875 -19.90625 C 15.03125 -19.394531 14.429688 -18.769531 14.078125 -18.03125 C 13.734375 -17.300781 13.484375 -16.675781 13.328125 -16.15625 C 13.179688 -15.632812 13.109375 -15.226562 13.109375 -14.9375 L 13.109375 0 Z M 3.3125 0 "/></g></g></g><g fill="#7FBF4D" fill-opacity="1"><g transform="translate(111.095736, 100.987423)"><g><path d="M 3.3125 0 L 3.3125 -28.390625 L 13.109375 -28.390625 L 13.109375 -25.390625 L 13.21875 -25.390625 C 15.769531 -27.941406 18.484375 -29.21875 21.359375 -29.21875 C 23.421875 -29.21875 25.351562 -28.789062 27.15625 -27.9375 C 28.96875 -27.09375 30.335938 -25.785156 31.265625 -24.015625 C 34.140625 -27.484375 37.273438 -29.21875 40.671875 -29.21875 C 43.691406 -29.21875 46.289062 -28.367188 48.46875 -26.671875 C 50.644531 -24.972656 51.734375 -22.316406 51.734375 -18.703125 L 51.734375 0 L 41.9375 0 L 41.9375 -16.046875 C 41.9375 -17.554688 41.519531 -18.816406 40.6875 -19.828125 C 39.863281 -20.847656 38.617188 -21.359375 36.953125 -21.359375 C 35.515625 -21.359375 34.414062 -20.921875 33.65625 -20.046875 C 32.90625 -19.179688 32.492188 -18.144531 32.421875 -16.9375 L 32.421875 0 L 22.625 0 L 22.625 -16.046875 C 22.625 -17.554688 22.207031 -18.816406 21.375 -19.828125 C 20.550781 -20.847656 19.3125 -21.359375 17.65625 -21.359375 C 16.132812 -21.359375 14.992188 -20.882812 14.234375 -19.9375 C 13.484375 -19 13.109375 -17.882812 13.109375 -16.59375 L 13.109375 0 Z M 3.3125 0 "/></g></g></g><g fill="#7FBF4D" fill-opacity="1"><g transform="translate(165.592557, 100.987423)"><g><path d="M 5.25 -3.515625 C 2.59375 -6.410156 1.265625 -9.957031 1.265625 -14.15625 C 1.265625 -18.363281 2.59375 -21.925781 5.25 -24.84375 C 7.90625 -27.757812 11.28125 -29.21875 15.375 -29.21875 C 19.144531 -29.21875 22.242188 -28.035156 24.671875 -25.671875 L 24.671875 -28.390625 L 34.46875 -28.390625 L 34.46875 0 L 24.78125 0 L 24.78125 -3.203125 L 24.671875 -3.203125 C 22.242188 -0.515625 19.144531 0.828125 15.375 0.828125 C 11.28125 0.828125 7.90625 -0.617188 5.25 -3.515625 Z M 13.578125 -18.96875 C 12.304688 -17.71875 11.671875 -16.113281 11.671875 -14.15625 C 11.671875 -12.207031 12.28125 -10.613281 13.5 -9.375 C 14.71875 -8.144531 16.320312 -7.53125 18.3125 -7.53125 C 20.226562 -7.53125 21.800781 -8.15625 23.03125 -9.40625 C 24.269531 -10.65625 24.890625 -12.238281 24.890625 -14.15625 C 24.890625 -16.113281 24.253906 -17.71875 22.984375 -18.96875 C 21.710938 -20.226562 20.15625 -20.859375 18.3125 -20.859375 C 16.425781 -20.859375 14.847656 -20.226562 13.578125 -18.96875 Z M 13.578125 -18.96875 "/></g></g></g><g fill="#7FBF4D" fill-opacity="1"><g transform="translate(203.380709, 100.987423)"><g><path d="M 3.3125 0 L 3.3125 -28.390625 L 13.109375 -28.390625 L 13.109375 -25.390625 L 13.21875 -25.390625 C 15.769531 -27.941406 18.484375 -29.21875 21.359375 -29.21875 C 22.753906 -29.21875 24.144531 -29.03125 25.53125 -28.65625 C 26.914062 -28.289062 28.242188 -27.71875 29.515625 -26.9375 C 30.785156 -26.164062 31.816406 -25.066406 32.609375 -23.640625 C 33.410156 -22.222656 33.8125 -20.578125 33.8125 -18.703125 L 33.8125 0 L 24.015625 0 L 24.015625 -16.046875 C 24.015625 -17.523438 23.539062 -18.816406 22.59375 -19.921875 C 21.65625 -21.023438 20.429688 -21.578125 18.921875 -21.578125 C 17.441406 -21.578125 16.101562 -21.003906 14.90625 -19.859375 C 13.707031 -18.710938 13.109375 -17.441406 13.109375 -16.046875 L 13.109375 0 Z M 3.3125 0 "/></g></g></g><path stroke-linecap="butt" transform="matrix(0.663341, 0, 0, 0.663341, 3.470223, 61.542798)" fill="none" stroke-linejoin="miter" d="M 67.21792 20.469571 L 67.21792 35.397566 C 65.439516 43.571158 61.552938 49.754352 55.552296 53.947145 C 49.551655 58.145828 42.850251 60.242225 35.453974 60.242225 C 26.167407 60.242225 18.25292 56.767859 11.710513 49.813239 C 5.179884 42.864508 1.911624 34.467143 1.911624 24.627033 C 1.911624 14.622037 5.109219 6.171674 11.504407 -0.724059 C 17.899595 -7.62568 25.884747 -11.070602 35.453974 -11.070602 C 46.624943 -11.070602 55.463965 -7.148691 61.965151 0.70102 L 51.724605 11.96032 C 48.044133 6.065676 42.926805 3.121298 36.37262 3.121298 C 31.537952 3.121298 27.409935 5.217695 23.988568 9.416378 C 20.567201 13.609172 18.859462 18.67939 18.859462 24.627033 C 18.859462 30.474567 20.567201 35.47412 23.988568 39.613915 C 27.409935 43.75371 31.537952 45.826552 36.37262 45.826552 C 40.376974 45.826552 43.863117 44.613468 46.836938 42.199078 C 49.81076 39.767023 51.294726 36.557651 51.294726 32.565075 L 35.453974 32.565075 L 35.453974 20.469571 Z M 117.449003 39.655136 L 86.409374 39.655136 C 86.409374 42.652513 87.381019 44.878462 89.324308 46.332985 C 91.279375 47.769841 93.399326 48.494158 95.678275 48.494158 C 98.069109 48.494158 99.953511 48.176165 101.337369 47.534291 C 102.721226 46.898305 104.31119 45.626334 106.101372 43.724266 L 116.771796 49.083033 C 112.319897 56.520531 104.923621 60.242225 94.577078 60.242225 C 88.12889 60.242225 82.599349 58.033941 77.982565 53.623264 C 73.365781 49.200809 71.057389 43.877374 71.057389 37.658848 C 71.057389 31.428545 73.365781 26.087444 77.982565 21.629656 C 82.599349 17.177757 88.12889 14.951808 94.577078 14.951808 C 101.366812 14.951808 106.884576 16.912763 111.136257 20.840563 C 115.393827 24.762474 117.525557 30.36268 117.525557 37.641182 C 117.525557 38.64227 117.502002 39.313588 117.449003 39.655136 Z M 86.821587 31.469766 L 103.092218 31.469766 C 102.75067 29.243817 101.873245 27.530189 100.465833 26.334772 C 99.052532 25.139354 97.232906 24.54459 95.006957 24.54459 C 92.563123 24.54459 90.613945 25.186464 89.159423 26.481991 C 87.722566 27.753962 86.939362 29.42048 86.821587 31.469766 Z M 124.444844 58.999697 L 124.444844 16.21789 L 139.213843 16.21789 L 139.213843 22.383417 L 139.372839 22.383417 C 139.484725 22.153755 139.661388 21.876984 139.902827 21.553102 C 140.161932 21.211555 140.703698 20.628568 141.534012 19.798253 C 142.376104 18.956161 143.265306 18.202401 144.201618 17.536971 C 145.149708 16.871542 146.374569 16.276778 147.864424 15.74679 C 149.371945 15.216802 150.908911 14.951808 152.469431 14.951808 C 154.08295 14.951808 155.667025 15.17558 157.209879 15.623126 C 158.776288 16.070671 159.912817 16.524105 160.631245 16.971651 L 161.814885 17.619414 L 155.64347 30.144796 C 153.800289 28.584276 151.238681 27.801072 147.964533 27.801072 C 146.186129 27.801072 144.655052 28.195618 143.365415 28.984712 C 142.087555 29.756139 141.186576 30.698339 140.656588 31.817203 C 140.138377 32.930178 139.767386 33.872379 139.537724 34.643805 C 139.31984 35.421121 139.213843 36.027663 139.213843 36.475208 L 139.213843 58.999697 Z M 165.984124 58.999697 L 165.984124 16.21789 L 180.747234 16.21789 L 180.747234 20.716899 L 180.912119 20.716899 C 184.751587 16.871542 188.838383 14.951808 193.166618 14.951808 C 196.275881 14.951808 199.196704 15.599571 201.923198 16.889208 C 204.65558 18.161179 206.710756 20.133912 208.094613 22.79563 C 212.440514 17.566415 217.169185 14.951808 222.286513 14.951808 C 226.838521 14.951808 230.754543 16.235556 234.040469 18.803054 C 237.326394 21.352885 238.969357 25.357238 238.969357 30.816115 L 238.969357 58.999697 L 224.206248 58.999697 L 224.206248 34.808691 C 224.206248 32.529742 223.570262 30.627674 222.310068 29.108375 C 221.061652 27.57141 219.189028 26.805872 216.686307 26.805872 C 214.519245 26.805872 212.858616 27.453635 211.722086 28.760939 C 210.579668 30.062354 209.95546 31.64054 209.849462 33.483721 L 209.849462 58.999697 L 195.080464 58.999697 L 195.080464 34.808691 C 195.080464 32.529742 194.456256 30.627674 193.20784 29.108375 C 191.959424 27.57141 190.086799 26.805872 187.589967 26.805872 C 185.311019 26.805872 183.597391 27.518412 182.454973 28.94349 C 181.318443 30.356792 180.747234 32.029198 180.747234 33.972487 L 180.747234 58.999697 Z M 251.053083 53.705706 C 247.042841 49.33625 245.040664 43.977483 245.040664 37.641182 C 245.040664 31.298992 247.042841 25.934336 251.053083 21.553102 C 255.057436 17.154202 260.145321 14.951808 266.322625 14.951808 C 271.981719 14.951808 276.657391 16.730212 280.331974 20.28702 L 280.331974 16.21789 L 295.095084 16.21789 L 295.095084 58.999697 L 280.496859 58.999697 L 280.496859 54.153252 L 280.331974 54.153252 C 276.657391 58.210604 271.981719 60.242225 266.322625 60.242225 C 260.145321 60.242225 255.057436 58.063385 251.053083 53.705706 Z M 263.596132 30.386235 C 261.682286 32.276526 260.722419 34.696804 260.722419 37.658848 C 260.722419 40.603226 261.641065 43.005838 263.472468 44.866685 C 265.321537 46.727531 267.741815 47.657955 270.745081 47.657955 C 273.636459 47.657955 276.009628 46.715754 277.870474 44.825463 C 279.731321 42.923395 280.661744 40.532561 280.661744 37.641182 C 280.661744 34.690915 279.701877 32.276526 277.788032 30.386235 C 275.874186 28.501834 273.524573 27.559633 270.745081 27.559633 C 267.9067 27.559633 265.521755 28.501834 263.596132 30.386235 Z M 305.105968 58.999697 L 305.105968 16.21789 L 319.869077 16.21789 L 319.869077 20.716899 L 320.033962 20.716899 C 323.873431 16.871542 327.960227 14.951808 332.288462 14.951808 C 334.408414 14.951808 336.504811 15.228579 338.583541 15.788011 C 340.674049 16.347443 342.676226 17.207201 344.590072 18.373175 C 346.515695 19.539148 348.082104 21.199777 349.271632 23.343284 C 350.46705 25.486791 351.067703 27.977734 351.067703 30.816115 L 351.067703 58.999697 L 336.304593 58.999697 L 336.304593 34.808691 C 336.304593 32.582741 335.592054 30.639452 334.166975 28.984712 C 332.753674 27.312305 330.904604 26.481991 328.625656 26.481991 C 326.399707 26.481991 324.379864 27.341749 322.577904 29.067154 C 320.770057 30.786671 319.869077 32.706405 319.869077 34.808691 L 319.869077 58.999697 Z M 305.105968 58.999697 " stroke="#7FBF4D" stroke-width="0.886303" stroke-opacity="1" stroke-miterlimit="4"/><g clip-path="url(#fb656ceb3c)"><g clip-path="url(#cc2d1b8517)"><g clip-path="url(#597d82efbe)"><path fill="#7FBF4D" d="M 13.820312 114.050781 C 14.074219 113.953125 14.335938 113.90625 14.609375 113.914062 C 14.878906 113.921875 15.136719 113.980469 15.382812 114.089844 C 15.632812 114.199219 15.847656 114.347656 16.03125 114.542969 C 16.21875 114.738281 16.359375 114.960938 16.453125 115.214844 C 16.550781 115.464844 16.59375 115.722656 16.585938 115.992188 C 16.574219 116.261719 16.515625 116.519531 16.402344 116.765625 C 16.292969 117.011719 16.136719 117.226562 15.9375 117.410156 C 15.742188 117.597656 15.515625 117.738281 15.261719 117.832031 C 15.007812 117.929688 14.746094 117.976562 14.472656 117.96875 C 14.203125 117.960938 13.945312 117.902344 13.699219 117.792969 C 13.449219 117.683594 13.234375 117.53125 13.050781 117.339844 C 12.863281 117.144531 12.722656 116.921875 12.628906 116.667969 C 12.53125 116.417969 12.488281 116.160156 12.5 115.890625 C 12.507812 115.621094 12.566406 115.363281 12.679688 115.117188 C 12.792969 114.871094 12.945312 114.65625 13.144531 114.472656 C 13.339844 114.285156 13.566406 114.144531 13.820312 114.050781 Z M 13.820312 114.050781 " fill-opacity="1" fill-rule="nonzero"/></g></g></g><g clip-path="url(#9289d0bd93)"><g clip-path="url(#1456d3dabf)"><g clip-path="url(#7020b302d3)"><path fill="#7FBF4D" d="M 13.695312 107.960938 L 14.714844 110.640625 C 11.105469 112.015625 9.277344 116.023438 10.636719 119.59375 L 7.929688 120.625 C 6.003906 115.574219 8.585938 109.902344 13.695312 107.960938 Z M 13.695312 107.960938 " fill-opacity="1" fill-rule="nonzero"/></g></g></g><g clip-path="url(#779c66a6cc)"><g clip-path="url(#f33bb1c33c)"><g clip-path="url(#1d4e12fd47)"><path fill="#7FBF4D" d="M 12.972656 106.066406 C 6.808594 108.414062 3.695312 115.257812 6.015625 121.351562 L 3.226562 122.414062 C 0.324219 114.792969 4.21875 106.238281 11.921875 103.308594 Z M 12.972656 106.066406 " fill-opacity="1" fill-rule="nonzero"/></g></g></g><g fill="#000000" fill-opacity="1"><g transform="translate(11.662842, 127.607944)"><g><path d="M 14.140625 -7.40625 C 14.140625 -5.875 13.867188 -4.53125 13.328125 -3.375 C 12.785156 -2.226562 12.007812 -1.34375 11 -0.71875 C 10 -0.09375 8.847656 0.21875 7.546875 0.21875 C 6.253906 0.21875 5.101562 -0.0859375 4.09375 -0.703125 C 3.09375 -1.328125 2.3125 -2.210938 1.75 -3.359375 C 1.195312 -4.503906 0.921875 -5.828125 0.921875 -7.328125 L 0.921875 -8.09375 C 0.921875 -9.613281 1.191406 -10.953125 1.734375 -12.109375 C 2.285156 -13.273438 3.0625 -14.171875 4.0625 -14.796875 C 5.070312 -15.421875 6.222656 -15.734375 7.515625 -15.734375 C 8.816406 -15.734375 9.96875 -15.421875 10.96875 -14.796875 C 11.976562 -14.171875 12.757812 -13.273438 13.3125 -12.109375 C 13.863281 -10.953125 14.140625 -9.613281 14.140625 -8.09375 Z M 10.890625 -8.109375 C 10.890625 -9.734375 10.597656 -10.96875 10.015625 -11.8125 C 9.429688 -12.664062 8.601562 -13.09375 7.53125 -13.09375 C 6.457031 -13.09375 5.628906 -12.671875 5.046875 -11.828125 C 4.460938 -10.992188 4.164062 -9.773438 4.15625 -8.171875 L 4.15625 -7.40625 C 4.15625 -5.820312 4.445312 -4.59375 5.03125 -3.71875 C 5.613281 -2.84375 6.453125 -2.40625 7.546875 -2.40625 C 8.617188 -2.40625 9.441406 -2.828125 10.015625 -3.671875 C 10.585938 -4.515625 10.878906 -5.742188 10.890625 -7.359375 Z M 10.890625 -8.109375 "/></g></g></g><g fill="#000000" fill-opacity="1"><g transform="translate(27.734609, 127.607944)"><g><path d="M 4.015625 -11.53125 L 4.109375 -10.203125 C 4.929688 -11.234375 6.035156 -11.75 7.421875 -11.75 C 8.648438 -11.75 9.5625 -11.390625 10.15625 -10.671875 C 10.75 -9.953125 11.054688 -8.878906 11.078125 -7.453125 L 11.078125 0 L 8 0 L 8 -7.375 C 8 -8.03125 7.851562 -8.503906 7.5625 -8.796875 C 7.28125 -9.085938 6.8125 -9.234375 6.15625 -9.234375 C 5.28125 -9.234375 4.628906 -8.863281 4.203125 -8.125 L 4.203125 0 L 1.125 0 L 1.125 -11.53125 Z M 4.015625 -11.53125 "/></g></g></g><g fill="#000000" fill-opacity="1"><g transform="translate(40.961231, 127.607944)"><g><path d="M 4.4375 0 L 1.34375 0 L 1.34375 -16.375 L 4.4375 -16.375 Z M 4.4375 0 "/></g></g></g><g fill="#000000" fill-opacity="1"><g transform="translate(47.751647, 127.607944)"><g><path d="M 4.4375 0 L 1.34375 0 L 1.34375 -11.53125 L 4.4375 -11.53125 Z M 1.15625 -14.515625 C 1.15625 -14.972656 1.3125 -15.351562 1.625 -15.65625 C 1.9375 -15.957031 2.359375 -16.109375 2.890625 -16.109375 C 3.410156 -16.109375 3.828125 -15.957031 4.140625 -15.65625 C 4.453125 -15.351562 4.609375 -14.972656 4.609375 -14.515625 C 4.609375 -14.046875 4.453125 -13.660156 4.140625 -13.359375 C 3.828125 -13.066406 3.410156 -12.921875 2.890625 -12.921875 C 2.367188 -12.921875 1.945312 -13.066406 1.625 -13.359375 C 1.3125 -13.660156 1.15625 -14.046875 1.15625 -14.515625 Z M 1.15625 -14.515625 "/></g></g></g><g fill="#000000" fill-opacity="1"><g transform="translate(54.542062, 127.607944)"><g><path d="M 4.015625 -11.53125 L 4.109375 -10.203125 C 4.929688 -11.234375 6.035156 -11.75 7.421875 -11.75 C 8.648438 -11.75 9.5625 -11.390625 10.15625 -10.671875 C 10.75 -9.953125 11.054688 -8.878906 11.078125 -7.453125 L 11.078125 0 L 8 0 L 8 -7.375 C 8 -8.03125 7.851562 -8.503906 7.5625 -8.796875 C 7.28125 -9.085938 6.8125 -9.234375 6.15625 -9.234375 C 5.28125 -9.234375 4.628906 -8.863281 4.203125 -8.125 L 4.203125 0 L 1.125 0 L 1.125 -11.53125 Z M 4.015625 -11.53125 "/></g></g></g><g fill="#000000" fill-opacity="1"><g transform="translate(67.768685, 127.607944)"><g><path d="M 6.484375 0.21875 C 4.796875 0.21875 3.421875 -0.300781 2.359375 -1.34375 C 1.296875 -2.382812 0.765625 -3.765625 0.765625 -5.484375 L 0.765625 -5.78125 C 0.765625 -6.945312 0.988281 -7.984375 1.4375 -8.890625 C 1.882812 -9.804688 2.519531 -10.507812 3.34375 -11 C 4.164062 -11.5 5.101562 -11.75 6.15625 -11.75 C 7.726562 -11.75 8.96875 -11.25 9.875 -10.25 C 10.78125 -9.257812 11.234375 -7.847656 11.234375 -6.015625 L 11.234375 -4.765625 L 3.890625 -4.765625 C 3.992188 -4.015625 4.296875 -3.410156 4.796875 -2.953125 C 5.296875 -2.492188 5.925781 -2.265625 6.6875 -2.265625 C 7.875 -2.265625 8.800781 -2.695312 9.46875 -3.5625 L 10.984375 -1.859375 C 10.523438 -1.210938 9.898438 -0.703125 9.109375 -0.328125 C 8.328125 0.0351562 7.453125 0.21875 6.484375 0.21875 Z M 6.140625 -9.25 C 5.523438 -9.25 5.023438 -9.039062 4.640625 -8.625 C 4.265625 -8.21875 4.023438 -7.628906 3.921875 -6.859375 L 8.203125 -6.859375 L 8.203125 -7.109375 C 8.191406 -7.785156 8.007812 -8.3125 7.65625 -8.6875 C 7.300781 -9.0625 6.796875 -9.25 6.140625 -9.25 Z M 6.140625 -9.25 "/></g></g></g><path stroke-linecap="butt" transform="matrix(0.768262, 0, 0, 0.768262, 8.945929, 105.712207)" fill="none" stroke-linejoin="miter" d="M 20.754254 19.360243 C 20.754254 21.348295 20.403422 23.092289 19.701756 24.587141 C 18.995006 26.087078 17.993354 27.241267 16.681545 28.054792 C 15.37482 28.868317 13.874883 29.275079 12.181734 29.275079 C 10.508924 29.275079 9.014071 28.873401 7.702262 28.070045 C 6.385369 27.266689 5.368463 26.117585 4.646459 24.622733 C 3.924456 23.127881 3.563454 21.414394 3.553285 19.472103 L 3.553285 18.47045 C 3.553285 16.482398 3.909202 14.73332 4.626121 13.218129 C 5.34304 11.708023 6.354862 10.54875 7.666671 9.74031 C 8.973395 8.931869 10.468247 8.525107 12.151227 8.525107 C 13.834207 8.525107 15.334144 8.931869 16.640868 9.74031 C 17.947593 10.54875 18.959415 11.708023 19.676334 13.218129 C 20.393252 14.73332 20.754254 16.477314 20.754254 18.455197 Z M 16.534093 18.445027 C 16.534093 16.324778 16.157838 14.718066 15.400243 13.614723 C 14.642648 12.516464 13.559642 11.967335 12.151227 11.967335 C 10.758066 11.967335 9.680145 12.506295 8.92255 13.594385 C 8.164955 14.682474 7.77853 16.273933 7.768361 18.373844 L 7.768361 19.360243 C 7.768361 21.419478 8.149701 23.021106 8.907296 24.160041 C 9.664891 25.293891 10.758066 25.863359 12.181734 25.863359 C 13.574896 25.863359 14.647732 25.319314 15.400243 24.221055 C 16.147669 23.122796 16.529009 21.526253 16.534093 19.426342 Z M 28.508164 13.990978 L 28.635278 15.724803 C 29.708114 14.382487 31.141952 13.711329 32.94696 13.711329 C 34.538419 13.711329 35.723114 14.179106 36.501048 15.114659 C 37.273896 16.050213 37.675574 17.443375 37.690828 19.304313 L 37.690828 29.000514 L 33.684217 29.000514 L 33.684217 19.400919 C 33.684217 18.551803 33.49609 17.93149 33.130003 17.55015 C 32.758833 17.163726 32.143604 16.970513 31.284319 16.970513 C 30.155553 16.970513 29.306436 17.453544 28.747137 18.41452 L 28.747137 29.000514 L 24.735442 29.000514 L 24.735442 13.990978 Z M 46.268432 29.000514 L 42.241483 29.000514 L 42.241483 7.691244 L 46.268432 7.691244 Z M 55.105348 29.000514 L 51.083483 29.000514 L 51.083483 13.990978 L 55.105348 13.990978 Z M 50.84451 10.106396 C 50.84451 9.506421 51.047892 9.008137 51.44957 8.621713 C 51.851248 8.235289 52.400377 8.036992 53.091873 8.036992 C 53.778285 8.036992 54.32233 8.235289 54.729092 8.621713 C 55.135855 9.008137 55.339236 9.506421 55.339236 10.106396 C 55.339236 10.71654 55.135855 11.214824 54.724008 11.606333 C 54.312161 11.992757 53.768116 12.185969 53.091873 12.185969 C 52.420715 12.185969 51.87667 11.992757 51.464823 11.606333 C 51.052976 11.214824 50.84451 10.71654 50.84451 10.106396 Z M 63.403303 13.990978 L 63.525332 15.724803 C 64.598168 14.382487 66.03709 13.711329 67.842099 13.711329 C 69.433557 13.711329 70.618253 14.179106 71.391101 15.114659 C 72.169035 16.050213 72.565628 17.443375 72.585966 19.304313 L 72.585966 29.000514 L 68.574271 29.000514 L 68.574271 19.400919 C 68.574271 18.551803 68.391228 17.93149 68.020057 17.55015 C 67.653971 17.163726 67.038743 16.970513 66.174372 16.970513 C 65.050691 16.970513 64.201574 17.453544 63.637191 18.41452 L 63.637191 29.000514 L 59.630581 29.000514 L 59.630581 13.990978 Z M 83.838034 29.275079 C 81.636432 29.275079 79.846677 28.603921 78.463684 27.251436 C 77.080692 25.904035 76.389196 24.104111 76.389196 21.856748 L 76.389196 21.465239 C 76.389196 19.960218 76.679014 18.612817 77.263735 17.423037 C 77.843372 16.233256 78.67215 15.318041 79.739902 14.67739 C 80.807653 14.036739 82.022856 13.711329 83.39568 13.711329 C 85.444746 13.711329 87.061627 14.362149 88.241238 15.65362 C 89.420849 16.950175 90.010655 18.785691 90.010655 21.160167 L 90.010655 22.797386 L 80.451736 22.797386 C 80.583934 23.778701 80.970358 24.566803 81.626263 25.156609 C 82.277083 25.751499 83.100777 26.046402 84.10243 26.046402 C 85.643043 26.046402 86.853161 25.487103 87.722616 24.368506 L 89.69033 26.570108 C 89.090355 27.42431 88.27683 28.085299 87.249755 28.563245 C 86.222679 29.041191 85.083744 29.275079 83.838034 29.275079 Z M 83.380426 16.960344 C 82.582155 16.960344 81.936419 17.22474 81.44322 17.7637 C 80.95002 18.297576 80.634779 19.06534 80.492412 20.066993 L 86.070143 20.066993 L 86.070143 19.746667 C 86.049805 18.861959 85.810832 18.170463 85.34814 17.687432 C 84.885448 17.199317 84.229543 16.960344 83.380426 16.960344 Z M 83.380426 16.960344 " stroke="#000000" stroke-width="0.56832" stroke-opacity="1" stroke-miterlimit="4"/><g fill="#000000" fill-opacity="1"><g transform="translate(80.578306, 127.607944)"><g/></g></g><g fill="#000000" fill-opacity="1"><g transform="translate(87.017074, 127.607944)"><g/></g></g><g fill="#000000" fill-opacity="1"><g transform="translate(93.458691, 127.607944)"><g><path d="M 10.140625 -3.203125 L 4.546875 -3.203125 L 3.46875 0 L 0.078125 0 L 5.84375 -15.515625 L 8.8125 -15.515625 L 14.625 0 L 11.21875 0 Z M 5.40625 -5.78125 L 9.28125 -5.78125 L 7.328125 -11.59375 Z M 5.40625 -5.78125 "/></g></g></g><g fill="#000000" fill-opacity="1"><g transform="translate(109.146843, 127.607944)"><g><path d="M 5.984375 -2.265625 C 6.546875 -2.265625 7.003906 -2.421875 7.359375 -2.734375 C 7.710938 -3.046875 7.898438 -3.460938 7.921875 -3.984375 L 10.8125 -3.984375 C 10.800781 -3.203125 10.585938 -2.484375 10.171875 -1.828125 C 9.753906 -1.179688 9.179688 -0.675781 8.453125 -0.3125 C 7.722656 0.0390625 6.914062 0.21875 6.03125 0.21875 C 4.382812 0.21875 3.082031 -0.304688 2.125 -1.359375 C 1.175781 -2.410156 0.703125 -3.859375 0.703125 -5.703125 L 0.703125 -5.90625 C 0.703125 -7.675781 1.171875 -9.09375 2.109375 -10.15625 C 3.054688 -11.21875 4.359375 -11.75 6.015625 -11.75 C 7.453125 -11.75 8.601562 -11.335938 9.46875 -10.515625 C 10.34375 -9.691406 10.789062 -8.597656 10.8125 -7.234375 L 7.921875 -7.234375 C 7.898438 -7.828125 7.710938 -8.3125 7.359375 -8.6875 C 7.003906 -9.0625 6.535156 -9.25 5.953125 -9.25 C 5.234375 -9.25 4.691406 -8.988281 4.328125 -8.46875 C 3.960938 -7.945312 3.78125 -7.097656 3.78125 -5.921875 L 3.78125 -5.609375 C 3.78125 -4.421875 3.960938 -3.566406 4.328125 -3.046875 C 4.691406 -2.523438 5.242188 -2.265625 5.984375 -2.265625 Z M 5.984375 -2.265625 "/></g></g></g><g fill="#000000" fill-opacity="1"><g transform="translate(121.531643, 127.607944)"><g><path d="M 7.859375 0 C 7.722656 -0.28125 7.625 -0.625 7.5625 -1.03125 C 6.8125 -0.195312 5.835938 0.21875 4.640625 0.21875 C 3.515625 0.21875 2.578125 -0.109375 1.828125 -0.765625 C 1.085938 -1.421875 0.71875 -2.242188 0.71875 -3.234375 C 0.71875 -4.460938 1.171875 -5.398438 2.078125 -6.046875 C 2.984375 -6.703125 4.296875 -7.035156 6.015625 -7.046875 L 7.421875 -7.046875 L 7.421875 -7.703125 C 7.421875 -8.234375 7.285156 -8.660156 7.015625 -8.984375 C 6.742188 -9.304688 6.3125 -9.46875 5.71875 -9.46875 C 5.207031 -9.46875 4.800781 -9.34375 4.5 -9.09375 C 4.207031 -8.84375 4.0625 -8.5 4.0625 -8.0625 L 0.984375 -8.0625 C 0.984375 -8.726562 1.1875 -9.347656 1.59375 -9.921875 C 2.007812 -10.492188 2.59375 -10.941406 3.34375 -11.265625 C 4.09375 -11.585938 4.941406 -11.75 5.890625 -11.75 C 7.304688 -11.75 8.429688 -11.390625 9.265625 -10.671875 C 10.097656 -9.960938 10.515625 -8.957031 10.515625 -7.65625 L 10.515625 -2.671875 C 10.523438 -1.566406 10.679688 -0.738281 10.984375 -0.1875 L 10.984375 0 Z M 5.3125 -2.140625 C 5.769531 -2.140625 6.191406 -2.238281 6.578125 -2.4375 C 6.960938 -2.644531 7.242188 -2.921875 7.421875 -3.265625 L 7.421875 -5.25 L 6.28125 -5.25 C 4.738281 -5.25 3.914062 -4.710938 3.8125 -3.640625 L 3.8125 -3.46875 C 3.8125 -3.082031 3.941406 -2.765625 4.203125 -2.515625 C 4.472656 -2.265625 4.84375 -2.140625 5.3125 -2.140625 Z M 5.3125 -2.140625 "/></g></g></g><g fill="#000000" fill-opacity="1"><g transform="translate(134.236123, 127.607944)"><g><path d="M 0.703125 -5.84375 C 0.703125 -7.644531 1.101562 -9.078125 1.90625 -10.140625 C 2.71875 -11.210938 3.820312 -11.75 5.21875 -11.75 C 6.34375 -11.75 7.269531 -11.328125 8 -10.484375 L 8 -16.375 L 11.09375 -16.375 L 11.09375 0 L 8.3125 0 L 8.171875 -1.21875 C 7.398438 -0.257812 6.410156 0.21875 5.203125 0.21875 C 3.847656 0.21875 2.757812 -0.316406 1.9375 -1.390625 C 1.113281 -2.460938 0.703125 -3.945312 0.703125 -5.84375 Z M 3.78125 -5.625 C 3.78125 -4.539062 3.96875 -3.710938 4.34375 -3.140625 C 4.71875 -2.566406 5.265625 -2.28125 5.984375 -2.28125 C 6.941406 -2.28125 7.613281 -2.679688 8 -3.484375 L 8 -8.03125 C 7.613281 -8.832031 6.953125 -9.234375 6.015625 -9.234375 C 4.523438 -9.234375 3.78125 -8.03125 3.78125 -5.625 Z M 3.78125 -5.625 "/></g></g></g><g fill="#000000" fill-opacity="1"><g transform="translate(147.537338, 127.607944)"><g><path d="M 6.484375 0.21875 C 4.796875 0.21875 3.421875 -0.300781 2.359375 -1.34375 C 1.296875 -2.382812 0.765625 -3.765625 0.765625 -5.484375 L 0.765625 -5.78125 C 0.765625 -6.945312 0.988281 -7.984375 1.4375 -8.890625 C 1.882812 -9.804688 2.519531 -10.507812 3.34375 -11 C 4.164062 -11.5 5.101562 -11.75 6.15625 -11.75 C 7.726562 -11.75 8.96875 -11.25 9.875 -10.25 C 10.78125 -9.257812 11.234375 -7.847656 11.234375 -6.015625 L 11.234375 -4.765625 L 3.890625 -4.765625 C 3.992188 -4.015625 4.296875 -3.410156 4.796875 -2.953125 C 5.296875 -2.492188 5.925781 -2.265625 6.6875 -2.265625 C 7.875 -2.265625 8.800781 -2.695312 9.46875 -3.5625 L 10.984375 -1.859375 C 10.523438 -1.210938 9.898438 -0.703125 9.109375 -0.328125 C 8.328125 0.0351562 7.453125 0.21875 6.484375 0.21875 Z M 6.140625 -9.25 C 5.523438 -9.25 5.023438 -9.039062 4.640625 -8.625 C 4.265625 -8.21875 4.023438 -7.628906 3.921875 -6.859375 L 8.203125 -6.859375 L 8.203125 -7.109375 C 8.191406 -7.785156 8.007812 -8.3125 7.65625 -8.6875 C 7.300781 -9.0625 6.796875 -9.25 6.140625 -9.25 Z M 6.140625 -9.25 "/></g></g></g><g fill="#000000" fill-opacity="1"><g transform="translate(160.337721, 127.607944)"><g><path d="M 4.078125 -11.53125 L 4.171875 -10.25 C 4.984375 -11.25 6.085938 -11.75 7.484375 -11.75 C 8.960938 -11.75 9.984375 -11.160156 10.546875 -9.984375 C 11.347656 -11.160156 12.5 -11.75 14 -11.75 C 15.25 -11.75 16.179688 -11.382812 16.796875 -10.65625 C 17.410156 -9.925781 17.71875 -8.828125 17.71875 -7.359375 L 17.71875 0 L 14.625 0 L 14.625 -7.359375 C 14.625 -8.003906 14.492188 -8.476562 14.234375 -8.78125 C 13.984375 -9.082031 13.535156 -9.234375 12.890625 -9.234375 C 11.960938 -9.234375 11.320312 -8.796875 10.96875 -7.921875 L 10.984375 0 L 7.890625 0 L 7.890625 -7.34375 C 7.890625 -8.007812 7.757812 -8.488281 7.5 -8.78125 C 7.238281 -9.082031 6.789062 -9.234375 6.15625 -9.234375 C 5.28125 -9.234375 4.648438 -8.875 4.265625 -8.15625 L 4.265625 0 L 1.1875 0 L 1.1875 -11.53125 Z M 4.078125 -11.53125 "/></g></g></g><g fill="#000000" fill-opacity="1"><g transform="translate(180.234982, 127.607944)"><g><path d="M 5.484375 -4.359375 L 7.625 -11.53125 L 10.921875 -11.53125 L 6.28125 1.796875 L 6.03125 2.390625 C 5.34375 3.898438 4.207031 4.65625 2.625 4.65625 C 2.175781 4.65625 1.71875 4.585938 1.25 4.453125 L 1.25 2.125 L 1.734375 2.125 C 2.304688 2.125 2.738281 2.035156 3.03125 1.859375 C 3.320312 1.679688 3.546875 1.390625 3.703125 0.984375 L 4.078125 0.03125 L 0.03125 -11.53125 L 3.34375 -11.53125 Z M 5.484375 -4.359375 "/></g></g></g><path stroke-linecap="butt" transform="matrix(0.768262, 0, 0, 0.768262, 8.945929, 105.712207)" fill="none" stroke-linejoin="miter" d="M 122.033033 24.836283 L 114.736731 24.836283 L 113.348654 29.000514 L 108.925112 29.000514 L 116.445133 8.804756 L 120.299208 8.804756 L 127.859906 29.000514 L 123.436364 29.000514 Z M 115.860412 21.465239 L 120.909352 21.465239 L 118.372171 13.909626 Z M 137.032401 26.046402 C 137.769658 26.046402 138.369632 25.84302 138.832325 25.436258 C 139.295017 25.029495 139.539074 24.485451 139.554328 23.814293 L 143.316881 23.814293 C 143.306712 24.831199 143.027063 25.761668 142.483018 26.6057 C 141.938973 27.454817 141.191547 28.110721 140.24074 28.578498 C 139.295017 29.046275 138.247604 29.275079 137.098499 29.275079 C 134.952827 29.275079 133.259678 28.593752 132.024137 27.231098 C 130.783512 25.868443 130.163199 23.982082 130.163199 21.577099 L 130.163199 21.312703 C 130.163199 19.004326 130.778427 17.158641 132.008884 15.780733 C 133.23934 14.402825 134.927405 13.711329 137.073077 13.711329 C 138.949269 13.711329 140.45429 14.245205 141.588141 15.312956 C 142.721991 16.385792 143.296543 17.804377 143.316881 19.578878 L 139.554328 19.578878 C 139.539074 18.806029 139.295017 18.170463 138.832325 17.687432 C 138.369632 17.199317 137.759489 16.960344 137.001893 16.960344 C 136.06634 16.960344 135.364674 17.301008 134.886728 17.977251 C 134.408782 18.658578 134.174894 19.761921 134.174894 21.28728 L 134.174894 21.704212 C 134.174894 23.24991 134.408782 24.358337 134.881644 25.03458 C 135.354505 25.705738 136.06634 26.046402 137.032401 26.046402 Z M 155.606193 29.000514 C 155.42315 28.639513 155.285868 28.192074 155.204515 27.653114 C 154.23337 28.736119 152.972406 29.275079 151.41654 29.275079 C 149.94711 29.275079 148.726823 28.853063 147.760762 27.998862 C 146.794701 27.149745 146.31167 26.076909 146.31167 24.780353 C 146.31167 23.19398 146.901476 21.973692 148.081087 21.119491 C 149.260698 20.270374 150.964016 19.838189 153.191041 19.833104 L 155.036726 19.833104 L 155.036726 18.968734 C 155.036726 18.277238 154.858767 17.723024 154.50285 17.306092 C 154.146933 16.889161 153.587634 16.680695 152.81987 16.680695 C 152.143628 16.680695 151.614836 16.8434 151.228412 17.16881 C 150.847072 17.489136 150.65386 17.936574 150.65386 18.500957 L 146.647249 18.500957 C 146.647249 17.631502 146.911645 16.823062 147.450605 16.085805 C 147.984481 15.343463 148.742076 14.763827 149.723391 14.341811 C 150.704705 13.924879 151.808049 13.711329 153.028336 13.711329 C 154.874021 13.711329 156.34345 14.179106 157.43154 15.109575 C 158.51963 16.03496 159.05859 17.341684 159.05859 19.024664 L 159.05859 25.532864 C 159.068759 26.956533 159.267056 28.034453 159.658565 28.766626 L 159.658565 29.000514 Z M 152.291079 26.214191 C 152.880885 26.214191 153.430014 26.081993 153.928298 25.817598 C 154.426582 25.553202 154.797753 25.197285 155.036726 24.754931 L 155.036726 22.177073 L 153.541874 22.177073 C 151.533484 22.177073 150.465732 22.86857 150.333534 24.256647 L 150.323365 24.490535 C 150.323365 24.988819 150.496239 25.400666 150.847072 25.726076 C 151.197905 26.051486 151.680935 26.214191 152.291079 26.214191 Z M 162.821143 21.383887 C 162.821143 19.045002 163.34485 17.178979 164.397348 15.795987 C 165.444761 14.40791 166.878599 13.711329 168.703946 13.711329 C 170.163207 13.711329 171.373325 14.260458 172.324132 15.348548 L 172.324132 7.691244 L 176.345997 7.691244 L 176.345997 29.000514 L 172.72581 29.000514 L 172.532598 27.403972 C 171.530945 28.654766 170.249644 29.275079 168.673439 29.275079 C 166.909106 29.275079 165.490522 28.583583 164.422771 27.190421 C 163.355019 25.79726 162.821143 23.865138 162.821143 21.383887 Z M 166.827754 21.673705 C 166.827754 23.08212 167.076896 24.160041 167.565011 24.907467 C 168.053126 25.654893 168.770045 26.031148 169.700514 26.031148 C 170.94114 26.031148 171.815679 25.507441 172.324132 24.465113 L 172.324132 18.541634 C 171.825848 17.49422 170.961478 16.970513 169.731021 16.970513 C 167.798899 16.970513 166.827754 18.541634 166.827754 21.673705 Z M 187.669248 29.275079 C 185.467646 29.275079 183.672806 28.603921 182.289814 27.251436 C 180.906821 25.904035 180.215325 24.104111 180.215325 21.856748 L 180.215325 21.465239 C 180.215325 19.960218 180.510228 18.612817 181.089864 17.423037 C 181.674585 16.233256 182.498279 15.318041 183.566031 14.67739 C 184.633783 14.036739 185.85407 13.711329 187.221809 13.711329 C 189.27596 13.711329 190.892841 14.362149 192.072452 15.65362 C 193.252063 16.950175 193.841869 18.785691 193.841869 21.160167 L 193.841869 22.797386 L 184.28295 22.797386 C 184.410063 23.778701 184.801572 24.566803 185.452392 25.156609 C 186.108297 25.751499 186.931991 26.046402 187.928559 26.046402 C 189.474256 26.046402 190.684375 25.487103 191.55383 24.368506 L 193.521543 26.570108 C 192.921569 27.42431 192.108044 28.085299 191.080968 28.563245 C 190.053893 29.041191 188.914958 29.275079 187.669248 29.275079 Z M 187.21164 16.960344 C 186.413369 16.960344 185.767633 17.22474 185.274434 17.7637 C 184.781234 18.297576 184.460909 19.06534 184.323626 20.066993 L 189.901357 20.066993 L 189.901357 19.746667 C 189.881019 18.861959 189.642046 18.170463 189.179354 17.687432 C 188.716661 17.199317 188.060757 16.960344 187.21164 16.960344 Z M 201.178847 13.990978 L 201.305961 15.668873 C 202.368628 14.367233 203.80755 13.711329 205.617643 13.711329 C 207.549765 13.711329 208.876828 14.474009 209.598831 15.999368 C 210.656414 14.474009 212.156351 13.711329 214.108811 13.711329 C 215.735861 13.711329 216.945979 14.189275 217.74425 15.134998 C 218.537437 16.08072 218.934031 17.509474 218.934031 19.416173 L 218.934031 29.000514 L 214.912166 29.000514 L 214.912166 19.426342 C 214.912166 18.577225 214.744377 17.956912 214.413882 17.560319 C 214.078303 17.16881 213.493582 16.970513 212.64955 16.970513 C 211.449601 16.970513 210.615738 17.545065 210.153045 18.694169 L 210.168299 29.000514 L 206.161688 29.000514 L 206.161688 19.441596 C 206.161688 18.572141 205.988814 17.941659 205.64815 17.555234 C 205.302402 17.16881 204.722766 16.970513 203.899072 16.970513 C 202.760137 16.970513 201.936443 17.443375 201.427989 18.389098 L 201.427989 29.000514 L 197.421379 29.000514 L 197.421379 13.990978 Z M 228.925135 23.326177 L 231.696204 13.990978 L 235.997718 13.990978 L 229.962379 31.32923 L 229.631885 32.122417 C 228.731923 34.079961 227.252324 35.061276 225.193089 35.061276 C 224.608368 35.061276 224.018562 34.974839 223.418587 34.79688 L 223.418587 31.761415 L 224.028731 31.776669 C 224.786326 31.776669 225.350709 31.659724 225.726965 31.425836 C 226.10322 31.197032 226.393038 30.810608 226.606588 30.276732 L 227.07945 29.041191 L 221.822045 13.990978 L 226.133727 13.990978 Z M 228.925135 23.326177 " stroke="#000000" stroke-width="0.56832" stroke-opacity="1" stroke-miterlimit="4"/></svg>